{"glyphs":{"0":{"ha":833,"x_min":82,"x_max":751,"o":"m 298 -7 l 533 -7 q 751 207 751 -7 l 751 753 q 533 965 751 965 l 298 965 q 82 753 82 965 l 82 207 q 298 -7 82 -7 m 211 208 l 211 750 q 301 842 211 842 l 530 842 q 621 750 621 842 l 621 208 q 530 117 621 117 l 301 117 q 211 208 211 117 "},"1":{"ha":439,"x_min":28,"x_max":293,"o":"m 293 87 l 293 859 q 200 965 293 965 q 81 936 135 965 q 28 869 28 907 q 57 842 28 842 l 87 842 q 152 826 140 842 q 164 760 164 810 l 164 87 q 229 -7 164 -7 q 276 20 258 -7 q 293 87 293 47 "},"2":{"ha":833,"x_min":82,"x_max":745,"o":"m 467 538 l 355 538 q 153 467 224 538 q 82 262 82 395 l 82 104 q 170 0 82 0 l 581 0 q 692 27 646 0 q 737 94 737 55 q 707 122 737 122 l 307 122 q 232 144 252 122 q 211 220 211 166 l 211 264 q 355 414 211 414 l 467 414 q 745 701 745 414 q 682 902 745 839 q 464 965 618 965 l 311 965 q 187 935 242 965 q 132 867 132 905 q 163 842 132 842 l 467 842 q 583 808 555 842 q 611 701 611 775 q 576 577 611 616 q 467 538 542 538 "},"3":{"ha":833,"x_min":86,"x_max":724,"o":"m 122 842 l 484 842 q 591 739 591 842 l 591 665 q 484 555 591 555 l 250 555 q 176 493 176 555 q 250 432 176 432 l 484 432 q 593 329 593 432 l 593 228 q 484 117 593 117 l 117 117 q 86 92 86 117 q 141 23 86 54 q 265 -7 196 -7 l 490 -7 q 662 55 600 -7 q 724 227 724 117 l 724 329 q 713 409 724 373 q 660 478 703 444 q 643 500 643 492 q 659 522 643 512 q 722 665 722 574 l 722 746 q 657 908 722 852 q 484 965 593 965 l 271 965 q 146 935 201 965 q 92 867 92 905 q 122 842 92 842 "},"4":{"ha":833,"x_min":82,"x_max":732,"o":"m 603 267 l 603 72 q 650 -7 603 -7 q 706 30 680 -7 q 732 125 732 67 l 732 871 q 715 938 732 911 q 668 965 699 965 q 603 871 603 965 l 603 585 q 582 510 603 532 q 507 488 562 488 l 321 488 q 211 599 211 488 l 211 886 q 164 965 211 965 q 108 928 134 965 q 82 833 82 890 l 82 597 q 318 364 82 364 l 507 364 q 582 342 562 364 q 603 267 603 320 "},"5":{"ha":833,"x_min":96,"x_max":753,"o":"m 196 457 l 475 457 q 585 420 550 457 q 619 298 619 384 q 475 117 619 117 l 126 117 q 96 92 96 117 q 151 23 96 54 q 275 -7 205 -7 l 472 -7 q 753 302 753 -7 q 687 513 753 446 q 475 581 621 581 l 334 581 q 258 602 279 581 q 237 677 237 624 l 237 745 q 258 820 237 798 q 334 842 278 842 l 694 842 q 725 869 725 842 q 679 937 725 909 q 568 965 633 965 l 196 965 q 109 861 109 965 l 109 551 q 196 457 109 457 "},"6":{"ha":833,"x_min":86,"x_max":755,"o":"m 549 965 l 317 965 q 86 720 86 965 l 86 227 q 323 -7 86 -7 l 518 -7 q 755 227 755 -7 l 755 375 q 519 597 755 597 l 317 597 q 215 718 215 597 q 317 842 215 842 l 699 842 q 728 868 728 842 q 672 936 728 906 q 549 965 616 965 m 625 374 l 625 228 q 517 117 625 117 l 325 117 q 215 228 215 117 l 215 374 q 306 475 215 475 l 517 475 q 625 374 625 475 "},"7":{"ha":833,"x_min":54,"x_max":760,"o":"m 566 781 l 221 110 q 205 50 205 80 q 223 9 205 24 q 268 -7 241 -7 q 346 62 311 -7 l 739 839 q 760 913 760 881 q 700 965 760 965 l 208 965 q 98 936 142 965 q 54 868 54 906 q 85 842 54 842 l 539 842 q 575 818 575 842 q 566 781 575 799 "},"8":{"ha":833,"x_min":82,"x_max":751,"o":"m 315 -7 l 518 -7 q 690 55 628 -7 q 751 227 751 117 l 751 329 q 741 409 751 373 q 688 478 730 444 q 671 500 671 492 q 686 522 671 512 q 750 665 750 574 l 750 746 q 685 908 750 852 q 511 965 621 965 l 322 965 q 148 908 212 965 q 83 746 83 851 l 83 665 q 147 522 83 574 q 163 500 163 511 q 146 478 163 492 q 93 409 103 444 q 82 329 82 373 l 82 227 q 143 55 82 117 q 315 -7 205 -7 m 322 842 l 511 842 q 619 739 619 842 l 619 665 q 511 555 619 555 l 322 555 q 214 665 214 555 l 214 739 q 322 842 214 842 m 322 432 l 511 432 q 621 329 621 432 l 621 228 q 511 117 621 117 l 322 117 q 241 147 269 117 q 212 228 212 177 l 212 329 q 322 432 212 432 "},"9":{"ha":833,"x_min":78,"x_max":747,"o":"m 78 732 l 78 583 q 314 361 78 361 l 517 361 q 618 240 618 361 q 517 117 618 117 l 135 117 q 106 90 106 117 q 161 23 106 52 q 285 -7 217 -7 l 517 -7 q 747 239 747 -7 l 747 732 q 510 965 747 965 l 315 965 q 78 732 78 965 m 208 585 l 208 730 q 317 842 208 842 l 509 842 q 618 730 618 842 l 618 585 q 528 484 618 484 l 317 484 q 208 585 208 484 "}," ":{"ha":403,"x_min":0,"x_max":0,"o":""},"!":{"ha":350,"x_min":69,"x_max":240,"o":"m 111 328 q 153 250 111 250 q 220 390 199 250 q 240 884 240 529 q 222 951 240 925 q 176 978 205 978 q 111 884 111 978 l 111 328 m 153 161 q 69 77 69 161 q 153 -7 69 -7 q 214 16 191 -7 q 237 77 237 38 q 214 138 237 115 q 153 161 191 161 "},"\"":{"ha":526,"x_min":82,"x_max":444,"o":"m 82 673 q 117 624 82 624 q 184 719 157 624 q 212 928 212 813 q 147 1021 212 1021 q 82 928 82 1021 l 82 673 m 314 673 q 349 624 314 624 q 416 719 389 624 q 444 928 444 813 q 379 1021 444 1021 q 314 928 314 1021 l 314 673 "},"#":{"ha":878,"x_min":35,"x_max":836,"o":"m 509 301 l 485 71 q 529 -4 477 -4 q 585 62 578 -4 l 608 301 l 673 301 q 764 323 728 301 q 800 375 800 346 q 770 401 800 401 l 619 401 l 640 606 l 710 606 q 800 628 764 606 q 836 679 836 650 q 806 705 836 705 l 650 705 l 669 889 q 662 943 673 920 q 625 965 650 965 q 571 900 578 965 l 550 705 l 361 705 l 380 889 q 373 943 384 920 q 336 965 361 965 q 282 900 289 965 l 261 705 l 197 705 q 107 683 143 705 q 71 632 71 661 q 102 606 71 606 l 252 606 l 231 401 l 161 401 q 71 379 107 401 q 35 328 35 357 q 65 301 35 301 l 220 301 l 196 71 q 240 -4 188 -4 q 296 62 289 -4 l 319 301 l 509 301 m 330 401 l 351 606 l 541 606 l 519 401 l 330 401 "},"$":{"ha":765,"x_min":60,"x_max":692,"o":"m 471 235 l 240 235 q 115 205 171 235 q 60 138 60 176 q 90 111 60 111 l 328 111 l 328 9 q 390 -85 328 -85 q 452 9 452 -85 l 452 111 l 465 111 q 633 170 574 111 q 692 334 692 228 q 465 550 692 550 l 290 550 q 203 639 203 550 q 290 729 203 729 l 494 729 q 619 759 564 729 q 673 825 673 788 q 644 851 673 851 l 452 851 l 452 962 q 408 1040 452 1040 q 354 1003 380 1040 q 328 908 328 966 l 328 851 l 296 851 q 130 794 191 851 q 69 637 69 736 q 296 428 69 428 l 471 428 q 534 401 511 428 q 557 330 557 374 q 471 235 557 235 "},"%":{"ha":1307,"x_min":82,"x_max":1225,"o":"m 760 859 l 390 24 q 375 -32 375 -9 q 427 -83 375 -83 q 498 -14 468 -83 l 884 859 q 897 914 897 888 q 846 965 897 965 l 298 965 q 82 751 82 965 l 82 633 q 298 419 82 419 l 346 419 q 564 633 564 419 l 564 751 q 545 859 564 813 l 760 859 m 300 859 l 345 859 q 439 761 439 859 l 439 624 q 345 528 439 528 l 300 528 q 204 624 204 528 l 204 761 q 300 859 204 859 m 960 0 l 1007 0 q 1225 214 1225 0 l 1225 332 q 1007 546 1225 546 l 960 546 q 743 332 743 546 l 743 214 q 960 0 743 0 m 865 204 l 865 342 q 961 439 865 439 l 1006 439 q 1100 342 1100 439 l 1100 204 q 1006 109 1100 109 l 961 109 q 865 204 865 109 "},"&":{"ha":929,"x_min":82,"x_max":908,"o":"m 757 282 l 757 400 q 789 437 757 435 q 876 467 844 441 q 908 533 908 494 q 878 559 908 559 l 714 559 q 628 465 628 559 l 628 300 l 387 533 q 283 705 283 634 l 283 739 q 392 842 283 842 l 576 842 q 607 867 607 842 q 552 935 607 905 q 428 965 497 965 l 392 965 q 217 908 282 965 q 153 746 153 851 l 153 711 q 216 549 153 625 q 236 521 236 527 q 216 500 236 509 q 82 290 82 437 l 82 224 q 142 55 82 116 q 315 -7 203 -7 l 476 -7 q 688 71 618 -7 l 700 60 q 852 -16 775 -16 q 886 -3 873 -16 q 900 22 900 9 q 888 47 900 36 l 746 184 q 757 282 757 228 m 600 158 q 490 117 571 117 l 322 117 q 241 147 269 117 q 212 228 212 177 l 212 294 q 310 415 212 415 q 374 382 340 415 l 600 158 "},"'":{"ha":300,"x_min":82,"x_max":218,"o":"m 82 673 q 117 624 82 624 q 188 726 157 624 q 218 928 218 828 q 150 1021 218 1021 q 82 928 82 1021 l 82 673 "},"(":{"ha":386,"x_min":92,"x_max":383,"o":"m 221 163 l 221 644 q 283 886 221 805 l 370 999 q 383 1029 383 1017 q 336 1061 383 1061 q 248 1024 300 1061 q 143 901 195 986 q 92 643 92 815 l 92 163 q 143 -96 92 -11 q 247 -218 195 -180 q 336 -256 300 -256 q 383 -224 383 -256 q 370 -193 383 -211 l 283 -79 q 221 163 221 1 "},")":{"ha":386,"x_min":3,"x_max":294,"o":"m 165 643 l 165 161 q 103 -81 165 1 l 17 -193 q 3 -224 3 -211 q 50 -256 3 -256 q 139 -217 85 -256 q 244 -94 193 -179 q 294 163 294 -9 l 294 643 q 243 901 294 816 q 139 1023 193 985 q 50 1061 86 1061 q 3 1029 3 1061 q 17 999 3 1018 l 103 885 q 165 643 165 804 "},"*":{"ha":603,"x_min":49,"x_max":554,"o":"m 260 610 l 252 468 q 301 395 252 395 q 341 419 330 395 q 351 468 353 444 l 343 610 l 458 526 q 509 505 486 505 q 541 520 527 505 q 554 553 554 534 q 513 610 554 587 l 376 686 l 513 762 q 554 819 554 787 q 541 852 554 838 q 509 867 527 867 q 458 846 488 867 l 343 762 l 351 904 q 301 978 351 978 q 262 953 273 978 q 252 904 250 928 l 260 762 l 144 846 q 94 867 118 867 q 62 852 75 867 q 49 819 49 837 q 90 762 49 785 l 227 686 l 90 610 q 49 553 49 587 q 62 520 49 535 q 94 505 75 505 q 144 526 115 505 l 260 610 "},"+":{"ha":833,"x_min":69,"x_max":755,"o":"m 100 310 l 273 310 q 334 298 318 310 q 350 228 350 287 l 350 123 q 411 29 350 29 q 473 123 473 29 l 473 228 q 490 299 473 288 q 550 310 507 310 l 629 310 q 719 338 682 310 q 755 406 755 366 q 725 432 755 432 l 550 432 q 485 448 497 432 q 473 514 473 463 l 473 635 q 431 713 473 713 q 376 675 403 713 q 350 581 350 638 l 350 514 q 340 449 350 467 q 273 432 330 432 l 196 432 q 105 403 141 432 q 69 336 69 374 q 100 310 69 310 "},",":{"ha":309,"x_min":0,"x_max":231,"o":"m 8 -125 q 0 -167 0 -151 q 33 -203 0 -203 q 147 -85 63 -203 q 231 96 231 33 q 211 149 231 130 q 161 168 191 168 q 75 87 101 168 l 8 -125 "},"-":{"ha":550,"x_min":69,"x_max":472,"o":"m 441 418 l 196 418 q 105 390 142 418 q 69 322 69 361 q 100 296 69 296 l 346 296 q 436 324 399 296 q 472 392 472 353 q 441 418 472 418 "},".":{"ha":309,"x_min":69,"x_max":237,"o":"m 153 161 q 69 77 69 161 q 153 -7 69 -7 q 214 16 191 -7 q 237 77 237 38 q 214 138 237 115 q 153 161 191 161 "},"/":{"ha":553,"x_min":4,"x_max":549,"o":"m 428 951 l 20 24 q 4 -32 4 -7 q 56 -83 4 -83 q 127 -14 97 -83 l 534 914 q 549 970 549 943 q 497 1021 549 1021 q 428 951 458 1021 "},":":{"ha":309,"x_min":69,"x_max":237,"o":"m 153 606 q 69 521 69 606 q 153 437 69 437 q 214 460 191 437 q 237 521 237 482 q 214 582 237 559 q 153 606 191 606 m 153 168 q 69 83 69 168 q 153 0 69 0 q 214 22 191 0 q 237 83 237 45 q 214 145 237 121 q 153 168 191 168 "},";":{"ha":309,"x_min":0,"x_max":237,"o":"m 153 606 q 69 521 69 606 q 153 437 69 437 q 214 460 191 437 q 237 521 237 482 q 214 582 237 559 q 153 606 191 606 m 8 -125 q 0 -167 0 -151 q 33 -203 0 -203 q 147 -85 63 -203 q 231 96 231 33 q 211 149 231 130 q 161 168 191 168 q 75 87 101 168 l 8 -125 "},"<":{"ha":833,"x_min":74,"x_max":758,"o":"m 646 671 l 135 449 q 74 371 74 422 q 135 293 74 319 l 646 71 q 707 56 680 56 q 743 70 728 56 q 758 109 758 85 q 689 183 758 154 l 325 338 q 273 374 273 359 q 325 410 273 389 l 689 559 q 758 635 758 589 q 743 672 758 659 q 707 686 728 686 q 646 671 682 686 "},"=":{"ha":833,"x_min":69,"x_max":755,"o":"m 100 454 l 629 454 q 719 482 682 454 q 755 550 755 510 q 725 576 755 576 l 196 576 q 105 548 141 576 q 69 481 69 519 q 100 454 69 454 m 100 165 l 629 165 q 719 193 682 165 q 755 261 755 221 q 725 288 755 288 l 196 288 q 105 259 141 288 q 69 192 69 230 q 100 165 69 165 "},">":{"ha":833,"x_min":75,"x_max":760,"o":"m 187 71 l 699 293 q 760 371 760 320 q 699 449 760 422 l 187 671 q 126 686 155 686 q 90 672 105 686 q 75 633 75 657 q 144 558 75 587 l 509 404 q 559 368 559 383 q 509 332 559 353 l 144 182 q 75 107 75 153 q 126 56 75 56 q 187 71 153 56 "},"?":{"ha":604,"x_min":21,"x_max":522,"o":"m 244 854 q 361 826 334 854 q 389 730 389 798 q 370 633 389 670 q 282 571 351 595 q 149 494 183 536 q 114 342 114 451 q 179 249 114 249 q 226 276 210 249 q 243 343 243 302 q 260 418 243 397 q 322 453 277 438 q 486 559 450 496 q 522 730 522 623 q 461 919 522 860 q 257 978 401 978 l 200 978 q 77 947 133 978 q 21 879 21 917 q 52 854 21 854 l 244 854 m 179 161 q 96 77 96 161 q 179 -7 96 -7 q 240 16 217 -7 q 264 77 264 38 q 241 138 264 115 q 179 161 218 161 "},"@":{"ha":1231,"x_min":111,"x_max":1133,"o":"m 876 -36 l 353 -36 q 269 -1 302 -36 q 236 89 236 34 l 236 730 q 339 850 236 850 l 905 850 q 1008 730 1008 850 l 1008 297 q 928 216 1008 216 q 851 297 851 216 l 851 559 q 810 698 851 660 q 640 736 768 736 l 518 736 q 435 718 461 736 q 408 653 408 700 q 439 614 408 614 l 640 614 q 716 604 697 614 q 734 562 734 594 q 716 517 734 531 q 642 504 699 504 l 574 504 q 410 454 459 504 q 361 302 361 405 q 409 155 361 203 q 574 107 456 107 l 942 107 q 1087 159 1041 107 q 1133 339 1133 210 l 1133 732 q 1070 904 1133 844 q 897 965 1008 965 l 347 965 q 174 904 237 965 q 111 732 111 844 l 111 79 q 174 -93 111 -33 q 347 -153 236 -153 l 750 -153 q 862 -127 817 -153 q 907 -62 907 -101 q 876 -36 907 -36 m 570 396 l 642 396 q 714 375 693 396 q 734 306 734 354 q 715 239 734 261 q 642 216 695 216 l 570 216 q 500 238 519 216 q 482 306 482 260 q 502 375 482 353 q 570 396 522 396 "},"A":{"ha":871,"x_min":100,"x_max":771,"o":"m 100 732 l 100 87 q 165 -7 100 -7 q 232 87 232 -7 l 232 290 q 253 366 232 345 q 328 387 274 387 l 543 387 q 618 367 597 387 q 639 290 639 346 l 639 87 q 704 -7 639 -7 q 771 87 771 -7 l 771 732 q 709 904 771 843 q 534 965 647 965 l 336 965 q 162 904 225 965 q 100 732 100 843 m 639 730 l 639 607 q 618 532 639 553 q 543 510 597 510 l 328 510 q 253 531 274 510 q 232 607 232 552 l 232 730 q 342 842 232 842 l 529 842 q 639 730 639 842 "},"B":{"ha":848,"x_min":102,"x_max":772,"o":"m 102 871 l 102 94 q 195 0 102 0 l 538 0 q 710 62 648 0 q 772 233 772 125 l 772 329 q 758 420 772 390 q 708 478 743 451 q 692 500 692 491 q 707 522 692 507 q 771 665 771 575 l 771 746 q 706 908 771 850 q 530 965 642 965 l 195 965 q 127 939 152 965 q 102 871 102 913 m 559 555 l 328 555 q 254 577 275 555 q 232 653 232 598 l 232 745 q 254 820 232 798 q 328 842 275 842 l 530 842 q 639 741 639 842 l 639 652 q 559 555 639 555 m 232 220 l 232 335 q 253 410 232 389 q 328 432 273 432 l 530 432 q 640 329 640 432 l 640 232 q 530 122 640 122 l 328 122 q 253 144 273 122 q 232 220 232 165 "},"C":{"ha":749,"x_min":92,"x_max":721,"o":"m 690 122 l 334 122 q 224 233 224 122 l 224 730 q 334 842 224 842 l 690 842 q 721 869 721 842 q 675 937 721 908 q 564 965 629 965 l 328 965 q 154 904 217 965 q 92 732 92 844 l 92 232 q 154 60 92 120 q 328 0 216 0 l 564 0 q 675 28 630 0 q 721 96 721 56 q 690 122 721 122 "},"D":{"ha":863,"x_min":4,"x_max":771,"o":"m 103 758 l 103 94 q 196 0 103 0 l 532 0 q 708 60 645 0 q 771 232 771 121 l 771 739 q 710 907 771 848 q 532 965 648 965 l 103 965 q 32 943 59 965 q 4 882 4 922 q 24 856 4 856 l 64 856 q 103 758 103 856 m 233 220 l 233 751 q 255 827 233 805 q 329 848 277 848 l 528 848 q 637 737 637 848 l 637 233 q 528 122 637 122 l 329 122 q 254 144 274 122 q 233 220 233 166 "},"E":{"ha":708,"x_min":102,"x_max":681,"o":"m 328 842 l 522 842 q 633 870 588 842 q 679 937 679 899 q 648 965 679 965 l 189 965 q 102 871 102 965 l 102 94 q 189 0 102 0 l 524 0 q 635 29 589 0 q 681 97 681 58 q 650 123 681 123 l 328 123 q 252 145 273 123 q 232 221 232 168 l 232 340 q 252 415 232 393 q 328 437 273 437 l 478 437 q 568 466 532 437 q 604 534 604 494 q 574 559 604 559 l 328 559 q 252 582 273 559 q 232 657 232 604 l 232 745 q 252 820 232 798 q 328 842 273 842 "},"F":{"ha":694,"x_min":102,"x_max":681,"o":"m 328 842 l 524 842 q 635 870 589 842 q 681 937 681 899 q 650 965 681 965 l 189 965 q 102 871 102 965 l 102 87 q 167 -7 102 -7 q 232 87 232 -7 l 232 314 q 253 389 232 367 q 328 411 273 411 l 478 411 q 568 440 532 411 q 604 509 604 469 q 574 534 604 534 l 328 534 q 253 556 273 534 q 232 632 232 578 l 232 745 q 253 820 232 798 q 328 842 273 842 "},"G":{"ha":861,"x_min":92,"x_max":778,"o":"m 708 965 l 328 965 q 154 904 217 965 q 92 732 92 844 l 92 232 q 154 60 92 120 q 328 0 216 0 l 543 0 q 717 61 656 0 q 778 232 778 121 l 778 439 q 690 533 778 533 l 545 533 q 454 504 490 533 q 418 436 418 475 q 449 411 418 411 l 551 411 q 625 391 603 411 q 647 314 647 370 l 647 233 q 538 122 647 122 l 334 122 q 224 233 224 122 l 224 730 q 334 842 224 842 l 582 842 q 694 870 648 842 q 739 937 739 899 q 708 965 739 965 "},"H":{"ha":871,"x_min":102,"x_max":770,"o":"m 328 437 l 543 437 q 618 415 597 437 q 639 340 639 393 l 639 87 q 704 -7 639 -7 q 770 87 770 -7 l 770 833 q 743 928 770 890 q 686 965 716 965 q 639 886 639 965 l 639 659 q 618 583 639 605 q 543 561 597 561 l 328 561 q 253 583 273 561 q 232 659 232 605 l 232 886 q 184 965 232 965 q 129 928 155 965 q 102 833 102 891 l 102 87 q 167 -7 102 -7 q 232 87 232 -7 l 232 340 q 253 415 232 393 q 328 437 273 437 "},"I":{"ha":396,"x_min":21,"x_max":375,"o":"m 262 207 l 262 758 q 272 835 262 817 q 306 861 282 854 q 375 939 375 884 q 351 965 375 965 l 119 965 q 21 882 21 965 q 40 856 21 856 l 94 856 q 134 758 134 856 l 134 207 q 124 132 134 151 q 90 104 115 112 q 21 26 21 82 q 45 0 21 0 l 277 0 q 375 83 375 0 q 355 110 375 110 l 300 110 q 262 207 262 110 "},"J":{"ha":383,"x_min":-82,"x_max":283,"o":"m 154 758 l 154 78 q 115 -44 154 -5 q 10 -112 75 -83 q -70 -152 -58 -143 q -82 -175 -82 -161 q -18 -216 -82 -216 q 188 -151 93 -216 q 283 64 283 -86 l 283 886 q 236 965 283 965 l 119 965 q 21 882 21 965 q 40 856 21 856 l 115 856 q 154 758 154 856 "},"K":{"ha":793,"x_min":102,"x_max":793,"o":"m 102 833 l 102 87 q 167 -7 102 -7 q 232 87 232 -7 l 232 371 q 264 422 232 422 q 317 392 292 422 l 572 85 q 737 -7 649 -7 q 793 31 793 -7 q 782 56 793 43 l 453 439 q 414 507 414 484 q 456 572 414 528 l 711 839 q 754 911 754 882 q 738 951 754 937 q 700 966 722 966 q 631 933 663 966 l 318 610 q 264 583 292 583 q 232 637 232 583 l 232 886 q 184 965 232 965 q 129 928 155 965 q 102 833 102 891 "},"L":{"ha":679,"x_min":102,"x_max":665,"o":"m 102 833 l 102 94 q 189 0 102 0 l 509 0 q 620 28 574 0 q 665 97 665 57 q 635 123 665 123 l 328 123 q 252 145 273 123 q 232 221 232 168 l 232 886 q 184 965 232 965 q 129 928 155 965 q 102 833 102 891 "},"M":{"ha":1082,"x_min":102,"x_max":981,"o":"m 981 87 l 981 871 q 916 965 981 965 q 836 896 873 965 l 585 419 q 541 370 558 370 q 497 419 524 370 l 243 900 q 165 965 208 965 q 102 871 102 965 l 102 87 q 165 -7 102 -7 q 231 87 231 -7 l 231 661 l 463 216 q 541 149 499 149 q 618 220 581 149 l 850 661 l 850 87 q 916 -7 850 -7 q 964 20 947 -7 q 981 87 981 47 "},"N":{"ha":901,"x_min":102,"x_max":800,"o":"m 232 699 l 615 85 q 673 13 648 32 q 732 -7 698 -7 q 800 87 800 -7 l 800 833 q 773 928 800 890 q 717 965 747 965 q 669 886 669 965 l 669 237 l 235 924 q 167 965 210 965 q 102 871 102 965 l 102 87 q 165 -7 102 -7 q 232 87 232 -7 l 232 699 "},"O":{"ha":893,"x_min":92,"x_max":802,"o":"m 328 -7 l 564 -7 q 739 55 676 -7 q 802 227 802 116 l 802 739 q 739 910 802 849 q 564 971 677 971 l 328 971 q 154 911 216 971 q 92 739 92 851 l 92 227 q 154 54 92 115 q 328 -7 217 -7 m 224 228 l 224 737 q 334 848 224 848 l 558 848 q 668 737 668 848 l 668 228 q 558 117 668 117 l 334 117 q 224 228 224 117 "},"P":{"ha":799,"x_min":102,"x_max":743,"o":"m 232 87 l 232 286 q 253 361 232 339 q 328 383 273 383 l 503 383 q 681 443 618 383 q 743 616 743 502 l 743 746 q 679 908 743 850 q 503 965 614 965 l 195 965 q 127 939 152 965 q 102 871 102 913 l 102 87 q 167 -7 102 -7 q 232 87 232 -7 m 232 604 l 232 745 q 253 820 232 798 q 328 842 273 842 l 503 842 q 611 743 611 842 l 611 612 q 504 507 611 507 l 328 507 q 253 528 274 507 q 232 604 232 549 "},"Q":{"ha":893,"x_min":92,"x_max":802,"o":"m 328 -7 l 351 -7 q 473 -56 433 -7 l 564 -165 q 729 -256 639 -256 q 786 -218 786 -256 q 774 -195 786 -208 l 644 -56 q 610 -7 610 -17 q 625 4 610 2 q 756 76 710 17 q 802 227 802 134 l 802 739 q 739 910 802 849 q 564 971 677 971 l 328 971 q 154 911 216 971 q 92 739 92 851 l 92 227 q 154 54 92 115 q 328 -7 217 -7 m 224 228 l 224 737 q 334 848 224 848 l 558 848 q 668 737 668 848 l 668 228 q 558 117 668 117 l 334 117 q 224 228 224 117 "},"R":{"ha":827,"x_min":102,"x_max":819,"o":"m 232 87 l 232 314 q 253 389 232 367 q 328 411 273 411 l 342 411 q 410 392 386 411 q 473 314 435 373 l 612 102 q 772 -7 685 -7 q 819 26 819 -7 q 808 53 819 37 l 591 376 q 578 410 578 397 q 603 437 578 427 q 743 644 743 495 l 743 746 q 679 908 743 850 q 503 965 614 965 l 195 965 q 127 939 152 965 q 102 871 102 913 l 102 87 q 167 -7 102 -7 q 232 87 232 -7 m 328 842 l 503 842 q 611 743 611 842 l 611 643 q 500 534 611 534 l 328 534 q 253 556 273 534 q 232 632 232 578 l 232 745 q 253 820 232 798 q 328 842 273 842 "},"S":{"ha":749,"x_min":45,"x_max":697,"o":"m 410 122 l 224 122 q 100 93 156 122 q 45 25 45 63 q 75 0 45 0 l 414 0 q 622 75 547 0 q 697 292 697 151 q 422 551 697 551 l 322 551 q 189 696 189 551 q 229 804 189 766 q 339 842 269 842 l 496 842 q 619 871 564 842 q 675 937 675 901 q 646 965 675 965 l 339 965 q 134 893 211 965 q 57 694 57 821 q 319 428 57 428 l 414 428 q 529 394 494 428 q 564 288 564 359 q 523 164 564 207 q 410 122 481 122 "},"T":{"ha":742,"x_min":12,"x_max":729,"o":"m 306 745 l 306 87 q 371 -7 306 -7 q 436 87 436 -7 l 436 745 q 457 820 436 798 q 532 842 477 842 l 604 842 q 693 870 657 842 q 729 939 729 898 q 700 965 729 965 l 138 965 q 48 937 84 965 q 12 868 12 909 q 41 842 12 842 l 210 842 q 286 820 265 842 q 306 745 306 798 "},"U":{"ha":871,"x_min":100,"x_max":771,"o":"m 639 886 l 639 228 q 528 117 639 117 l 342 117 q 232 228 232 117 l 232 886 q 183 965 232 965 q 127 927 154 965 q 100 833 100 890 l 100 227 q 162 54 100 115 q 336 -7 225 -7 l 534 -7 q 709 54 647 -7 q 771 227 771 115 l 771 833 q 744 927 771 890 q 686 965 717 965 q 639 886 639 965 "},"V":{"ha":804,"x_min":12,"x_max":791,"o":"m 329 56 q 403 -12 355 -12 q 475 56 449 -12 l 779 848 q 791 908 791 880 q 775 948 791 931 q 732 965 760 965 q 659 895 685 965 l 437 306 q 404 260 420 260 q 370 306 387 260 l 149 895 q 72 965 122 965 q 30 948 48 965 q 12 908 12 932 q 25 848 12 882 l 329 56 "},"W":{"ha":1243,"x_min":100,"x_max":1143,"o":"m 318 -7 l 461 -7 q 602 47 551 -7 q 618 57 610 57 q 635 47 626 57 q 775 -7 686 -7 l 925 -7 q 1143 207 1143 -7 l 1143 871 q 1125 939 1143 913 q 1078 965 1107 965 q 1029 939 1048 965 q 1011 871 1011 913 l 1011 208 q 920 117 1011 117 l 777 117 q 688 208 688 117 l 688 777 q 669 844 688 817 q 621 871 650 871 q 574 845 593 871 q 555 777 555 819 l 555 208 q 467 117 555 117 l 321 117 q 232 208 232 117 l 232 871 q 214 939 232 913 q 165 965 195 965 q 118 940 136 965 q 100 871 100 915 l 100 207 q 318 -7 100 -7 "},"X":{"ha":781,"x_min":16,"x_max":765,"o":"m 347 639 l 171 921 q 102 966 142 966 q 63 951 79 966 q 46 911 46 937 q 77 839 46 886 l 256 564 q 285 494 285 517 q 253 408 285 458 l 26 56 q 16 31 16 37 q 72 -7 16 -7 q 144 15 115 -7 q 201 85 172 37 l 351 332 q 390 376 378 376 q 427 332 399 376 l 579 85 q 638 14 610 35 q 710 -7 667 -7 q 765 31 765 -7 q 754 56 765 39 l 528 408 q 496 494 496 457 q 525 564 496 519 l 704 839 q 734 911 734 885 q 681 966 734 966 q 615 926 640 966 l 435 639 q 392 590 404 590 q 347 639 378 590 "},"Y":{"ha":697,"x_min":12,"x_max":685,"o":"m 414 87 l 414 304 q 431 375 414 341 l 671 852 q 685 909 685 881 q 669 948 685 931 q 628 965 654 965 q 551 895 586 965 l 390 564 q 349 515 366 515 q 309 564 332 515 l 149 896 q 71 965 115 965 q 28 947 45 965 q 12 908 12 930 q 26 850 12 878 l 265 375 q 283 307 283 340 l 283 87 q 349 -7 283 -7 q 414 87 414 -7 "},"Z":{"ha":721,"x_min":25,"x_max":679,"o":"m 81 0 l 525 0 q 635 28 591 0 q 679 96 679 56 q 647 122 679 122 l 265 122 q 225 144 225 122 q 243 184 225 156 l 647 840 q 676 913 676 893 q 658 951 676 938 q 616 965 640 965 l 220 965 q 110 936 154 965 q 65 868 65 906 q 96 842 65 842 l 435 842 q 475 817 475 842 q 461 779 475 801 l 56 125 q 25 54 25 75 q 41 16 25 31 q 81 0 57 0 "},"[":{"ha":443,"x_min":100,"x_max":440,"o":"m 229 842 q 245 912 229 890 q 313 942 260 934 q 440 1034 440 962 q 410 1061 440 1061 l 187 1061 q 100 966 100 1061 l 100 -161 q 187 -256 100 -256 l 285 -256 q 395 -227 349 -256 q 440 -160 440 -198 q 410 -134 440 -134 l 325 -134 q 250 -112 270 -134 q 229 -36 229 -90 l 229 842 "},"\\":{"ha":553,"x_min":4,"x_max":549,"o":"m 533 24 l 125 951 q 56 1021 94 1021 q 4 970 4 1021 q 18 914 4 947 l 425 -14 q 497 -83 456 -83 q 549 -32 549 -83 q 533 24 549 -12 "},"]":{"ha":443,"x_min":3,"x_max":343,"o":"m 214 -36 q 198 -106 214 -85 q 131 -136 182 -128 q 3 -228 3 -157 q 33 -256 3 -256 l 256 -256 q 343 -161 343 -256 l 343 966 q 256 1061 343 1061 l 158 1061 q 48 1032 94 1061 q 3 965 3 1003 q 33 939 3 939 l 118 939 q 193 918 172 939 q 214 842 214 897 l 214 -36 "},"^":{"ha":781,"x_min":69,"x_max":711,"o":"m 690 507 l 468 917 q 390 978 434 978 q 313 917 346 978 l 90 507 q 69 446 69 471 q 122 395 69 395 q 203 464 165 395 l 346 729 q 390 772 368 772 q 435 729 411 772 l 578 464 q 659 395 616 395 q 711 446 711 395 q 690 507 711 469 "},"_":{"ha":640,"x_min":0,"x_max":627,"o":"m 596 -7 l 126 -7 q 36 -29 73 -7 q 0 -81 0 -51 q 31 -107 0 -107 l 500 -107 q 591 -85 555 -107 q 627 -33 627 -62 q 596 -7 627 -7 "},"`":{"ha":354,"x_min":7,"x_max":285,"o":"m 35 946 l 77 904 q 254 774 207 774 q 285 800 285 774 q 267 840 285 815 l 127 1029 q 66 1061 102 1061 q 23 1045 40 1061 q 7 1004 7 1029 q 35 946 7 974 "},"a":{"ha":766,"x_min":56,"x_max":685,"o":"m 147 583 l 460 583 q 554 504 554 583 q 461 418 554 418 l 282 418 q 56 203 56 418 q 282 -7 56 -7 l 463 -7 q 685 207 685 -7 l 685 488 q 460 705 685 705 l 296 705 q 172 676 228 705 q 117 608 117 646 q 147 583 117 583 m 278 296 l 461 296 q 554 205 554 296 q 461 117 554 117 l 278 117 q 191 205 191 117 q 278 296 191 296 "},"b":{"ha":786,"x_min":97,"x_max":704,"o":"m 184 0 l 468 0 q 704 232 704 0 l 704 492 q 488 705 704 705 l 293 705 q 242 720 257 705 q 227 775 227 735 l 227 846 q 199 941 227 904 q 143 978 171 978 q 97 900 97 978 l 97 94 q 184 0 97 0 m 575 490 l 575 233 q 465 122 575 122 l 290 122 q 241 133 256 122 q 227 192 227 144 l 227 517 q 240 570 227 556 q 292 583 254 583 l 485 583 q 575 490 575 583 "},"c":{"ha":704,"x_min":82,"x_max":663,"o":"m 211 208 l 211 490 q 301 583 211 583 l 632 583 q 663 608 663 583 q 607 675 663 646 q 484 705 551 705 l 298 705 q 82 492 82 705 l 82 207 q 298 -7 82 -7 l 484 -7 q 607 23 551 -7 q 663 89 663 53 q 632 117 663 117 l 301 117 q 211 208 211 117 "},"d":{"ha":786,"x_min":82,"x_max":689,"o":"m 298 0 l 599 0 q 689 94 689 0 l 689 846 q 661 941 689 904 q 606 978 633 978 q 559 900 559 978 l 559 775 q 546 721 559 737 q 493 705 532 705 l 318 705 q 82 472 82 705 l 82 214 q 298 0 82 0 m 211 215 l 211 471 q 321 583 211 583 l 489 583 q 543 569 526 583 q 559 513 559 555 l 559 189 q 546 136 559 149 q 494 122 533 122 l 301 122 q 211 215 211 122 "},"e":{"ha":777,"x_min":82,"x_max":697,"o":"m 640 117 l 306 117 q 211 203 211 117 q 304 296 211 296 l 559 296 q 697 429 697 296 l 697 500 q 471 705 697 705 l 304 705 q 82 492 82 705 l 82 212 q 306 -7 82 -7 l 490 -7 q 614 22 557 -7 q 671 89 671 52 q 640 117 671 117 m 478 418 l 304 418 q 211 500 211 418 q 304 583 211 583 l 478 583 q 566 500 566 583 q 478 418 566 418 "},"f":{"ha":416,"x_min":16,"x_max":486,"o":"m 248 87 l 248 549 q 279 583 248 583 q 370 612 334 583 q 406 679 406 640 q 375 705 406 705 l 278 705 q 248 741 248 705 l 248 762 q 267 827 248 807 q 328 854 286 848 q 451 898 416 869 q 486 950 486 926 q 456 978 486 978 l 336 978 q 118 764 118 978 l 118 755 q 112 724 118 734 q 85 710 106 713 q 16 644 16 699 q 85 583 16 583 q 118 549 118 583 l 118 87 q 183 -7 118 -7 q 230 20 213 -7 q 248 87 248 47 "},"g":{"ha":786,"x_min":82,"x_max":689,"o":"m 467 -132 l 139 -132 q 110 -158 110 -132 q 165 -226 110 -196 q 289 -256 220 -256 l 465 -256 q 689 -37 689 -256 l 689 608 q 599 705 689 705 l 319 705 q 82 472 82 705 l 82 245 q 300 32 82 32 l 467 32 q 559 -49 559 32 q 467 -132 559 -132 m 211 248 l 211 471 q 321 583 211 583 l 494 583 q 546 570 532 583 q 559 515 559 556 l 559 248 q 469 154 559 154 l 301 154 q 211 248 211 154 "},"h":{"ha":787,"x_min":97,"x_max":693,"o":"m 227 775 l 227 846 q 199 941 227 904 q 143 978 171 978 q 97 900 97 978 l 97 87 q 163 -7 97 -7 q 209 20 192 -7 q 227 87 227 47 l 227 513 q 241 567 227 550 q 296 583 255 583 l 454 583 q 564 471 564 583 l 564 87 q 629 -7 564 -7 q 676 20 659 -7 q 693 87 693 47 l 693 472 q 456 705 693 705 l 293 705 q 240 721 254 705 q 227 775 227 737 "},"i":{"ha":323,"x_min":97,"x_max":229,"o":"m 165 978 q 103 892 103 978 q 165 807 103 807 q 210 828 191 807 q 229 892 229 850 q 210 956 229 935 q 165 978 191 978 m 227 87 l 227 611 q 209 679 227 652 q 163 705 191 705 q 115 680 134 705 q 97 611 97 655 l 97 87 q 163 -7 97 -7 q 209 20 192 -7 q 227 87 227 47 "},"j":{"ha":323,"x_min":-65,"x_max":229,"o":"m 165 978 q 103 892 103 978 q 165 807 103 807 q 210 828 191 807 q 229 892 229 850 q 210 956 229 935 q 165 978 191 978 m 57 -92 l -52 -200 q -65 -224 -65 -216 q -9 -256 -65 -256 q 81 -228 31 -256 q 179 -141 131 -200 q 227 25 227 -83 l 227 611 q 209 679 227 652 q 163 705 191 705 q 115 680 134 705 q 97 611 97 655 l 97 25 q 57 -92 97 -52 "},"k":{"ha":736,"x_min":97,"x_max":729,"o":"m 310 260 l 509 77 q 671 -4 595 -4 q 729 32 729 -4 q 715 56 729 43 l 439 306 q 400 371 400 340 q 441 435 400 399 l 615 586 q 660 653 660 623 q 610 705 660 705 q 541 673 576 705 l 311 472 q 261 452 287 452 q 227 498 227 452 l 227 846 q 199 941 227 904 q 143 978 171 978 q 97 900 97 978 l 97 87 q 163 -7 97 -7 q 209 20 192 -7 q 227 87 227 47 l 227 228 q 261 282 227 282 q 310 260 286 282 "},"l":{"ha":323,"x_min":97,"x_max":227,"o":"m 227 87 l 227 846 q 199 941 227 904 q 143 978 171 978 q 97 900 97 978 l 97 87 q 163 -7 97 -7 q 209 20 192 -7 q 227 87 227 47 "},"m":{"ha":1225,"x_min":94,"x_max":1131,"o":"m 913 705 l 313 705 q 94 492 94 705 l 94 87 q 112 20 94 46 q 160 -7 130 -7 q 207 20 189 -7 q 224 87 224 47 l 224 490 q 315 583 224 583 l 457 583 q 549 490 549 583 l 549 87 q 612 -7 549 -7 q 660 20 643 -7 q 677 87 677 47 l 677 490 q 768 583 677 583 l 909 583 q 1000 490 1000 583 l 1000 87 q 1018 20 1000 47 q 1065 -7 1036 -7 q 1113 20 1096 -7 q 1131 87 1131 47 l 1131 492 q 913 705 1131 705 "},"n":{"ha":787,"x_min":97,"x_max":693,"o":"m 456 705 l 186 705 q 97 612 97 705 l 97 87 q 163 -7 97 -7 q 209 20 192 -7 q 227 87 227 47 l 227 513 q 238 568 227 553 q 294 583 250 583 l 454 583 q 564 471 564 583 l 564 87 q 629 -7 564 -7 q 676 20 659 -7 q 693 87 693 47 l 693 472 q 456 705 693 705 "},"o":{"ha":799,"x_min":82,"x_max":717,"o":"m 298 -7 l 498 -7 q 717 207 717 -7 l 717 492 q 498 705 717 705 l 298 705 q 82 492 82 705 l 82 207 q 298 -7 82 -7 m 211 208 l 211 490 q 301 583 211 583 l 496 583 q 586 490 586 583 l 586 208 q 496 117 586 117 l 301 117 q 211 208 211 117 "},"p":{"ha":786,"x_min":97,"x_max":704,"o":"m 227 -161 l 227 -69 q 240 -16 227 -32 q 293 0 254 0 l 468 0 q 704 232 704 0 l 704 492 q 488 705 704 705 l 186 705 q 97 611 97 705 l 97 -161 q 163 -256 97 -256 q 209 -229 192 -256 q 227 -161 227 -202 m 575 490 l 575 233 q 465 122 575 122 l 296 122 q 241 139 255 122 q 227 193 227 155 l 227 517 q 240 570 227 556 q 292 583 254 583 l 485 583 q 575 490 575 583 "},"q":{"ha":786,"x_min":82,"x_max":689,"o":"m 599 705 l 319 705 q 82 472 82 705 l 82 214 q 300 0 82 0 l 493 0 q 546 -17 532 0 q 559 -69 559 -34 l 559 -161 q 577 -229 559 -202 q 624 -256 594 -256 q 672 -229 654 -256 q 689 -161 689 -202 l 689 611 q 599 705 689 705 m 211 215 l 211 471 q 321 583 211 583 l 494 583 q 546 570 532 583 q 559 515 559 556 l 559 215 q 469 122 559 122 l 301 122 q 211 215 211 122 "},"r":{"ha":478,"x_min":94,"x_max":463,"o":"m 224 490 q 304 583 224 572 q 426 624 389 595 q 463 679 463 653 q 432 705 463 705 l 313 705 q 94 492 94 705 l 94 87 q 160 -7 94 -7 q 207 20 189 -7 q 224 87 224 47 l 224 490 "},"s":{"ha":745,"x_min":66,"x_max":675,"o":"m 454 123 l 248 123 q 122 94 178 123 q 66 26 66 64 q 97 0 66 0 l 449 0 q 616 56 558 0 q 675 215 675 111 q 449 421 675 421 l 296 421 q 208 500 208 421 q 296 583 208 583 l 478 583 q 602 612 547 583 q 657 679 657 642 q 628 705 657 705 l 301 705 q 136 651 196 705 q 75 498 75 597 q 301 298 75 298 l 454 298 q 541 212 541 298 q 454 123 541 123 "},"t":{"ha":431,"x_min":16,"x_max":406,"o":"m 118 100 q 211 -7 118 -7 q 341 22 284 -7 q 397 89 397 50 q 368 117 397 117 l 323 117 q 257 134 267 117 q 248 199 248 152 l 248 549 q 279 583 248 583 q 370 612 334 583 q 406 679 406 640 q 375 705 406 705 l 278 705 q 248 741 248 705 l 248 768 q 219 862 248 825 q 163 900 191 900 q 118 822 118 900 l 118 750 q 85 710 118 713 q 16 644 16 699 q 85 583 16 583 q 118 549 118 583 l 118 100 "},"u":{"ha":787,"x_min":94,"x_max":690,"o":"m 330 -7 l 600 -7 q 690 87 690 -7 l 690 611 q 672 679 690 652 q 625 705 654 705 q 579 680 597 705 q 561 611 561 654 l 561 186 q 548 130 561 144 q 493 117 536 117 l 334 117 q 224 228 224 117 l 224 611 q 205 679 224 653 q 158 705 187 705 q 112 679 130 705 q 94 611 94 652 l 94 227 q 330 -7 94 -7 "},"v":{"ha":682,"x_min":12,"x_max":669,"o":"m 539 636 l 380 282 q 342 232 358 232 q 301 282 323 232 l 143 636 q 69 705 112 705 q 28 688 43 705 q 12 650 12 671 q 26 593 12 624 l 269 56 q 342 -12 300 -12 q 412 56 382 -12 l 656 595 q 669 650 669 624 q 654 688 669 671 q 614 705 639 705 q 539 636 570 705 "},"w":{"ha":1225,"x_min":94,"x_max":1131,"o":"m 770 -7 l 913 -7 q 1131 207 1131 -7 l 1131 611 q 1113 679 1131 652 q 1065 705 1095 705 q 1019 679 1037 705 q 1000 611 1000 653 l 1000 208 q 909 117 1000 117 l 768 117 q 677 208 677 117 l 677 611 q 660 679 677 652 q 612 705 642 705 q 566 680 584 705 q 549 611 549 654 l 549 208 q 457 117 549 117 l 315 117 q 224 208 224 117 l 224 611 q 206 679 224 652 q 160 705 189 705 q 113 679 131 705 q 94 611 94 653 l 94 207 q 313 -7 94 -7 l 456 -7 q 585 45 541 -7 q 612 64 600 64 q 636 53 625 64 q 770 -7 695 -7 "},"x":{"ha":671,"x_min":25,"x_max":657,"o":"m 640 60 l 443 313 q 425 363 425 338 q 441 408 425 388 l 581 583 q 610 650 610 618 q 591 689 610 672 q 551 705 573 705 q 472 653 511 705 l 371 515 q 328 481 345 481 q 286 515 312 481 l 183 653 q 106 705 144 705 q 66 689 84 705 q 47 650 47 672 q 77 583 47 620 l 215 408 q 232 361 232 387 q 214 311 232 334 l 56 118 q 25 50 25 76 q 41 10 25 26 q 81 -7 58 -7 q 160 43 123 -7 l 283 208 q 328 243 309 243 q 374 205 345 243 l 450 106 q 615 -7 536 -7 q 657 24 657 -7 q 640 60 657 38 "},"y":{"ha":787,"x_min":94,"x_max":690,"o":"m 224 248 l 224 611 q 205 679 224 653 q 158 705 187 705 q 112 679 130 705 q 94 611 94 652 l 94 245 q 313 32 94 32 l 467 32 q 559 -47 559 32 q 467 -132 559 -132 l 146 -132 q 117 -158 117 -132 q 172 -226 117 -196 q 296 -256 227 -256 l 467 -256 q 690 -37 690 -256 l 690 611 q 672 679 690 652 q 625 705 654 705 q 579 680 597 705 q 561 611 561 654 l 561 248 q 471 154 561 154 l 314 154 q 224 248 224 154 "},"z":{"ha":693,"x_min":35,"x_max":639,"o":"m 89 0 l 458 0 q 584 29 528 0 q 639 96 639 58 q 608 122 639 122 l 296 122 q 256 147 256 122 q 273 184 256 162 l 589 583 q 618 650 618 621 q 600 689 618 672 q 559 705 581 705 l 232 705 q 109 676 164 705 q 53 608 53 646 q 83 583 53 583 l 355 583 q 396 554 396 583 q 382 521 396 538 l 65 123 q 35 56 35 87 q 50 16 35 33 q 89 0 65 0 "},"{":{"ha":449,"x_min":25,"x_max":443,"o":"m 412 -256 q 443 -228 443 -256 q 345 -138 443 -167 q 274 -95 292 -122 q 257 -21 257 -67 l 257 253 q 197 384 257 336 q 186 403 186 393 q 197 422 186 413 q 257 553 257 469 l 257 828 q 274 902 257 876 q 345 943 292 928 q 443 1034 443 974 q 412 1061 443 1061 l 370 1061 q 190 1001 252 1061 q 127 828 127 941 l 127 553 q 81 465 127 489 q 25 403 25 437 q 81 340 25 368 q 127 253 127 317 l 127 -22 q 370 -256 127 -256 l 412 -256 "},"|":{"ha":326,"x_min":102,"x_max":225,"o":"m 102 930 l 102 -161 q 163 -256 102 -256 q 225 -161 225 -256 l 225 985 q 182 1063 225 1063 q 128 1025 154 1063 q 102 930 102 987 "},"}":{"ha":449,"x_min":5,"x_max":424,"o":"m 36 1061 q 5 1034 5 1061 q 104 943 5 973 q 175 900 157 928 q 192 827 192 873 l 192 553 q 244 429 192 475 q 262 403 262 413 q 244 377 262 393 q 192 253 192 331 l 192 -22 q 175 -96 192 -70 q 104 -138 157 -122 q 5 -228 5 -168 q 36 -256 5 -256 l 79 -256 q 259 -195 198 -256 q 321 -22 321 -134 l 321 253 q 368 340 321 316 q 424 403 424 368 q 368 465 424 437 q 321 553 321 489 l 321 828 q 79 1061 321 1061 l 36 1061 "},"~":{"ha":833,"x_min":74,"x_max":760,"o":"m 252 382 q 309 375 282 382 q 448 332 335 369 q 579 310 515 310 q 705 358 650 310 q 760 461 760 406 q 732 504 760 504 q 696 485 715 504 q 582 432 641 432 q 432 467 534 432 q 254 504 320 504 q 128 456 182 504 q 74 353 74 408 q 102 310 74 310 q 138 329 117 310 q 252 382 193 382 "}," ":{"ha":403,"x_min":0,"x_max":0,"o":""},"¡":{"ha":350,"x_min":110,"x_max":281,"o":"m 197 561 q 281 646 281 561 q 197 729 281 729 q 136 706 159 729 q 113 646 113 684 q 136 584 113 607 q 197 561 159 561 m 239 395 q 197 472 239 472 q 130 333 151 472 q 110 -161 110 193 q 127 -229 110 -203 q 174 -256 145 -256 q 239 -161 239 -256 l 239 395 "},"¢":{"ha":704,"x_min":82,"x_max":663,"o":"m 211 354 l 211 636 q 301 729 211 729 l 632 729 q 663 754 663 729 q 607 821 663 791 q 484 851 551 851 l 452 851 l 452 962 q 408 1040 452 1040 q 354 1003 380 1040 q 328 908 328 966 l 328 851 l 298 851 q 82 637 82 851 l 82 353 q 298 139 82 139 l 328 139 l 328 9 q 390 -85 328 -85 q 452 9 452 -85 l 452 139 l 484 139 q 607 169 551 139 q 663 235 663 199 q 632 262 663 262 l 301 262 q 211 354 211 262 "},"£":{"ha":833,"x_min":83,"x_max":774,"o":"m 407 842 l 586 842 q 698 870 652 842 q 743 937 743 899 q 713 965 743 965 l 415 965 q 197 751 197 965 l 197 585 q 192 553 197 563 q 164 539 186 543 q 94 473 94 527 q 164 412 94 412 q 197 378 197 412 l 197 184 q 150 122 197 136 q 103 88 122 114 q 83 26 83 62 q 103 0 83 0 l 616 0 q 728 29 682 0 q 774 97 774 58 q 743 123 774 123 l 366 123 q 326 179 326 123 l 326 378 q 358 412 326 412 l 504 412 q 591 440 555 412 q 627 509 627 469 q 596 534 627 534 l 357 534 q 326 570 326 534 l 326 750 q 407 842 326 842 "},"¤":{"ha":657,"x_min":25,"x_max":657,"o":"m 307 81 l 354 81 q 457 97 413 81 q 615 -7 538 -7 q 657 24 657 -7 q 640 60 657 39 l 547 176 q 572 294 572 225 l 572 412 q 545 538 572 485 l 581 583 q 610 650 610 618 q 591 689 610 672 q 551 705 573 705 q 472 653 511 705 l 443 614 q 354 627 404 627 l 307 627 q 212 612 252 627 l 183 653 q 106 705 144 705 q 66 689 84 705 q 47 650 47 672 q 77 583 47 621 l 115 533 q 90 412 90 486 l 90 294 q 110 184 90 231 l 56 118 q 25 50 25 80 q 41 10 25 26 q 81 -7 58 -7 q 160 43 123 -7 l 201 98 q 307 81 243 81 m 212 285 l 212 422 q 309 519 212 519 l 353 519 q 447 422 447 519 l 447 285 q 353 189 447 189 l 309 189 q 212 285 212 189 "},"¥":{"ha":833,"x_min":81,"x_max":753,"o":"m 503 385 l 606 385 q 695 413 659 385 q 732 481 732 441 q 701 507 732 507 l 566 507 l 739 852 q 753 909 753 882 q 737 948 753 931 q 696 965 722 965 q 619 895 654 965 l 458 564 q 416 515 435 515 q 376 564 399 515 l 216 896 q 139 965 184 965 q 97 947 113 965 q 81 908 81 930 q 94 850 81 877 l 267 507 l 228 507 q 138 479 174 507 q 102 411 102 451 q 132 385 102 385 l 328 385 l 334 375 q 351 307 351 338 l 351 288 l 228 288 q 138 259 174 288 q 102 192 102 231 q 132 165 102 165 l 351 165 l 351 87 q 416 -7 351 -7 q 482 87 482 -7 l 482 165 l 606 165 q 695 193 659 165 q 732 261 732 221 q 701 288 732 288 l 482 288 l 482 304 q 498 375 482 337 l 503 385 "},"¦":{"ha":326,"x_min":102,"x_max":225,"o":"m 102 930 l 102 615 q 163 521 102 521 q 225 615 225 521 l 225 985 q 182 1063 225 1063 q 128 1025 154 1063 q 102 930 102 987 m 225 -161 l 225 155 q 199 250 225 213 q 144 288 172 288 q 102 210 102 288 l 102 -161 q 164 -256 102 -256 q 209 -229 193 -256 q 225 -161 225 -203 "},"§":{"ha":766,"x_min":60,"x_max":692,"o":"m 471 75 l 240 75 q 115 45 170 75 q 60 -22 60 16 q 90 -49 60 -49 l 465 -49 q 692 167 692 -49 q 642 317 692 263 q 692 468 692 370 q 639 615 692 566 q 465 664 587 664 l 286 664 q 203 753 203 667 q 290 843 203 843 l 494 843 q 618 872 564 843 q 673 939 673 901 q 644 965 673 965 l 296 965 q 130 908 191 965 q 69 751 69 850 q 121 602 69 653 q 69 457 69 548 q 296 254 69 254 l 471 254 q 557 164 557 254 q 471 75 557 75 m 286 542 l 471 542 q 557 460 557 542 q 475 376 557 376 l 290 376 q 203 458 203 376 q 286 542 203 542 "},"¨":{"ha":529,"x_min":62,"x_max":467,"o":"m 132 961 q 62 879 62 961 q 132 799 62 799 q 182 819 161 799 q 203 879 203 840 q 182 940 203 920 q 132 961 161 961 m 395 961 q 326 879 326 961 q 395 799 326 799 q 467 879 467 799 q 395 961 467 961 "},"©":{"ha":1116,"x_min":92,"x_max":1023,"o":"m 328 -7 l 786 -7 q 960 55 897 -7 q 1023 227 1023 116 l 1023 739 q 961 910 1023 850 q 786 971 899 971 l 328 971 q 154 911 216 971 q 92 739 92 851 l 92 227 q 154 54 92 115 q 328 -7 217 -7 m 216 220 l 216 745 q 326 856 216 856 l 787 856 q 897 745 897 856 l 897 220 q 787 109 897 109 l 326 109 q 216 220 216 109 m 447 412 l 447 555 q 538 648 447 648 l 757 648 q 787 673 787 648 q 738 741 787 711 q 623 771 688 771 l 534 771 q 318 557 318 771 l 318 411 q 534 197 318 197 l 623 197 q 738 227 688 197 q 787 293 787 256 q 757 321 787 321 l 538 321 q 447 412 447 321 "},"ª":{"ha":536,"x_min":37,"x_max":467,"o":"m 111 882 l 310 882 q 355 848 355 882 q 310 811 355 811 l 196 811 q 37 675 37 811 q 196 541 37 541 l 311 541 q 467 676 467 541 l 467 839 q 310 978 467 978 l 205 978 q 117 957 157 978 q 77 909 77 937 q 111 882 77 882 m 193 717 l 310 717 q 355 676 355 717 q 310 636 355 636 l 193 636 q 151 676 151 636 q 193 717 151 717 "},"«":{"ha":822,"x_min":62,"x_max":760,"o":"m 708 174 l 536 319 q 510 355 510 341 q 536 392 510 370 l 708 534 q 760 616 760 576 q 744 655 760 639 q 711 671 728 671 q 657 644 688 671 l 412 431 q 375 353 375 395 q 412 275 375 308 l 657 64 q 711 37 688 37 q 744 53 728 37 q 760 92 760 69 q 708 174 760 130 m 396 171 l 224 317 q 197 353 197 338 q 224 389 197 367 l 396 532 q 447 614 447 574 q 431 652 447 636 q 399 668 415 668 q 345 642 375 668 l 100 428 q 62 350 62 393 q 100 272 62 304 l 345 61 q 399 35 375 35 q 431 51 415 35 q 447 89 447 66 q 396 171 447 128 "},"¬":{"ha":833,"x_min":69,"x_max":755,"o":"m 100 432 l 555 432 q 620 416 608 432 q 632 350 632 401 l 632 245 q 648 178 632 204 q 693 151 665 151 q 755 245 755 151 l 755 528 q 725 554 755 554 l 196 554 q 105 526 142 554 q 69 458 69 498 q 100 432 69 432 "},"­":{"ha":550,"x_min":69,"x_max":472,"o":"m 441 418 l 196 418 q 105 390 142 418 q 69 322 69 361 q 100 296 69 296 l 346 296 q 436 324 399 296 q 472 392 472 353 q 441 418 472 418 "},"®":{"ha":865,"x_min":104,"x_max":761,"o":"m 281 301 l 583 301 q 715 348 669 301 q 761 476 761 395 l 761 791 q 715 919 761 873 q 583 965 669 965 l 281 965 q 150 919 195 965 q 104 791 104 873 l 104 476 q 151 347 104 393 q 281 301 197 301 m 191 478 l 191 789 q 214 859 191 832 q 273 886 237 886 l 591 886 q 650 859 627 886 q 673 789 673 832 l 673 478 q 650 407 673 433 q 591 380 627 380 l 273 380 q 214 407 237 380 q 191 478 191 434 m 361 493 l 361 532 q 367 566 361 558 q 395 574 373 574 q 424 569 416 574 q 452 541 431 564 l 500 486 q 590 437 539 437 q 624 460 624 437 q 616 476 624 468 l 526 576 q 521 590 521 582 q 532 602 521 596 q 591 699 591 631 l 591 725 q 479 823 591 823 l 322 823 q 291 811 304 823 q 277 782 277 800 l 277 493 q 319 437 277 437 q 361 493 361 437 m 397 749 l 457 749 q 504 704 504 749 l 504 696 q 456 648 504 648 l 397 648 q 368 657 374 648 q 361 690 361 667 l 361 704 q 368 739 361 729 q 397 749 374 749 "},"¯":{"ha":550,"x_min":69,"x_max":472,"o":"m 441 933 l 196 933 q 104 905 139 933 q 69 840 69 878 q 100 814 69 814 l 346 814 q 436 841 399 814 q 472 907 472 868 q 441 933 472 933 "},"°":{"ha":511,"x_min":69,"x_max":441,"o":"m 69 882 q 118 751 69 797 q 256 705 168 705 q 392 751 342 705 q 441 882 441 796 q 393 1015 441 968 q 256 1061 344 1061 q 119 1015 168 1061 q 69 882 69 968 m 350 882 q 256 789 350 789 q 161 882 161 789 q 256 978 161 978 q 350 882 350 978 "},"±":{"ha":833,"x_min":69,"x_max":755,"o":"m 100 449 l 273 449 q 334 437 318 449 q 350 367 350 426 l 350 262 q 411 168 350 168 q 473 262 473 168 l 473 367 q 490 438 473 427 q 550 449 507 449 l 629 449 q 719 477 682 449 q 755 545 755 505 q 725 571 755 571 l 550 571 q 485 587 497 571 q 473 653 473 602 l 473 774 q 431 852 473 852 q 376 814 403 852 q 350 720 350 777 l 350 653 q 340 588 350 606 q 273 571 330 571 l 196 571 q 105 542 141 571 q 69 475 69 513 q 100 449 69 449 m 100 1 l 629 1 q 719 28 682 1 q 755 96 755 56 q 725 123 755 123 l 196 123 q 105 94 141 123 q 69 27 69 65 q 100 1 69 1 "},"²":{"ha":555,"x_min":45,"x_max":496,"o":"m 304 730 l 233 730 q 45 558 45 730 l 45 468 q 117 393 45 393 l 379 393 q 462 414 429 393 q 496 463 496 435 q 460 493 496 493 l 203 493 q 157 534 157 493 l 157 559 q 233 632 157 632 l 304 632 q 496 811 496 632 q 452 938 496 899 q 301 978 408 978 l 205 978 q 117 956 157 978 q 77 905 77 934 q 111 878 77 878 l 304 878 q 361 864 342 878 q 379 811 379 850 q 304 730 379 730 "},"³":{"ha":555,"x_min":36,"x_max":488,"o":"m 90 878 l 319 878 q 374 832 374 878 l 374 790 q 319 742 374 742 l 174 742 q 111 692 111 742 q 174 642 111 642 l 319 642 q 374 597 374 642 l 374 538 q 319 489 374 489 l 72 489 q 36 461 36 489 q 76 411 36 434 q 165 389 115 389 l 325 389 q 445 429 401 389 q 488 538 488 469 l 488 597 q 440 694 488 663 q 439 696 439 694 l 439 697 q 488 790 488 730 l 488 836 q 443 940 488 903 q 319 978 397 978 l 184 978 q 96 956 136 978 q 56 905 56 934 q 90 878 56 878 "},"´":{"ha":354,"x_min":69,"x_max":347,"o":"m 278 904 l 319 946 q 347 1004 347 972 q 331 1045 347 1029 q 288 1061 314 1061 q 227 1029 250 1061 l 87 840 q 69 800 69 818 q 100 774 69 774 q 278 904 150 774 "},"¶":{"ha":890,"x_min":82,"x_max":859,"o":"m 742 -86 l 742 808 q 774 843 742 843 q 833 871 808 843 q 859 939 859 900 q 828 965 859 965 l 319 965 q 82 732 82 965 l 82 612 q 300 399 82 399 q 353 381 339 399 q 367 329 367 364 l 367 -86 q 384 -154 367 -127 q 431 -180 400 -180 q 479 -154 462 -180 q 496 -86 496 -127 l 496 779 q 553 848 496 848 q 612 779 612 848 l 612 -86 q 629 -154 612 -127 q 676 -180 646 -180 q 742 -86 742 -180 "},"·":{"ha":309,"x_min":69,"x_max":237,"o":"m 153 563 q 69 478 69 563 q 153 395 69 395 q 214 417 191 395 q 237 478 237 439 q 214 539 237 516 q 153 563 191 563 "},"¸":{"ha":484,"x_min":96,"x_max":387,"o":"m 249 20 q 228 45 249 45 q 179 14 202 45 q 155 -60 155 -18 q 216 -117 155 -109 l 227 -118 q 290 -155 290 -127 q 218 -191 290 -191 l 117 -191 q 96 -207 96 -191 q 127 -258 96 -239 q 204 -278 159 -278 l 228 -278 q 387 -153 387 -278 q 362 -73 387 -100 q 271 -35 337 -45 q 249 -9 249 -31 l 249 20 "},"¹":{"ha":294,"x_min":7,"x_max":205,"o":"m 205 458 l 205 901 q 132 978 205 978 q 45 957 83 978 q 7 908 7 935 q 40 878 7 878 l 61 878 q 89 870 85 878 q 93 844 93 863 l 93 458 q 150 389 93 389 q 205 458 205 389 "},"º":{"ha":571,"x_min":69,"x_max":501,"o":"m 221 541 l 349 541 q 501 676 501 541 l 501 840 q 349 978 501 978 l 221 978 q 69 840 69 978 l 69 676 q 221 541 69 541 m 178 677 l 178 840 q 222 882 178 882 l 347 882 q 392 840 392 882 l 392 677 q 347 636 392 636 l 222 636 q 178 677 178 636 "},"»":{"ha":822,"x_min":62,"x_max":760,"o":"m 286 319 l 114 174 q 62 92 62 130 q 78 54 62 70 q 111 37 94 37 q 165 64 135 37 l 410 275 q 447 353 447 309 q 410 431 447 398 l 165 644 q 111 671 135 671 q 78 654 94 671 q 62 616 62 638 q 114 534 62 577 l 286 392 q 313 355 313 370 q 286 319 313 342 m 599 317 l 427 171 q 375 89 375 127 q 391 51 375 67 q 424 35 407 35 q 478 61 448 35 l 722 272 q 760 350 760 305 q 722 428 760 395 l 478 642 q 424 668 448 668 q 391 652 407 668 q 375 614 375 635 q 427 532 375 574 l 599 389 q 625 353 625 367 q 599 317 625 339 "},"¼":{"ha":1152,"x_min":28,"x_max":1051,"o":"m 227 458 l 227 901 q 153 978 227 978 q 66 957 104 978 q 28 908 28 935 q 61 878 28 878 l 82 878 q 110 870 106 878 q 114 844 114 863 l 114 458 q 171 389 114 389 q 227 458 227 389 m 659 954 l 81 43 q 57 -12 57 12 q 106 -57 57 -57 q 171 -5 138 -57 l 747 907 q 768 961 768 939 q 722 1007 768 1007 q 659 954 692 1007 m 937 165 l 937 54 q 983 -7 937 -7 q 1029 19 1006 -7 q 1051 84 1051 45 l 1051 513 q 994 583 1051 583 q 937 513 937 583 l 937 349 q 892 307 937 307 l 774 307 q 720 357 720 307 l 720 523 q 676 583 720 583 q 630 557 651 583 q 608 492 608 532 l 608 356 q 765 206 608 206 l 892 206 q 926 199 916 206 q 937 165 937 191 "},"½":{"ha":1109,"x_min":28,"x_max":1027,"o":"m 227 458 l 227 901 q 153 978 227 978 q 66 957 104 978 q 28 908 28 935 q 61 878 28 878 l 82 878 q 110 870 106 878 q 114 844 114 863 l 114 458 q 171 389 114 389 q 227 458 227 389 m 659 954 l 81 43 q 57 -12 57 12 q 106 -57 57 -57 q 171 -5 138 -57 l 747 907 q 768 961 768 939 q 722 1007 768 1007 q 659 954 692 1007 m 836 335 l 765 335 q 576 163 576 335 l 576 73 q 648 -2 576 -2 l 911 -2 q 994 19 960 -2 q 1027 67 1027 39 q 991 98 1027 98 l 734 98 q 688 139 688 98 l 688 164 q 765 237 688 237 l 836 237 q 1027 416 1027 237 q 983 543 1027 503 q 833 583 939 583 l 737 583 q 648 561 688 583 q 608 510 608 538 q 643 482 608 482 l 836 482 q 892 469 874 482 q 911 416 911 455 q 836 335 911 335 "},"¾":{"ha":1356,"x_min":36,"x_max":1274,"o":"m 90 878 l 319 878 q 374 832 374 878 l 374 790 q 319 742 374 742 l 174 742 q 111 692 111 742 q 174 642 111 642 l 319 642 q 374 597 374 642 l 374 538 q 319 489 374 489 l 72 489 q 36 461 36 489 q 76 411 36 434 q 165 389 115 389 l 325 389 q 445 429 401 389 q 488 538 488 469 l 488 597 q 440 694 488 663 q 439 696 439 694 l 439 697 q 488 790 488 730 l 488 836 q 443 940 488 903 q 319 978 397 978 l 184 978 q 96 956 136 978 q 56 905 56 934 q 90 878 56 878 m 881 954 l 303 43 q 279 -12 279 12 q 328 -57 279 -57 q 393 -5 361 -57 l 970 907 q 990 961 990 939 q 945 1007 990 1007 q 881 954 914 1007 m 1160 165 l 1160 54 q 1205 -7 1160 -7 q 1251 19 1229 -7 q 1274 84 1274 45 l 1274 513 q 1217 583 1274 583 q 1160 513 1160 583 l 1160 349 q 1115 307 1160 307 l 997 307 q 943 357 943 307 l 943 523 q 899 583 943 583 q 852 557 873 583 q 831 492 831 532 l 831 356 q 987 206 831 206 l 1115 206 q 1149 199 1138 206 q 1160 165 1160 191 "},"¿":{"ha":604,"x_min":82,"x_max":583,"o":"m 425 561 q 509 646 509 561 q 425 729 509 729 q 363 706 387 729 q 340 646 340 684 q 363 584 340 607 q 425 561 387 561 m 359 -132 q 243 -104 271 -132 q 215 -8 215 -76 q 235 91 215 54 q 322 151 255 127 q 456 229 422 186 q 490 380 490 271 q 425 473 490 473 q 378 447 395 473 q 361 379 361 420 q 344 304 361 325 q 282 269 327 283 q 116 159 151 225 q 82 -8 82 92 q 143 -197 82 -138 q 347 -256 203 -256 l 404 -256 q 527 -225 471 -256 q 583 -157 583 -195 q 553 -132 583 -132 l 359 -132 "},"À":{"ha":871,"x_min":100,"x_max":771,"o":"m 100 732 l 100 87 q 165 -7 100 -7 q 232 87 232 -7 l 232 290 q 253 366 232 345 q 328 387 274 387 l 543 387 q 618 367 597 387 q 639 290 639 346 l 639 87 q 704 -7 639 -7 q 771 87 771 -7 l 771 732 q 709 904 771 843 q 534 965 647 965 l 336 965 q 162 904 225 965 q 100 732 100 843 m 639 730 l 639 607 q 618 532 639 553 q 543 510 597 510 l 328 510 q 253 531 274 510 q 232 607 232 552 l 232 730 q 342 842 232 842 l 529 842 q 639 730 639 842 m 248 1206 l 290 1164 q 468 1034 420 1034 q 498 1060 498 1034 q 480 1100 498 1075 l 341 1289 q 280 1321 315 1321 q 237 1305 254 1321 q 220 1264 220 1289 q 248 1206 220 1234 "},"Á":{"ha":871,"x_min":100,"x_max":771,"o":"m 100 732 l 100 87 q 165 -7 100 -7 q 232 87 232 -7 l 232 290 q 253 366 232 345 q 328 387 274 387 l 543 387 q 618 367 597 387 q 639 290 639 346 l 639 87 q 704 -7 639 -7 q 771 87 771 -7 l 771 732 q 709 904 771 843 q 534 965 647 965 l 336 965 q 162 904 225 965 q 100 732 100 843 m 639 730 l 639 607 q 618 532 639 553 q 543 510 597 510 l 328 510 q 253 531 274 510 q 232 607 232 552 l 232 730 q 342 842 232 842 l 529 842 q 639 730 639 842 m 566 1164 l 607 1206 q 635 1264 635 1232 q 618 1305 635 1289 q 575 1321 602 1321 q 514 1289 538 1321 l 375 1100 q 357 1060 357 1078 q 387 1034 357 1034 q 566 1164 437 1034 "},"Â":{"ha":871,"x_min":100,"x_max":771,"o":"m 100 732 l 100 87 q 165 -7 100 -7 q 232 87 232 -7 l 232 290 q 253 366 232 345 q 328 387 274 387 l 543 387 q 618 367 597 387 q 639 290 639 346 l 639 87 q 704 -7 639 -7 q 771 87 771 -7 l 771 732 q 709 904 771 843 q 534 965 647 965 l 336 965 q 162 904 225 965 q 100 732 100 843 m 639 730 l 639 607 q 618 532 639 553 q 543 510 597 510 l 328 510 q 253 531 274 510 q 232 607 232 552 l 232 730 q 342 842 232 842 l 529 842 q 639 730 639 842 m 623 1100 l 496 1272 q 435 1315 466 1315 q 374 1272 405 1315 l 248 1100 q 229 1060 229 1074 q 260 1034 229 1034 q 321 1061 286 1034 q 412 1141 356 1089 q 435 1157 427 1157 q 457 1143 444 1157 q 610 1034 570 1034 q 641 1060 641 1034 q 623 1100 641 1075 "},"Ã":{"ha":871,"x_min":100,"x_max":771,"o":"m 100 732 l 100 87 q 165 -7 100 -7 q 232 87 232 -7 l 232 290 q 253 366 232 345 q 328 387 274 387 l 543 387 q 618 367 597 387 q 639 290 639 346 l 639 87 q 704 -7 639 -7 q 771 87 771 -7 l 771 732 q 709 904 771 843 q 534 965 647 965 l 336 965 q 162 904 225 965 q 100 732 100 843 m 639 730 l 639 607 q 618 532 639 553 q 543 510 597 510 l 328 510 q 253 531 274 510 q 232 607 232 552 l 232 730 q 342 842 232 842 l 529 842 q 639 730 639 842 m 332 1116 q 421 1086 361 1116 q 549 1051 499 1051 q 637 1094 598 1051 q 675 1185 675 1137 q 652 1223 675 1223 q 624 1206 637 1223 q 551 1158 587 1158 q 453 1192 527 1158 q 334 1223 387 1223 q 246 1180 285 1223 q 207 1089 207 1136 q 231 1051 207 1051 q 260 1068 248 1051 q 332 1116 297 1116 "},"Ä":{"ha":871,"x_min":100,"x_max":771,"o":"m 100 732 l 100 87 q 165 -7 100 -7 q 232 87 232 -7 l 232 290 q 253 366 232 345 q 328 387 274 387 l 543 387 q 618 367 597 387 q 639 290 639 346 l 639 87 q 704 -7 639 -7 q 771 87 771 -7 l 771 732 q 709 904 771 843 q 534 965 647 965 l 336 965 q 162 904 225 965 q 100 732 100 843 m 639 730 l 639 607 q 618 532 639 553 q 543 510 597 510 l 328 510 q 253 531 274 510 q 232 607 232 552 l 232 730 q 342 842 232 842 l 529 842 q 639 730 639 842 m 303 1221 q 233 1139 233 1221 q 303 1059 233 1059 q 353 1079 332 1059 q 374 1139 374 1099 q 353 1200 374 1179 q 303 1221 332 1221 m 566 1221 q 497 1139 497 1221 q 566 1059 497 1059 q 637 1139 637 1059 q 566 1221 637 1221 "},"Å":{"ha":871,"x_min":100,"x_max":771,"o":"m 100 732 l 100 87 q 165 -7 100 -7 q 232 87 232 -7 l 232 290 q 253 366 232 345 q 328 387 274 387 l 543 387 q 618 367 597 387 q 639 290 639 346 l 639 87 q 704 -7 639 -7 q 771 87 771 -7 l 771 732 q 721 891 771 830 q 575 962 671 952 q 587 1025 587 991 q 435 1169 587 1169 q 282 1025 282 1169 q 296 962 282 991 q 150 891 200 952 q 100 732 100 830 m 496 1025 q 435 965 496 965 q 374 1025 374 965 q 435 1086 374 1086 q 496 1025 496 1086 m 639 730 l 639 607 q 618 532 639 553 q 543 510 597 510 l 328 510 q 253 531 274 510 q 232 607 232 552 l 232 730 q 342 842 232 842 l 529 842 q 639 730 639 842 "},"Æ":{"ha":1192,"x_min":100,"x_max":1164,"o":"m 811 842 l 1006 842 q 1117 870 1072 842 q 1162 937 1162 899 q 1132 965 1162 965 l 336 965 q 162 904 225 965 q 100 732 100 843 l 100 87 q 165 -7 100 -7 q 232 87 232 -7 l 232 290 q 253 366 232 345 q 328 387 274 387 l 488 387 q 564 366 543 387 q 585 290 585 345 l 585 87 q 652 0 585 0 l 1007 0 q 1118 29 1072 0 q 1164 97 1164 58 q 1133 123 1164 123 l 811 123 q 736 145 756 123 q 715 221 715 168 l 715 351 q 736 417 715 397 q 811 437 758 437 l 961 437 q 1052 466 1016 437 q 1088 534 1088 495 q 1057 559 1088 559 l 811 559 q 736 582 756 559 q 715 657 715 604 l 715 755 q 736 821 715 801 q 811 842 758 842 m 585 730 l 585 607 q 563 532 585 554 q 488 510 541 510 l 328 510 q 253 531 274 510 q 232 607 232 552 l 232 730 q 342 842 232 842 l 473 842 q 585 730 585 842 "},"Ç":{"ha":749,"x_min":92,"x_max":721,"o":"m 690 122 l 334 122 q 224 233 224 122 l 224 730 q 334 842 224 842 l 690 842 q 721 869 721 842 q 675 937 721 908 q 564 965 629 965 l 328 965 q 154 904 217 965 q 92 732 92 844 l 92 232 q 154 60 92 120 q 328 0 216 0 l 564 0 q 675 28 630 0 q 721 96 721 56 q 690 122 721 122 m 428 20 q 407 45 428 45 q 358 14 381 45 q 334 -60 334 -18 q 395 -117 334 -109 l 406 -118 q 469 -155 469 -127 q 397 -191 469 -191 l 296 -191 q 275 -207 275 -191 q 306 -258 275 -239 q 383 -278 338 -278 l 407 -278 q 566 -153 566 -278 q 541 -73 566 -100 q 450 -35 516 -45 q 428 -9 428 -31 l 428 20 "},"È":{"ha":708,"x_min":102,"x_max":681,"o":"m 328 842 l 522 842 q 633 870 588 842 q 679 937 679 899 q 648 965 679 965 l 189 965 q 102 871 102 965 l 102 94 q 189 0 102 0 l 524 0 q 635 29 589 0 q 681 97 681 58 q 650 123 681 123 l 328 123 q 252 145 273 123 q 232 221 232 168 l 232 340 q 252 415 232 393 q 328 437 273 437 l 478 437 q 568 466 532 437 q 604 534 604 494 q 574 559 604 559 l 328 559 q 252 582 273 559 q 232 657 232 604 l 232 745 q 252 820 232 798 q 328 842 273 842 m 204 1206 l 246 1164 q 424 1034 376 1034 q 454 1060 454 1034 q 436 1100 454 1075 l 297 1289 q 236 1321 271 1321 q 193 1305 210 1321 q 176 1264 176 1289 q 204 1206 176 1234 "},"É":{"ha":708,"x_min":102,"x_max":681,"o":"m 328 842 l 522 842 q 633 870 588 842 q 679 937 679 899 q 648 965 679 965 l 189 965 q 102 871 102 965 l 102 94 q 189 0 102 0 l 524 0 q 635 29 589 0 q 681 97 681 58 q 650 123 681 123 l 328 123 q 252 145 273 123 q 232 221 232 168 l 232 340 q 252 415 232 393 q 328 437 273 437 l 478 437 q 568 466 532 437 q 604 534 604 494 q 574 559 604 559 l 328 559 q 252 582 273 559 q 232 657 232 604 l 232 745 q 252 820 232 798 q 328 842 273 842 m 507 1164 l 549 1206 q 576 1264 576 1232 q 560 1305 576 1289 q 517 1321 543 1321 q 456 1289 479 1321 l 317 1100 q 298 1060 298 1078 q 329 1034 298 1034 q 507 1164 379 1034 "},"Ê":{"ha":708,"x_min":102,"x_max":681,"o":"m 328 842 l 522 842 q 633 870 588 842 q 679 937 679 899 q 648 965 679 965 l 189 965 q 102 871 102 965 l 102 94 q 189 0 102 0 l 524 0 q 635 29 589 0 q 681 97 681 58 q 650 123 681 123 l 328 123 q 252 145 273 123 q 232 221 232 168 l 232 340 q 252 415 232 393 q 328 437 273 437 l 478 437 q 568 466 532 437 q 604 534 604 494 q 574 559 604 559 l 328 559 q 252 582 273 559 q 232 657 232 604 l 232 745 q 252 820 232 798 q 328 842 273 842 m 567 1100 l 441 1272 q 380 1315 410 1315 q 318 1272 349 1315 l 192 1100 q 174 1060 174 1074 q 204 1034 174 1034 q 265 1061 230 1034 q 356 1141 300 1089 q 380 1157 372 1157 q 401 1143 388 1157 q 555 1034 514 1034 q 585 1060 585 1034 q 567 1100 585 1075 "},"Ë":{"ha":708,"x_min":102,"x_max":681,"o":"m 328 842 l 522 842 q 633 870 588 842 q 679 937 679 899 q 648 965 679 965 l 189 965 q 102 871 102 965 l 102 94 q 189 0 102 0 l 524 0 q 635 29 589 0 q 681 97 681 58 q 650 123 681 123 l 328 123 q 252 145 273 123 q 232 221 232 168 l 232 340 q 252 415 232 393 q 328 437 273 437 l 478 437 q 568 466 532 437 q 604 534 604 494 q 574 559 604 559 l 328 559 q 252 582 273 559 q 232 657 232 604 l 232 745 q 252 820 232 798 q 328 842 273 842 m 248 1221 q 178 1139 178 1221 q 248 1059 178 1059 q 297 1079 277 1059 q 318 1139 318 1099 q 297 1200 318 1179 q 248 1221 277 1221 m 510 1221 q 441 1139 441 1221 q 510 1059 441 1059 q 582 1139 582 1059 q 510 1221 582 1221 "},"Ì":{"ha":396,"x_min":3,"x_max":375,"o":"m 262 207 l 262 758 q 272 835 262 817 q 306 861 282 854 q 375 939 375 884 q 351 965 375 965 l 119 965 q 21 882 21 965 q 40 856 21 856 l 94 856 q 134 758 134 856 l 134 207 q 124 132 134 151 q 90 104 115 112 q 21 26 21 82 q 45 0 21 0 l 277 0 q 375 83 375 0 q 355 110 375 110 l 300 110 q 262 207 262 110 m 31 1206 l 73 1164 q 251 1034 203 1034 q 281 1060 281 1034 q 263 1100 281 1075 l 124 1289 q 63 1321 98 1321 q 20 1305 37 1321 q 3 1264 3 1289 q 31 1206 3 1234 "},"Í":{"ha":396,"x_min":21,"x_max":390,"o":"m 262 207 l 262 758 q 272 835 262 817 q 306 861 282 854 q 375 939 375 884 q 351 965 375 965 l 119 965 q 21 882 21 965 q 40 856 21 856 l 94 856 q 134 758 134 856 l 134 207 q 124 132 134 151 q 90 104 115 112 q 21 26 21 82 q 45 0 21 0 l 277 0 q 375 83 375 0 q 355 110 375 110 l 300 110 q 262 207 262 110 m 321 1164 l 362 1206 q 390 1264 390 1232 q 373 1305 390 1289 q 330 1321 357 1321 q 269 1289 293 1321 l 130 1100 q 112 1060 112 1078 q 142 1034 112 1034 q 321 1164 193 1034 "},"Î":{"ha":396,"x_min":-8,"x_max":404,"o":"m 262 207 l 262 758 q 272 835 262 817 q 306 861 282 854 q 375 939 375 884 q 351 965 375 965 l 119 965 q 21 882 21 965 q 40 856 21 856 l 94 856 q 134 758 134 856 l 134 207 q 124 132 134 151 q 90 104 115 112 q 21 26 21 82 q 45 0 21 0 l 277 0 q 375 83 375 0 q 355 110 375 110 l 300 110 q 262 207 262 110 m 385 1100 l 259 1272 q 198 1315 229 1315 q 136 1272 168 1315 l 10 1100 q -8 1060 -8 1074 q 22 1034 -8 1034 q 83 1061 48 1034 q 174 1141 119 1089 q 198 1157 190 1157 q 220 1143 206 1157 q 373 1034 332 1034 q 404 1060 404 1034 q 385 1100 404 1075 "},"Ï":{"ha":396,"x_min":-3,"x_max":401,"o":"m 262 207 l 262 758 q 272 835 262 817 q 306 861 282 854 q 375 939 375 884 q 351 965 375 965 l 119 965 q 21 882 21 965 q 40 856 21 856 l 94 856 q 134 758 134 856 l 134 207 q 124 132 134 151 q 90 104 115 112 q 21 26 21 82 q 45 0 21 0 l 277 0 q 375 83 375 0 q 355 110 375 110 l 300 110 q 262 207 262 110 m 66 1221 q -3 1139 -3 1221 q 66 1059 -3 1059 q 116 1079 96 1059 q 137 1139 137 1099 q 116 1200 137 1179 q 66 1221 96 1221 m 329 1221 q 260 1139 260 1221 q 329 1059 260 1059 q 401 1139 401 1059 q 329 1221 401 1221 "},"Ð":{"ha":863,"x_min":1,"x_max":771,"o":"m 103 425 l 103 94 q 196 0 103 0 l 532 0 q 708 60 645 0 q 771 232 771 121 l 771 739 q 710 907 771 848 q 532 965 648 965 l 103 965 q 32 943 59 965 q 4 882 4 922 q 24 856 4 856 l 64 856 q 103 758 103 856 l 103 545 q 28 511 54 537 q 1 452 1 484 q 32 425 1 425 l 103 425 m 233 547 l 233 751 q 255 827 233 805 q 329 848 277 848 l 528 848 q 637 737 637 848 l 637 233 q 528 122 637 122 l 329 122 q 254 144 274 122 q 233 220 233 166 l 233 425 l 334 425 q 423 453 387 425 q 460 521 460 481 q 429 547 460 547 l 233 547 "},"Ñ":{"ha":901,"x_min":102,"x_max":800,"o":"m 232 699 l 615 85 q 673 13 648 32 q 732 -7 698 -7 q 800 87 800 -7 l 800 833 q 773 928 800 890 q 717 965 747 965 q 669 886 669 965 l 669 237 l 235 924 q 167 965 210 965 q 102 871 102 965 l 102 87 q 165 -7 102 -7 q 232 87 232 -7 l 232 699 m 347 1116 q 436 1086 376 1116 q 564 1051 514 1051 q 652 1094 613 1051 q 690 1185 690 1137 q 667 1223 690 1223 q 639 1206 652 1223 q 566 1158 602 1158 q 468 1192 542 1158 q 349 1223 401 1223 q 261 1180 300 1223 q 222 1089 222 1136 q 245 1051 222 1051 q 275 1068 262 1051 q 347 1116 312 1116 "},"Ò":{"ha":893,"x_min":92,"x_max":802,"o":"m 328 -7 l 564 -7 q 739 55 676 -7 q 802 227 802 116 l 802 739 q 739 910 802 849 q 564 971 677 971 l 328 971 q 154 911 216 971 q 92 739 92 851 l 92 227 q 154 54 92 115 q 328 -7 217 -7 m 224 228 l 224 737 q 334 848 224 848 l 558 848 q 668 737 668 848 l 668 228 q 558 117 668 117 l 334 117 q 224 228 224 117 m 273 1206 l 315 1164 q 493 1034 446 1034 q 524 1060 524 1034 q 505 1100 524 1075 l 366 1289 q 305 1321 340 1321 q 262 1305 279 1321 q 245 1264 245 1289 q 273 1206 245 1234 "},"Ó":{"ha":893,"x_min":92,"x_max":802,"o":"m 328 -7 l 564 -7 q 739 55 676 -7 q 802 227 802 116 l 802 739 q 739 910 802 849 q 564 971 677 971 l 328 971 q 154 911 216 971 q 92 739 92 851 l 92 227 q 154 54 92 115 q 328 -7 217 -7 m 224 228 l 224 737 q 334 848 224 848 l 558 848 q 668 737 668 848 l 668 228 q 558 117 668 117 l 334 117 q 224 228 224 117 m 568 1164 l 610 1206 q 637 1264 637 1232 q 621 1305 637 1289 q 578 1321 604 1321 q 517 1289 541 1321 l 378 1100 q 359 1060 359 1078 q 390 1034 359 1034 q 568 1164 440 1034 "},"Ô":{"ha":893,"x_min":92,"x_max":802,"o":"m 328 -7 l 564 -7 q 739 55 676 -7 q 802 227 802 116 l 802 739 q 739 910 802 849 q 564 971 677 971 l 328 971 q 154 911 216 971 q 92 739 92 851 l 92 227 q 154 54 92 115 q 328 -7 217 -7 m 224 228 l 224 737 q 334 848 224 848 l 558 848 q 668 737 668 848 l 668 228 q 558 117 668 117 l 334 117 q 224 228 224 117 m 633 1100 l 507 1272 q 446 1315 477 1315 q 385 1272 416 1315 l 258 1100 q 240 1060 240 1074 q 271 1034 240 1034 q 332 1061 296 1034 q 422 1141 367 1089 q 446 1157 438 1157 q 468 1143 454 1157 q 621 1034 581 1034 q 652 1060 652 1034 q 633 1100 652 1075 "},"Õ":{"ha":893,"x_min":92,"x_max":802,"o":"m 328 -7 l 564 -7 q 739 55 676 -7 q 802 227 802 116 l 802 739 q 739 910 802 849 q 564 971 677 971 l 328 971 q 154 911 216 971 q 92 739 92 851 l 92 227 q 154 54 92 115 q 328 -7 217 -7 m 224 228 l 224 737 q 334 848 224 848 l 558 848 q 668 737 668 848 l 668 228 q 558 117 668 117 l 334 117 q 224 228 224 117 m 343 1116 q 432 1086 372 1116 q 559 1051 510 1051 q 648 1094 609 1051 q 686 1185 686 1137 q 663 1223 686 1223 q 635 1206 648 1223 q 562 1158 597 1158 q 464 1192 538 1158 q 345 1223 397 1223 q 257 1180 296 1223 q 218 1089 218 1136 q 241 1051 218 1051 q 271 1068 258 1051 q 343 1116 308 1116 "},"Ö":{"ha":893,"x_min":92,"x_max":802,"o":"m 328 -7 l 564 -7 q 739 55 676 -7 q 802 227 802 116 l 802 739 q 739 910 802 849 q 564 971 677 971 l 328 971 q 154 911 216 971 q 92 739 92 851 l 92 227 q 154 54 92 115 q 328 -7 217 -7 m 224 228 l 224 737 q 334 848 224 848 l 558 848 q 668 737 668 848 l 668 228 q 558 117 668 117 l 334 117 q 224 228 224 117 m 314 1221 q 244 1139 244 1221 q 314 1059 244 1059 q 364 1079 343 1059 q 385 1139 385 1099 q 364 1200 385 1179 q 314 1221 343 1221 m 576 1221 q 508 1139 508 1221 q 576 1059 508 1059 q 648 1139 648 1059 q 576 1221 648 1221 "},"×":{"ha":833,"x_min":131,"x_max":708,"o":"m 196 68 l 357 229 q 411 262 390 262 q 469 225 432 262 l 582 113 q 657 74 621 74 q 693 90 678 74 q 708 126 708 105 q 669 200 708 161 l 557 313 q 518 371 518 349 q 553 425 518 391 l 648 519 q 693 616 693 564 q 680 663 693 639 q 652 688 667 688 q 629 673 644 688 l 467 511 q 412 476 431 476 q 354 515 393 476 l 229 640 q 171 676 193 676 q 131 621 131 676 q 180 514 131 564 l 267 428 q 304 370 304 389 q 271 315 304 349 l 176 222 q 132 125 132 181 q 145 78 132 101 q 174 54 157 54 q 196 68 182 54 "},"Ø":{"ha":893,"x_min":92,"x_max":802,"o":"m 313 -7 l 564 -7 q 739 55 676 -7 q 802 227 802 116 l 802 739 q 711 932 802 871 q 718 970 718 949 q 667 1021 718 1021 q 604 968 631 1021 q 564 971 581 971 l 328 971 q 154 911 216 971 q 92 739 92 851 l 92 227 q 191 26 92 83 q 174 -32 174 -8 q 225 -83 174 -83 q 300 -5 269 -83 q 313 -7 307 -7 m 224 214 l 224 737 q 334 848 224 848 l 551 848 l 243 146 q 224 214 224 169 m 668 751 l 668 228 q 558 117 668 117 l 353 117 l 656 806 q 668 751 668 784 "},"Ù":{"ha":871,"x_min":100,"x_max":771,"o":"m 639 886 l 639 228 q 528 117 639 117 l 342 117 q 232 228 232 117 l 232 886 q 183 965 232 965 q 127 927 154 965 q 100 833 100 890 l 100 227 q 162 54 100 115 q 336 -7 225 -7 l 534 -7 q 709 54 647 -7 q 771 227 771 115 l 771 833 q 744 927 771 890 q 686 965 717 965 q 639 886 639 965 m 248 1206 l 290 1164 q 468 1034 420 1034 q 498 1060 498 1034 q 480 1100 498 1075 l 341 1289 q 280 1321 315 1321 q 237 1305 254 1321 q 220 1264 220 1289 q 248 1206 220 1234 "},"Ú":{"ha":871,"x_min":100,"x_max":771,"o":"m 639 886 l 639 228 q 528 117 639 117 l 342 117 q 232 228 232 117 l 232 886 q 183 965 232 965 q 127 927 154 965 q 100 833 100 890 l 100 227 q 162 54 100 115 q 336 -7 225 -7 l 534 -7 q 709 54 647 -7 q 771 227 771 115 l 771 833 q 744 927 771 890 q 686 965 717 965 q 639 886 639 965 m 574 1164 l 615 1206 q 643 1264 643 1232 q 626 1305 643 1289 q 583 1321 610 1321 q 522 1289 546 1321 l 383 1100 q 365 1060 365 1078 q 395 1034 365 1034 q 574 1164 446 1034 "},"Û":{"ha":871,"x_min":100,"x_max":771,"o":"m 639 886 l 639 228 q 528 117 639 117 l 342 117 q 232 228 232 117 l 232 886 q 183 965 232 965 q 127 927 154 965 q 100 833 100 890 l 100 227 q 162 54 100 115 q 336 -7 225 -7 l 534 -7 q 709 54 647 -7 q 771 227 771 115 l 771 833 q 744 927 771 890 q 686 965 717 965 q 639 886 639 965 m 623 1100 l 496 1272 q 435 1315 466 1315 q 374 1272 405 1315 l 248 1100 q 229 1060 229 1074 q 260 1034 229 1034 q 321 1061 286 1034 q 412 1141 356 1089 q 435 1157 427 1157 q 457 1143 444 1157 q 610 1034 570 1034 q 641 1060 641 1034 q 623 1100 641 1075 "},"Ü":{"ha":871,"x_min":100,"x_max":771,"o":"m 639 886 l 639 228 q 528 117 639 117 l 342 117 q 232 228 232 117 l 232 886 q 183 965 232 965 q 127 927 154 965 q 100 833 100 890 l 100 227 q 162 54 100 115 q 336 -7 225 -7 l 534 -7 q 709 54 647 -7 q 771 227 771 115 l 771 833 q 744 927 771 890 q 686 965 717 965 q 639 886 639 965 m 303 1221 q 233 1139 233 1221 q 303 1059 233 1059 q 353 1079 332 1059 q 374 1139 374 1099 q 353 1200 374 1179 q 303 1221 332 1221 m 566 1221 q 497 1139 497 1221 q 566 1059 497 1059 q 637 1139 637 1059 q 566 1221 637 1221 "},"Ý":{"ha":697,"x_min":12,"x_max":685,"o":"m 414 87 l 414 304 q 431 375 414 341 l 671 852 q 685 909 685 881 q 669 948 685 931 q 628 965 654 965 q 551 895 586 965 l 390 564 q 349 515 366 515 q 309 564 332 515 l 149 896 q 71 965 115 965 q 28 947 45 965 q 12 908 12 930 q 26 850 12 878 l 265 375 q 283 307 283 340 l 283 87 q 349 -7 283 -7 q 414 87 414 -7 m 486 1164 l 528 1206 q 555 1264 555 1232 q 539 1305 555 1289 q 496 1321 522 1321 q 435 1289 458 1321 l 296 1100 q 277 1060 277 1078 q 308 1034 277 1034 q 486 1164 358 1034 "},"Þ":{"ha":799,"x_min":102,"x_max":743,"o":"m 503 798 l 328 798 q 232 872 232 798 q 172 965 232 965 q 121 938 140 965 q 102 864 102 910 l 102 87 q 167 -7 102 -7 q 232 87 232 -7 l 232 118 q 253 194 232 173 q 328 215 274 215 l 503 215 q 681 275 618 215 q 743 449 743 335 l 743 578 q 679 740 743 682 q 503 798 614 798 m 232 436 l 232 576 q 253 651 232 629 q 328 673 273 673 l 503 673 q 611 575 611 673 l 611 444 q 504 339 611 339 l 328 339 q 253 361 273 339 q 232 436 232 382 "},"ß":{"ha":835,"x_min":97,"x_max":787,"o":"m 553 421 q 465 500 465 421 q 522 593 465 555 q 610 674 586 634 q 635 785 635 713 q 408 978 635 978 l 315 978 q 97 764 97 978 l 97 87 q 163 -7 97 -7 q 209 20 192 -7 q 227 87 227 47 l 227 762 q 249 831 227 807 q 302 856 271 856 l 414 856 q 500 778 500 856 q 429 676 500 720 q 332 498 332 618 q 558 298 332 298 l 567 298 q 653 210 653 298 q 567 123 653 123 l 503 123 q 378 94 433 123 q 322 26 322 64 q 353 0 322 0 l 561 0 q 787 212 787 0 q 561 421 787 421 l 553 421 "},"à":{"ha":766,"x_min":56,"x_max":685,"o":"m 147 583 l 460 583 q 554 504 554 583 q 461 418 554 418 l 282 418 q 56 203 56 418 q 282 -7 56 -7 l 463 -7 q 685 207 685 -7 l 685 488 q 460 705 685 705 l 296 705 q 172 676 228 705 q 117 608 117 646 q 147 583 117 583 m 278 296 l 461 296 q 554 205 554 296 q 461 117 554 117 l 278 117 q 191 205 191 117 q 278 296 191 296 m 232 946 l 274 904 q 452 774 404 774 q 482 800 482 774 q 464 840 482 815 l 325 1029 q 264 1061 299 1061 q 221 1045 237 1061 q 204 1004 204 1029 q 232 946 204 974 "},"á":{"ha":766,"x_min":56,"x_max":685,"o":"m 147 583 l 460 583 q 554 504 554 583 q 461 418 554 418 l 282 418 q 56 203 56 418 q 282 -7 56 -7 l 463 -7 q 685 207 685 -7 l 685 488 q 460 705 685 705 l 296 705 q 172 676 228 705 q 117 608 117 646 q 147 583 117 583 m 278 296 l 461 296 q 554 205 554 296 q 461 117 554 117 l 278 117 q 191 205 191 117 q 278 296 191 296 m 524 904 l 565 946 q 593 1004 593 972 q 576 1045 593 1029 q 533 1061 559 1061 q 472 1029 496 1061 l 333 840 q 315 800 315 818 q 345 774 315 774 q 524 904 395 774 "},"â":{"ha":766,"x_min":56,"x_max":685,"o":"m 147 583 l 460 583 q 554 504 554 583 q 461 418 554 418 l 282 418 q 56 203 56 418 q 282 -7 56 -7 l 463 -7 q 685 207 685 -7 l 685 488 q 460 705 685 705 l 296 705 q 172 676 228 705 q 117 608 117 646 q 147 583 117 583 m 278 296 l 461 296 q 554 205 554 296 q 461 117 554 117 l 278 117 q 191 205 191 117 q 278 296 191 296 m 579 840 l 453 1013 q 392 1055 422 1055 q 330 1013 361 1055 l 204 840 q 186 800 186 814 q 216 774 186 774 q 277 802 242 774 q 368 882 313 829 q 392 897 384 897 q 414 884 400 897 q 567 774 526 774 q 597 800 597 774 q 579 840 597 815 "},"ã":{"ha":766,"x_min":56,"x_max":685,"o":"m 147 583 l 460 583 q 554 504 554 583 q 461 418 554 418 l 282 418 q 56 203 56 418 q 282 -7 56 -7 l 463 -7 q 685 207 685 -7 l 685 488 q 460 705 685 705 l 296 705 q 172 676 228 705 q 117 608 117 646 q 147 583 117 583 m 278 296 l 461 296 q 554 205 554 296 q 461 117 554 117 l 278 117 q 191 205 191 117 q 278 296 191 296 m 296 856 q 385 827 325 856 q 513 791 463 791 q 601 834 562 791 q 640 925 640 877 q 616 964 640 964 q 588 946 601 964 q 515 899 551 899 q 417 932 491 899 q 298 964 351 964 q 210 920 249 964 q 171 829 171 876 q 195 791 171 791 q 224 808 212 791 q 296 856 261 856 "},"ä":{"ha":766,"x_min":56,"x_max":685,"o":"m 147 583 l 460 583 q 554 504 554 583 q 461 418 554 418 l 282 418 q 56 203 56 418 q 282 -7 56 -7 l 463 -7 q 685 207 685 -7 l 685 488 q 460 705 685 705 l 296 705 q 172 676 228 705 q 117 608 117 646 q 147 583 117 583 m 278 296 l 461 296 q 554 205 554 296 q 461 117 554 117 l 278 117 q 191 205 191 117 q 278 296 191 296 m 260 961 q 190 879 190 961 q 260 799 190 799 q 310 819 289 799 q 330 879 330 840 q 310 940 330 920 q 260 961 289 961 m 522 961 q 454 879 454 961 q 522 799 454 799 q 594 879 594 799 q 522 961 594 961 "},"å":{"ha":766,"x_min":56,"x_max":685,"o":"m 147 583 l 460 583 q 554 504 554 583 q 461 418 554 418 l 282 418 q 56 203 56 418 q 282 -7 56 -7 l 463 -7 q 685 207 685 -7 l 685 488 q 460 705 685 705 l 296 705 q 172 676 228 705 q 117 608 117 646 q 147 583 117 583 m 278 296 l 461 296 q 554 205 554 296 q 461 117 554 117 l 278 117 q 191 205 191 117 q 278 296 191 296 m 239 917 q 391 774 239 774 q 544 917 544 774 q 391 1061 544 1061 q 239 917 239 1061 m 452 917 q 391 857 452 857 q 330 917 330 857 q 391 978 330 978 q 452 917 452 978 "},"æ":{"ha":1249,"x_min":56,"x_max":1169,"o":"m 1112 117 l 778 117 q 684 203 684 117 q 777 296 684 296 l 1032 296 q 1137 328 1105 296 q 1169 429 1169 360 l 1169 500 q 943 705 1169 705 l 777 705 q 635 659 680 705 q 621 650 627 650 q 607 659 615 650 q 460 705 562 705 l 296 705 q 172 676 228 705 q 117 608 117 646 q 147 583 117 583 l 460 583 q 554 504 554 583 q 461 418 554 418 l 282 418 q 56 203 56 418 q 282 -7 56 -7 l 463 -7 q 601 39 555 -7 q 616 47 609 47 q 633 39 624 47 q 778 -7 680 -7 l 962 -7 q 1086 22 1029 -7 q 1143 89 1143 51 q 1112 117 1143 117 m 950 418 l 777 418 q 684 500 684 418 q 777 583 684 583 l 950 583 q 1038 500 1038 583 q 950 418 1038 418 m 278 296 l 461 296 q 554 205 554 296 q 461 117 554 117 l 278 117 q 191 205 191 117 q 278 296 191 296 "},"ç":{"ha":704,"x_min":82,"x_max":663,"o":"m 211 208 l 211 490 q 301 583 211 583 l 632 583 q 663 608 663 583 q 607 675 663 646 q 484 705 551 705 l 298 705 q 82 492 82 705 l 82 207 q 298 -7 82 -7 l 484 -7 q 607 23 551 -7 q 663 89 663 53 q 632 117 663 117 l 301 117 q 211 208 211 117 m 385 20 q 364 45 385 45 q 315 14 338 45 q 292 -60 292 -18 q 353 -117 292 -109 l 363 -118 q 427 -155 427 -127 q 355 -191 427 -191 l 253 -191 q 232 -207 232 -191 q 263 -258 232 -239 q 340 -278 295 -278 l 364 -278 q 524 -153 524 -278 q 498 -73 524 -100 q 407 -35 473 -45 q 385 -9 385 -31 l 385 20 "},"è":{"ha":777,"x_min":82,"x_max":697,"o":"m 640 117 l 306 117 q 211 203 211 117 q 304 296 211 296 l 559 296 q 697 429 697 296 l 697 500 q 471 705 697 705 l 304 705 q 82 492 82 705 l 82 212 q 306 -7 82 -7 l 490 -7 q 614 22 557 -7 q 671 89 671 52 q 640 117 671 117 m 478 418 l 304 418 q 211 500 211 418 q 304 583 211 583 l 478 583 q 566 500 566 583 q 478 418 566 418 m 222 946 l 264 904 q 441 774 394 774 q 472 800 472 774 q 454 840 472 815 l 315 1029 q 254 1061 289 1061 q 211 1045 227 1061 q 194 1004 194 1029 q 222 946 194 974 "},"é":{"ha":777,"x_min":82,"x_max":697,"o":"m 640 117 l 306 117 q 211 203 211 117 q 304 296 211 296 l 559 296 q 697 429 697 296 l 697 500 q 471 705 697 705 l 304 705 q 82 492 82 705 l 82 212 q 306 -7 82 -7 l 490 -7 q 614 22 557 -7 q 671 89 671 52 q 640 117 671 117 m 478 418 l 304 418 q 211 500 211 418 q 304 583 211 583 l 478 583 q 566 500 566 583 q 478 418 566 418 m 514 904 l 555 946 q 583 1004 583 972 q 567 1045 583 1029 q 524 1061 550 1061 q 463 1029 486 1061 l 323 840 q 305 800 305 818 q 336 774 305 774 q 514 904 386 774 "},"ê":{"ha":777,"x_min":82,"x_max":697,"o":"m 640 117 l 306 117 q 211 203 211 117 q 304 296 211 296 l 559 296 q 697 429 697 296 l 697 500 q 471 705 697 705 l 304 705 q 82 492 82 705 l 82 212 q 306 -7 82 -7 l 490 -7 q 614 22 557 -7 q 671 89 671 52 q 640 117 671 117 m 478 418 l 304 418 q 211 500 211 418 q 304 583 211 583 l 478 583 q 566 500 566 583 q 478 418 566 418 m 576 840 l 450 1013 q 389 1055 420 1055 q 328 1013 359 1055 l 201 840 q 183 800 183 814 q 214 774 183 774 q 275 802 239 774 q 366 882 310 829 q 389 897 381 897 q 411 884 397 897 q 564 774 524 774 q 595 800 595 774 q 576 840 595 815 "},"ë":{"ha":777,"x_min":82,"x_max":697,"o":"m 640 117 l 306 117 q 211 203 211 117 q 304 296 211 296 l 559 296 q 697 429 697 296 l 697 500 q 471 705 697 705 l 304 705 q 82 492 82 705 l 82 212 q 306 -7 82 -7 l 490 -7 q 614 22 557 -7 q 671 89 671 52 q 640 117 671 117 m 478 418 l 304 418 q 211 500 211 418 q 304 583 211 583 l 478 583 q 566 500 566 583 q 478 418 566 418 m 257 961 q 187 879 187 961 q 257 799 187 799 q 307 819 286 799 q 328 879 328 840 q 307 940 328 920 q 257 961 286 961 m 519 961 q 451 879 451 961 q 519 799 451 799 q 591 879 591 799 q 519 961 591 961 "},"ì":{"ha":323,"x_min":-33,"x_max":245,"o":"m 227 87 l 227 611 q 209 679 227 652 q 163 705 191 705 q 115 680 134 705 q 97 611 97 655 l 97 87 q 163 -7 97 -7 q 209 20 192 -7 q 227 87 227 47 m -5 946 l 37 904 q 215 774 168 774 q 245 800 245 774 q 227 840 245 815 l 88 1029 q 27 1061 62 1061 q -16 1045 1 1061 q -33 1004 -33 1029 q -5 946 -33 974 "},"í":{"ha":323,"x_min":77,"x_max":355,"o":"m 227 87 l 227 611 q 209 679 227 652 q 163 705 191 705 q 115 680 134 705 q 97 611 97 655 l 97 87 q 163 -7 97 -7 q 209 20 192 -7 q 227 87 227 47 m 286 904 l 328 946 q 355 1004 355 972 q 339 1045 355 1029 q 296 1061 322 1061 q 235 1029 258 1061 l 96 840 q 77 800 77 818 q 108 774 77 774 q 286 904 158 774 "},"î":{"ha":323,"x_min":-44,"x_max":368,"o":"m 227 87 l 227 611 q 209 679 227 652 q 163 705 191 705 q 115 680 134 705 q 97 611 97 655 l 97 87 q 163 -7 97 -7 q 209 20 192 -7 q 227 87 227 47 m 349 840 l 223 1013 q 162 1055 193 1055 q 100 1013 132 1055 l -26 840 q -44 800 -44 814 q -14 774 -44 774 q 47 802 12 774 q 138 882 83 829 q 162 897 154 897 q 184 884 170 897 q 337 774 296 774 q 368 800 368 774 q 349 840 368 815 "},"ï":{"ha":323,"x_min":-40,"x_max":364,"o":"m 227 87 l 227 611 q 209 679 227 652 q 163 705 191 705 q 115 680 134 705 q 97 611 97 655 l 97 87 q 163 -7 97 -7 q 209 20 192 -7 q 227 87 227 47 m 30 961 q -40 879 -40 961 q 30 799 -40 799 q 80 819 59 799 q 100 879 100 840 q 80 940 100 920 q 30 961 59 961 m 292 961 q 224 879 224 961 q 292 799 224 799 q 364 879 364 799 q 292 961 364 961 "},"ð":{"ha":786,"x_min":82,"x_max":689,"o":"m 82 397 l 82 227 q 319 -7 82 -7 l 452 -7 q 689 227 689 -7 l 689 654 q 547 896 689 830 q 582 954 582 927 q 532 1007 582 1007 q 475 982 503 1007 l 432 943 q 277 965 363 965 q 161 901 161 965 q 191 872 161 875 q 325 850 282 861 q 257 758 257 790 q 273 721 257 737 q 306 705 288 705 q 364 732 335 705 l 449 808 q 554 692 554 766 q 485 652 554 652 l 318 652 q 82 397 82 652 m 212 228 l 212 406 q 321 529 212 529 l 484 529 q 546 512 533 529 q 559 456 559 496 l 559 228 q 450 117 559 117 l 321 117 q 212 228 212 117 "},"ñ":{"ha":787,"x_min":97,"x_max":693,"o":"m 456 705 l 186 705 q 97 612 97 705 l 97 87 q 163 -7 97 -7 q 209 20 192 -7 q 227 87 227 47 l 227 513 q 238 568 227 553 q 294 583 250 583 l 454 583 q 564 471 564 583 l 564 87 q 629 -7 564 -7 q 676 20 659 -7 q 693 87 693 47 l 693 472 q 456 705 693 705 m 290 856 q 379 827 319 856 q 507 791 457 791 q 595 834 556 791 q 633 925 633 877 q 610 964 633 964 q 582 946 595 964 q 509 899 545 899 q 411 932 485 899 q 292 964 345 964 q 204 920 243 964 q 165 829 165 876 q 189 791 165 791 q 218 808 205 791 q 290 856 255 856 "},"ò":{"ha":799,"x_min":82,"x_max":717,"o":"m 298 -7 l 498 -7 q 717 207 717 -7 l 717 492 q 498 705 717 705 l 298 705 q 82 492 82 705 l 82 207 q 298 -7 82 -7 m 211 208 l 211 490 q 301 583 211 583 l 496 583 q 586 490 586 583 l 586 208 q 496 117 586 117 l 301 117 q 211 208 211 117 m 218 946 l 260 904 q 437 774 390 774 q 468 800 468 774 q 450 840 468 815 l 311 1029 q 250 1061 285 1061 q 207 1045 223 1061 q 190 1004 190 1029 q 218 946 190 974 "},"ó":{"ha":799,"x_min":82,"x_max":717,"o":"m 298 -7 l 498 -7 q 717 207 717 -7 l 717 492 q 498 705 717 705 l 298 705 q 82 492 82 705 l 82 207 q 298 -7 82 -7 m 211 208 l 211 490 q 301 583 211 583 l 496 583 q 586 490 586 583 l 586 208 q 496 117 586 117 l 301 117 q 211 208 211 117 m 538 904 l 579 946 q 607 1004 607 972 q 590 1045 607 1029 q 547 1061 574 1061 q 486 1029 510 1061 l 347 840 q 329 800 329 818 q 359 774 329 774 q 538 904 410 774 "},"ô":{"ha":799,"x_min":82,"x_max":717,"o":"m 298 -7 l 498 -7 q 717 207 717 -7 l 717 492 q 498 705 717 705 l 298 705 q 82 492 82 705 l 82 207 q 298 -7 82 -7 m 211 208 l 211 490 q 301 583 211 583 l 496 583 q 586 490 586 583 l 586 208 q 496 117 586 117 l 301 117 q 211 208 211 117 m 586 840 l 460 1013 q 399 1055 429 1055 q 337 1013 368 1055 l 211 840 q 193 800 193 814 q 223 774 193 774 q 284 802 249 774 q 375 882 319 829 q 399 897 391 897 q 420 884 407 897 q 574 774 533 774 q 604 800 604 774 q 586 840 604 815 "},"õ":{"ha":799,"x_min":82,"x_max":717,"o":"m 298 -7 l 498 -7 q 717 207 717 -7 l 717 492 q 498 705 717 705 l 298 705 q 82 492 82 705 l 82 207 q 298 -7 82 -7 m 211 208 l 211 490 q 301 583 211 583 l 496 583 q 586 490 586 583 l 586 208 q 496 117 586 117 l 301 117 q 211 208 211 117 m 296 856 q 385 827 325 856 q 513 791 463 791 q 601 834 562 791 q 640 925 640 877 q 616 964 640 964 q 588 946 601 964 q 515 899 551 899 q 417 932 491 899 q 298 964 351 964 q 210 920 249 964 q 171 829 171 876 q 195 791 171 791 q 224 808 212 791 q 296 856 261 856 "},"ö":{"ha":799,"x_min":82,"x_max":717,"o":"m 298 -7 l 498 -7 q 717 207 717 -7 l 717 492 q 498 705 717 705 l 298 705 q 82 492 82 705 l 82 207 q 298 -7 82 -7 m 211 208 l 211 490 q 301 583 211 583 l 496 583 q 586 490 586 583 l 586 208 q 496 117 586 117 l 301 117 q 211 208 211 117 m 267 961 q 197 879 197 961 q 267 799 197 799 q 317 819 296 799 q 338 879 338 840 q 317 940 338 920 q 267 961 296 961 m 530 961 q 461 879 461 961 q 530 799 461 799 q 602 879 602 799 q 530 961 602 961 "},"÷":{"ha":833,"x_min":69,"x_max":755,"o":"m 411 692 q 328 607 328 692 q 411 524 328 524 q 472 546 449 524 q 496 607 496 568 q 473 668 496 645 q 411 692 450 692 m 100 310 l 629 310 q 719 338 682 310 q 755 406 755 366 q 725 432 755 432 l 196 432 q 105 403 141 432 q 69 336 69 374 q 100 310 69 310 m 411 218 q 328 134 328 218 q 411 50 328 50 q 472 73 449 50 q 496 134 496 95 q 473 195 496 172 q 411 218 450 218 "},"ø":{"ha":799,"x_min":82,"x_max":717,"o":"m 302 -7 l 498 -7 q 717 207 717 -7 l 717 492 q 607 686 717 640 q 615 729 615 711 q 564 781 615 781 q 492 705 526 781 l 298 705 q 82 492 82 705 l 82 207 q 186 12 82 59 q 176 -32 176 -11 q 228 -83 176 -83 q 302 -7 269 -83 m 211 208 l 211 490 q 301 583 211 583 l 437 583 l 240 135 q 211 208 211 158 m 586 490 l 586 208 q 496 117 586 117 l 357 117 l 554 566 q 586 490 586 541 "},"ù":{"ha":787,"x_min":94,"x_max":690,"o":"m 330 -7 l 600 -7 q 690 87 690 -7 l 690 611 q 672 679 690 652 q 625 705 654 705 q 579 680 597 705 q 561 611 561 654 l 561 186 q 548 130 561 144 q 493 117 536 117 l 334 117 q 224 228 224 117 l 224 611 q 205 679 224 653 q 158 705 187 705 q 112 679 130 705 q 94 611 94 652 l 94 227 q 330 -7 94 -7 m 212 946 l 254 904 q 432 774 385 774 q 463 800 463 774 q 444 840 463 815 l 305 1029 q 244 1061 279 1061 q 201 1045 218 1061 q 184 1004 184 1029 q 212 946 184 974 "},"ú":{"ha":787,"x_min":94,"x_max":690,"o":"m 330 -7 l 600 -7 q 690 87 690 -7 l 690 611 q 672 679 690 652 q 625 705 654 705 q 579 680 597 705 q 561 611 561 654 l 561 186 q 548 130 561 144 q 493 117 536 117 l 334 117 q 224 228 224 117 l 224 611 q 205 679 224 653 q 158 705 187 705 q 112 679 130 705 q 94 611 94 652 l 94 227 q 330 -7 94 -7 m 532 904 l 574 946 q 602 1004 602 972 q 585 1045 602 1029 q 542 1061 568 1061 q 481 1029 505 1061 l 342 840 q 323 800 323 818 q 354 774 323 774 q 532 904 404 774 "},"û":{"ha":787,"x_min":94,"x_max":690,"o":"m 330 -7 l 600 -7 q 690 87 690 -7 l 690 611 q 672 679 690 652 q 625 705 654 705 q 579 680 597 705 q 561 611 561 654 l 561 186 q 548 130 561 144 q 493 117 536 117 l 334 117 q 224 228 224 117 l 224 611 q 205 679 224 653 q 158 705 187 705 q 112 679 130 705 q 94 611 94 652 l 94 227 q 330 -7 94 -7 m 581 840 l 454 1013 q 393 1055 424 1055 q 332 1013 363 1055 l 205 840 q 187 800 187 814 q 218 774 187 774 q 279 802 243 774 q 370 882 314 829 q 393 897 385 897 q 415 884 401 897 q 568 774 528 774 q 599 800 599 774 q 581 840 599 815 "},"ü":{"ha":787,"x_min":94,"x_max":690,"o":"m 330 -7 l 600 -7 q 690 87 690 -7 l 690 611 q 672 679 690 652 q 625 705 654 705 q 579 680 597 705 q 561 611 561 654 l 561 186 q 548 130 561 144 q 493 117 536 117 l 334 117 q 224 228 224 117 l 224 611 q 205 679 224 653 q 158 705 187 705 q 112 679 130 705 q 94 611 94 652 l 94 227 q 330 -7 94 -7 m 261 961 q 191 879 191 961 q 261 799 191 799 q 311 819 290 799 q 332 879 332 840 q 311 940 332 920 q 261 961 290 961 m 524 961 q 455 879 455 961 q 524 799 455 799 q 595 879 595 799 q 524 961 595 961 "},"ý":{"ha":787,"x_min":94,"x_max":690,"o":"m 224 248 l 224 611 q 205 679 224 653 q 158 705 187 705 q 112 679 130 705 q 94 611 94 652 l 94 245 q 313 32 94 32 l 467 32 q 559 -47 559 32 q 467 -132 559 -132 l 146 -132 q 117 -158 117 -132 q 172 -226 117 -196 q 296 -256 227 -256 l 467 -256 q 690 -37 690 -256 l 690 611 q 672 679 690 652 q 625 705 654 705 q 579 680 597 705 q 561 611 561 654 l 561 248 q 471 154 561 154 l 314 154 q 224 248 224 154 m 532 904 l 574 946 q 602 1004 602 972 q 585 1045 602 1029 q 542 1061 568 1061 q 481 1029 505 1061 l 342 840 q 323 800 323 818 q 354 774 323 774 q 532 904 404 774 "},"þ":{"ha":786,"x_min":97,"x_max":704,"o":"m 227 775 l 227 846 q 199 941 227 904 q 143 978 171 978 q 97 900 97 978 l 97 -161 q 163 -256 97 -256 q 209 -229 192 -256 q 227 -161 227 -202 l 227 -69 q 240 -16 227 -32 q 293 0 254 0 l 468 0 q 704 232 704 0 l 704 492 q 488 705 704 705 l 293 705 q 240 721 254 705 q 227 775 227 737 m 575 490 l 575 233 q 465 122 575 122 l 296 122 q 241 139 255 122 q 227 193 227 155 l 227 517 q 240 570 227 556 q 292 583 254 583 l 485 583 q 575 490 575 583 "},"ÿ":{"ha":787,"x_min":94,"x_max":690,"o":"m 224 248 l 224 611 q 205 679 224 653 q 158 705 187 705 q 112 679 130 705 q 94 611 94 652 l 94 245 q 313 32 94 32 l 467 32 q 559 -47 559 32 q 467 -132 559 -132 l 146 -132 q 117 -158 117 -132 q 172 -226 117 -196 q 296 -256 227 -256 l 467 -256 q 690 -37 690 -256 l 690 611 q 672 679 690 652 q 625 705 654 705 q 579 680 597 705 q 561 611 561 654 l 561 248 q 471 154 561 154 l 314 154 q 224 248 224 154 m 261 961 q 191 879 191 961 q 261 799 191 799 q 311 819 290 799 q 332 879 332 840 q 311 940 332 920 q 261 961 290 961 m 524 961 q 455 879 455 961 q 524 799 455 799 q 595 879 595 799 q 524 961 595 961 "},"ı":{"ha":323,"x_min":97,"x_max":227,"o":"m 227 87 l 227 611 q 209 679 227 652 q 163 705 191 705 q 115 680 134 705 q 97 611 97 655 l 97 87 q 163 -7 97 -7 q 209 20 192 -7 q 227 87 227 47 "},"Ł":{"ha":679,"x_min":0,"x_max":665,"o":"m 103 292 l 103 94 q 189 0 103 0 l 509 0 q 620 28 574 0 q 665 97 665 57 q 635 123 665 123 l 328 123 q 252 145 273 123 q 232 221 232 168 l 232 404 l 401 553 q 446 619 446 590 q 396 672 446 672 q 326 640 362 672 l 232 557 l 232 886 q 184 965 232 965 q 129 928 155 965 q 103 833 103 890 l 103 444 l 54 403 q 0 319 0 354 q 16 281 0 298 q 49 265 32 265 q 103 292 69 265 "},"ł":{"ha":323,"x_min":-7,"x_max":334,"o":"m 227 596 l 227 846 q 199 941 227 904 q 143 978 171 978 q 97 900 97 978 l 97 484 l 47 440 q -7 357 -7 393 q 9 318 -7 334 q 41 302 25 302 q 97 330 65 302 l 97 87 q 163 -7 97 -7 q 209 20 192 -7 q 227 87 227 47 l 227 443 l 289 498 q 334 566 334 536 q 283 618 334 618 q 227 596 255 618 "},"Œ":{"ha":1275,"x_min":92,"x_max":1247,"o":"m 895 842 l 1089 842 q 1200 870 1155 842 q 1246 937 1246 899 q 1215 965 1246 965 l 328 965 q 92 739 92 965 l 92 227 q 152 59 92 117 q 328 0 212 0 l 1090 0 q 1201 29 1156 0 q 1247 97 1247 58 q 1217 123 1247 123 l 895 123 q 819 145 840 123 q 799 221 799 168 l 799 340 q 819 415 799 393 q 895 437 840 437 l 1044 437 q 1134 466 1098 437 q 1171 534 1171 494 q 1140 559 1171 559 l 895 559 q 819 582 840 559 q 799 657 799 604 l 799 745 q 819 820 799 798 q 895 842 840 842 m 224 228 l 224 737 q 334 844 224 844 l 558 844 q 668 737 668 844 l 668 216 q 558 123 668 123 l 334 123 q 224 228 224 123 "},"œ":{"ha":1282,"x_min":82,"x_max":1203,"o":"m 1146 117 l 811 117 q 717 203 717 117 q 810 296 717 296 l 1065 296 q 1171 328 1139 296 q 1203 429 1203 360 l 1203 500 q 977 705 1203 705 l 810 705 q 666 653 718 705 q 652 643 656 643 q 638 653 648 643 q 498 705 587 705 l 298 705 q 82 492 82 705 l 82 207 q 298 -7 82 -7 l 498 -7 q 635 45 583 -7 q 650 54 644 54 q 664 45 654 54 q 811 -7 717 -7 l 996 -7 q 1119 22 1062 -7 q 1177 89 1177 51 q 1146 117 1177 117 m 211 208 l 211 490 q 301 583 211 583 l 496 583 q 586 490 586 583 l 586 208 q 496 117 586 117 l 301 117 q 211 208 211 117 m 983 418 l 810 418 q 717 500 717 418 q 810 583 717 583 l 983 583 q 1071 500 1071 583 q 983 418 1071 418 "},"Š":{"ha":749,"x_min":45,"x_max":697,"o":"m 410 122 l 224 122 q 100 93 156 122 q 45 25 45 63 q 75 0 45 0 l 414 0 q 622 75 547 0 q 697 292 697 151 q 422 551 697 551 l 322 551 q 189 696 189 551 q 229 804 189 766 q 339 842 269 842 l 496 842 q 619 871 564 842 q 675 937 675 901 q 646 965 675 965 l 339 965 q 134 893 211 965 q 57 694 57 821 q 319 428 57 428 l 414 428 q 529 394 494 428 q 564 288 564 359 q 523 164 564 207 q 410 122 481 122 m 187 1249 l 313 1076 q 375 1034 344 1034 q 436 1076 405 1034 l 562 1249 q 581 1289 581 1274 q 550 1315 581 1315 q 489 1287 524 1315 q 398 1207 454 1259 q 375 1192 382 1192 q 353 1206 367 1192 q 199 1315 239 1315 q 169 1289 169 1315 q 187 1249 169 1274 "},"š":{"ha":745,"x_min":66,"x_max":675,"o":"m 454 123 l 248 123 q 122 94 178 123 q 66 26 66 64 q 97 0 66 0 l 449 0 q 616 56 558 0 q 675 215 675 111 q 449 421 675 421 l 296 421 q 208 500 208 421 q 296 583 208 583 l 478 583 q 602 612 547 583 q 657 679 657 642 q 628 705 657 705 l 301 705 q 136 651 196 705 q 75 498 75 597 q 301 298 75 298 l 454 298 q 541 212 541 298 q 454 123 541 123 m 180 989 l 307 817 q 368 774 337 774 q 429 817 398 774 l 555 989 q 574 1029 574 1015 q 543 1055 574 1055 q 482 1027 517 1055 q 391 947 447 1000 q 368 932 376 932 q 346 946 360 932 q 193 1055 233 1055 q 162 1029 162 1055 q 180 989 162 1014 "},"Ÿ":{"ha":697,"x_min":12,"x_max":685,"o":"m 414 87 l 414 304 q 431 375 414 341 l 671 852 q 685 909 685 881 q 669 948 685 931 q 628 965 654 965 q 551 895 586 965 l 390 564 q 349 515 366 515 q 309 564 332 515 l 149 896 q 71 965 115 965 q 28 947 45 965 q 12 908 12 930 q 26 850 12 878 l 265 375 q 283 307 283 340 l 283 87 q 349 -7 283 -7 q 414 87 414 -7 m 216 1221 q 146 1139 146 1221 q 216 1059 146 1059 q 266 1079 245 1059 q 286 1139 286 1099 q 266 1200 286 1179 q 216 1221 245 1221 m 478 1221 q 410 1139 410 1221 q 478 1059 410 1059 q 550 1139 550 1059 q 478 1221 550 1221 "},"Ž":{"ha":721,"x_min":25,"x_max":679,"o":"m 81 0 l 525 0 q 635 28 591 0 q 679 96 679 56 q 647 122 679 122 l 265 122 q 225 144 225 122 q 243 184 225 156 l 647 840 q 676 913 676 893 q 658 951 676 938 q 616 965 640 965 l 220 965 q 110 936 154 965 q 65 868 65 906 q 96 842 65 842 l 435 842 q 475 817 475 842 q 461 779 475 801 l 56 125 q 25 54 25 75 q 41 16 25 31 q 81 0 57 0 m 184 1249 l 311 1076 q 372 1034 341 1034 q 433 1076 402 1034 l 559 1249 q 578 1289 578 1274 q 547 1315 578 1315 q 486 1287 522 1315 q 395 1207 451 1259 q 372 1192 380 1192 q 350 1206 364 1192 q 197 1315 237 1315 q 166 1289 166 1315 q 184 1249 166 1274 "},"ž":{"ha":693,"x_min":35,"x_max":639,"o":"m 89 0 l 458 0 q 584 29 528 0 q 639 96 639 58 q 608 122 639 122 l 296 122 q 256 147 256 122 q 273 184 256 162 l 589 583 q 618 650 618 621 q 600 689 618 672 q 559 705 581 705 l 232 705 q 109 676 164 705 q 53 608 53 646 q 83 583 53 583 l 355 583 q 396 554 396 583 q 382 521 396 538 l 65 123 q 35 56 35 87 q 50 16 35 33 q 89 0 65 0 m 161 989 l 288 817 q 349 774 318 774 q 410 817 379 774 l 536 989 q 555 1029 555 1015 q 524 1055 555 1055 q 463 1027 498 1055 q 372 947 428 1000 q 349 932 357 932 q 327 946 341 932 q 174 1055 214 1055 q 143 1029 143 1055 q 161 989 143 1014 "},"ƒ":{"ha":431,"x_min":16,"x_max":486,"o":"m 248 -161 l 248 549 q 279 583 248 583 q 370 612 334 583 q 406 679 406 640 q 375 705 406 705 l 278 705 q 248 741 248 705 l 248 762 q 267 827 248 807 q 328 854 286 848 q 451 898 416 869 q 486 950 486 926 q 456 978 486 978 l 336 978 q 118 764 118 978 l 118 755 q 112 724 118 734 q 85 710 106 713 q 16 644 16 699 q 85 583 16 583 q 118 549 118 583 l 118 -161 q 183 -256 118 -256 q 230 -230 212 -256 q 248 -161 248 -203 "},"ˆ":{"ha":550,"x_min":69,"x_max":481,"o":"m 463 840 l 336 1013 q 275 1055 306 1055 q 214 1013 245 1055 l 87 840 q 69 800 69 814 q 100 774 69 774 q 161 802 125 774 q 252 882 196 829 q 275 897 267 897 q 297 884 283 897 q 450 774 410 774 q 481 800 481 774 q 463 840 481 815 "},"ˇ":{"ha":550,"x_min":69,"x_max":481,"o":"m 87 989 l 214 817 q 275 774 244 774 q 336 817 305 774 l 463 989 q 481 1029 481 1015 q 450 1055 481 1055 q 389 1027 425 1055 q 298 947 354 1000 q 275 932 283 932 q 253 946 267 932 q 100 1055 140 1055 q 69 1029 69 1055 q 87 989 69 1014 "},"˘":{"ha":572,"x_min":56,"x_max":517,"o":"m 492 1011 q 456 987 473 1011 q 286 905 387 905 q 117 987 182 905 q 81 1011 97 1011 q 56 979 56 1011 q 120 845 56 899 q 285 791 184 791 q 449 847 382 791 q 517 979 517 903 q 492 1011 517 1011 "},"˙":{"ha":290,"x_min":82,"x_max":208,"o":"m 144 978 q 82 892 82 978 q 144 807 82 807 q 189 828 170 807 q 208 892 208 850 q 189 956 208 935 q 144 978 170 978 "},"˚":{"ha":469,"x_min":82,"x_max":387,"o":"m 82 917 q 235 774 82 774 q 387 917 387 774 q 235 1061 387 1061 q 82 917 82 1061 m 296 917 q 235 857 296 857 q 174 917 174 857 q 235 978 174 978 q 296 917 296 978 "},"˛":{"ha":469,"x_min":97,"x_max":351,"o":"m 203 14 q 97 -140 97 -54 q 244 -278 97 -278 q 320 -259 290 -278 q 351 -207 351 -239 q 330 -191 351 -191 l 262 -191 q 197 -129 197 -191 q 258 -35 197 -80 l 323 14 l 203 14 "},"˜":{"ha":607,"x_min":69,"x_max":538,"o":"m 195 856 q 283 827 223 856 q 411 791 361 791 q 499 834 460 791 q 538 925 538 877 q 514 964 538 964 q 486 946 499 964 q 414 899 449 899 q 315 932 389 899 q 196 964 249 964 q 108 920 147 964 q 69 829 69 876 q 93 791 69 791 q 122 808 110 791 q 195 856 159 856 "},"˝":{"ha":581,"x_min":69,"x_max":567,"o":"m 261 904 l 300 946 q 325 1004 325 975 q 271 1063 325 1063 q 214 1031 235 1063 l 87 840 q 69 800 69 818 q 97 774 69 774 q 261 904 141 774 m 486 882 l 532 917 q 567 979 567 942 q 552 1019 567 1002 q 513 1036 536 1036 q 460 1013 481 1036 l 306 842 q 282 799 282 816 q 311 774 282 774 q 486 882 347 774 "},"–":{"ha":794,"x_min":69,"x_max":717,"o":"m 686 418 l 196 418 q 105 390 142 418 q 69 322 69 361 q 100 296 69 296 l 590 296 q 681 324 644 296 q 717 392 717 353 q 686 418 717 418 "},"—":{"ha":1284,"x_min":69,"x_max":1207,"o":"m 1177 418 l 196 418 q 105 390 142 418 q 69 322 69 361 q 100 296 69 296 l 1080 296 q 1171 324 1135 296 q 1207 392 1207 353 q 1177 418 1207 418 "},"‘":{"ha":300,"x_min":61,"x_max":244,"o":"m 210 1021 q 113 898 165 1021 q 61 707 61 775 q 79 654 61 674 q 126 633 97 633 q 197 715 189 633 q 240 961 211 858 q 244 986 244 976 q 210 1021 244 1021 "},"’":{"ha":300,"x_min":56,"x_max":239,"o":"m 90 633 q 188 756 136 633 q 239 947 239 879 q 221 1000 239 980 q 174 1021 203 1021 q 103 939 112 1021 q 60 693 87 785 q 56 668 56 678 q 90 633 56 633 "},"‚":{"ha":300,"x_min":35,"x_max":218,"o":"m 70 -201 q 167 -78 116 -201 q 218 113 218 45 q 200 166 218 146 q 153 186 182 186 q 83 104 92 186 q 39 -141 66 -49 q 35 -166 35 -156 q 70 -201 35 -201 "},"“":{"ha":526,"x_min":58,"x_max":471,"o":"m 436 1021 q 340 893 388 1021 q 292 697 292 765 q 309 644 292 665 q 355 624 326 624 q 424 705 416 624 q 467 961 437 863 q 471 986 471 976 q 436 1021 471 1021 m 203 1021 q 106 893 155 1021 q 58 697 58 765 q 76 644 58 665 q 122 624 93 624 q 191 705 183 624 q 233 961 204 863 q 237 986 237 976 q 203 1021 237 1021 "},"”":{"ha":526,"x_min":56,"x_max":468,"o":"m 90 624 q 186 751 138 624 q 235 947 235 878 q 217 1000 235 980 q 171 1021 200 1021 q 103 939 111 1021 q 60 684 87 777 q 56 659 56 668 q 90 624 56 624 m 323 624 q 420 751 372 624 q 468 947 468 878 q 451 1000 468 980 q 404 1021 433 1021 q 336 939 344 1021 q 293 684 321 777 q 289 659 289 668 q 323 624 289 624 "},"„":{"ha":526,"x_min":35,"x_max":448,"o":"m 70 -210 q 166 -83 118 -210 q 214 113 214 43 q 197 166 214 146 q 151 186 180 186 q 83 104 90 186 q 39 -151 67 -57 q 35 -176 35 -166 q 70 -210 35 -210 m 303 -210 q 399 -83 351 -210 q 448 113 448 43 q 430 166 448 146 q 384 186 413 186 q 316 104 323 186 q 273 -151 300 -57 q 269 -176 269 -166 q 303 -210 269 -210 "},"†":{"ha":765,"x_min":77,"x_max":689,"o":"m 318 900 l 318 741 q 286 705 318 705 l 197 705 q 111 677 146 705 q 77 610 77 650 q 107 583 77 583 l 288 583 q 318 549 318 583 l 318 -86 q 383 -180 318 -180 q 430 -154 412 -180 q 447 -86 447 -127 l 447 549 q 479 583 447 583 l 568 583 q 654 611 619 583 q 689 679 689 640 q 659 705 689 705 l 478 705 q 447 741 447 705 l 447 846 q 419 940 447 902 q 363 978 391 978 q 318 900 318 978 "},"‡":{"ha":765,"x_min":77,"x_max":689,"o":"m 318 549 l 318 397 q 286 363 318 363 l 197 363 q 111 334 145 363 q 77 267 77 306 q 107 240 77 240 l 288 240 q 318 205 318 240 l 318 -86 q 383 -180 318 -180 q 430 -154 412 -180 q 447 -86 447 -127 l 447 205 q 479 240 447 240 l 568 240 q 654 268 618 240 q 689 336 689 296 q 659 363 689 363 l 478 363 q 447 397 447 363 l 447 549 q 479 583 447 583 l 568 583 q 654 611 619 583 q 689 679 689 640 q 659 705 689 705 l 478 705 q 447 741 447 705 l 447 846 q 419 940 447 902 q 363 978 391 978 q 318 900 318 978 l 318 741 q 286 705 318 705 l 197 705 q 111 677 146 705 q 77 610 77 650 q 107 583 77 583 l 288 583 q 318 549 318 583 "},"•":{"ha":575,"x_min":134,"x_max":441,"o":"m 286 633 q 174 593 215 633 q 134 478 134 552 q 174 366 134 406 q 286 325 214 325 q 398 366 355 325 q 441 478 441 407 q 398 592 441 551 q 286 633 354 633 "},"…":{"ha":925,"x_min":69,"x_max":854,"o":"m 153 161 q 69 77 69 161 q 153 -7 69 -7 q 214 16 191 -7 q 237 77 237 38 q 214 138 237 115 q 153 161 191 161 m 461 161 q 378 77 378 161 q 461 -7 378 -7 q 523 16 499 -7 q 546 77 546 38 q 523 138 546 115 q 461 161 500 161 m 769 161 q 686 77 686 161 q 769 -7 686 -7 q 830 16 807 -7 q 854 77 854 38 q 831 138 854 115 q 769 161 808 161 "},"‰":{"ha":1850,"x_min":82,"x_max":1768,"o":"m 760 859 l 390 24 q 375 -32 375 -9 q 427 -83 375 -83 q 498 -14 468 -83 l 884 859 q 897 914 897 888 q 846 965 897 965 l 298 965 q 82 751 82 965 l 82 633 q 298 419 82 419 l 346 419 q 564 633 564 419 l 564 751 q 545 859 564 813 l 760 859 m 300 859 l 345 859 q 439 761 439 859 l 439 624 q 345 528 439 528 l 300 528 q 204 624 204 528 l 204 761 q 300 859 204 859 m 960 0 l 1007 0 q 1225 214 1225 0 l 1225 332 q 1007 546 1225 546 l 960 546 q 743 332 743 546 l 743 214 q 960 0 743 0 m 865 204 l 865 342 q 961 439 865 439 l 1006 439 q 1100 342 1100 439 l 1100 204 q 1006 109 1100 109 l 961 109 q 865 204 865 109 m 1503 0 l 1550 0 q 1768 214 1768 0 l 1768 332 q 1550 546 1768 546 l 1503 546 q 1286 332 1286 546 l 1286 214 q 1503 0 1286 0 m 1409 204 l 1409 342 q 1504 439 1409 439 l 1549 439 q 1643 342 1643 439 l 1643 204 q 1549 109 1643 109 l 1504 109 q 1409 204 1409 109 "},"‹":{"ha":510,"x_min":62,"x_max":447,"o":"m 396 171 l 224 317 q 197 353 197 338 q 224 389 197 367 l 396 532 q 447 614 447 574 q 431 652 447 636 q 399 668 415 668 q 345 642 375 668 l 100 428 q 62 350 62 393 q 100 272 62 304 l 345 61 q 399 35 375 35 q 431 51 415 35 q 447 89 447 66 q 396 171 447 128 "},"›":{"ha":510,"x_min":62,"x_max":447,"o":"m 286 317 l 114 171 q 62 89 62 127 q 78 51 62 67 q 111 35 94 35 q 165 61 135 35 l 410 272 q 447 350 447 305 q 410 428 447 395 l 165 642 q 111 668 135 668 q 78 652 94 668 q 62 614 62 635 q 114 532 62 574 l 286 389 q 313 353 313 367 q 286 317 313 339 "},"⁄":{"ha":241,"x_min":-235,"x_max":476,"o":"m 367 954 l -211 43 q -235 -12 -235 12 q -186 -57 -235 -57 q -121 -5 -153 -57 l 456 907 q 476 961 476 939 q 431 1007 476 1007 q 367 954 400 1007 "},"⁴":{"ha":555,"x_min":45,"x_max":488,"o":"m 374 561 l 374 449 q 419 389 374 389 q 465 414 443 389 q 488 479 488 440 l 488 908 q 431 978 488 978 q 374 908 374 978 l 374 745 q 329 703 374 703 l 211 703 q 157 753 157 703 l 157 918 q 113 978 157 978 q 66 952 87 978 q 45 888 45 927 l 45 751 q 201 602 45 602 l 329 602 q 363 594 352 602 q 374 561 374 587 "},"€":{"ha":833,"x_min":28,"x_max":764,"o":"m 168 652 l 154 652 q 64 623 100 652 q 28 555 28 594 q 58 529 28 529 l 168 529 l 168 432 l 154 432 q 64 403 100 432 q 28 336 28 374 q 58 310 28 310 l 168 310 l 168 207 q 385 -7 168 -7 l 585 -7 q 708 23 652 -7 q 764 89 764 53 q 733 117 764 117 l 387 117 q 297 208 297 117 l 297 310 l 494 310 q 584 337 547 310 q 621 406 621 365 q 590 432 621 432 l 297 432 l 297 529 l 541 529 q 630 557 594 529 q 667 625 667 586 q 636 652 667 652 l 297 652 l 297 749 q 387 842 297 842 l 733 842 q 764 867 764 842 q 708 935 764 904 q 585 965 653 965 l 385 965 q 168 750 168 965 l 168 652 "},"™":{"ha":832,"x_min":0,"x_max":772,"o":"m 684 929 l 579 747 q 559 729 568 729 q 542 747 552 729 l 439 929 q 390 965 418 965 q 350 922 350 965 l 350 631 q 390 579 350 579 q 431 631 431 579 l 431 793 l 519 633 q 561 606 534 606 q 602 633 586 606 l 692 796 l 692 631 q 732 579 692 579 q 772 631 772 579 l 772 921 q 732 965 772 965 q 684 929 704 965 m 117 850 l 117 633 q 160 579 117 579 q 201 633 201 579 l 201 850 q 248 890 201 890 l 256 890 q 301 910 283 890 q 319 956 319 930 q 304 965 319 965 l 60 965 q 0 900 0 965 q 11 890 0 890 l 74 890 q 117 850 117 890 "},"∂":{"ha":771,"x_min":82,"x_max":689,"o":"m 82 397 l 82 227 q 319 -7 82 -7 l 452 -7 q 689 227 689 -7 l 689 720 q 458 965 689 965 l 322 965 q 199 936 254 965 q 143 868 143 906 q 172 842 143 842 l 458 842 q 559 746 559 842 q 458 652 559 652 l 318 652 q 82 397 82 652 m 212 228 l 212 406 q 321 529 212 529 l 469 529 q 559 406 559 529 l 559 228 q 450 117 559 117 l 321 117 q 212 228 212 117 "},"∏":{"ha":901,"x_min":102,"x_max":800,"o":"m 328 917 l 574 917 q 649 895 628 917 q 669 819 669 873 l 669 -86 q 734 -180 669 -180 q 800 -86 800 -180 l 800 936 q 782 1015 800 989 q 717 1040 764 1040 l 184 1040 q 120 1015 138 1040 q 102 936 102 989 l 102 -86 q 167 -180 102 -180 q 232 -86 232 -180 l 232 819 q 253 895 232 873 q 328 917 273 917 "},"∑":{"ha":768,"x_min":28,"x_max":741,"o":"m 309 917 l 559 917 q 671 945 625 917 q 717 1013 717 973 q 686 1040 717 1040 l 106 1040 q 41 991 41 1040 q 56 946 41 970 l 328 481 q 342 441 342 456 q 328 404 342 429 l 41 -86 q 28 -132 28 -112 q 93 -180 28 -180 l 583 -180 q 694 -152 648 -180 q 741 -83 741 -123 q 710 -57 741 -57 l 290 -57 q 236 -28 236 -57 q 264 40 236 -8 l 481 415 q 496 453 496 441 q 482 486 496 463 l 283 819 q 256 888 256 863 q 309 917 256 917 "},"−":{"ha":833,"x_min":69,"x_max":755,"o":"m 100 310 l 629 310 q 719 338 682 310 q 755 406 755 366 q 725 432 755 432 l 196 432 q 105 403 141 432 q 69 336 69 374 q 100 310 69 310 "},"√":{"ha":692,"x_min":69,"x_max":664,"o":"m 542 1008 l 335 302 q 300 239 315 239 q 260 302 283 239 l 195 478 q 127 547 170 547 q 85 530 102 547 q 69 492 69 513 q 83 435 69 471 l 232 56 q 304 -12 262 -12 q 375 56 355 -12 l 654 972 q 664 1028 664 1001 q 607 1078 664 1078 q 542 1008 562 1078 "},"∞":{"ha":933,"x_min":82,"x_max":851,"o":"m 686 599 l 581 599 q 479 559 519 599 q 467 551 471 551 q 454 559 462 551 q 353 599 414 599 l 248 599 q 82 439 82 599 l 82 302 q 248 144 82 144 l 353 144 q 454 186 415 144 q 467 193 462 193 q 479 186 471 193 q 581 144 518 144 l 686 144 q 851 302 851 144 l 851 439 q 686 599 851 599 m 737 439 l 737 304 q 679 249 737 249 l 582 249 q 524 304 524 249 l 524 439 q 582 494 524 494 l 679 494 q 737 439 737 494 m 196 304 l 196 439 q 254 494 196 494 l 351 494 q 410 439 410 494 l 410 304 q 351 249 410 249 l 254 249 q 196 304 196 249 "},"∫":{"ha":433,"x_min":-28,"x_max":433,"o":"m 135 827 l 135 43 q 79 -57 135 -40 q -28 -153 -28 -88 q 3 -180 -28 -180 l 56 -180 q 264 41 264 -180 l 264 825 q 276 890 264 871 q 319 917 289 909 q 433 1013 433 949 q 403 1040 433 1040 l 336 1040 q 135 827 135 1040 "},"≈":{"ha":833,"x_min":74,"x_max":760,"o":"m 252 500 q 309 493 282 500 q 448 450 335 487 q 579 428 515 428 q 705 476 650 428 q 760 579 760 524 q 732 623 760 623 q 696 603 715 623 q 582 550 641 550 q 432 585 534 550 q 254 623 318 623 q 129 574 183 623 q 74 471 74 526 q 102 428 74 428 q 138 447 117 428 q 252 500 193 500 m 252 210 q 309 203 282 210 q 448 160 335 197 q 579 138 515 138 q 705 185 650 138 q 760 289 760 233 q 732 332 760 332 q 696 313 715 332 q 582 260 641 260 q 432 294 534 260 q 254 332 320 332 q 128 283 182 332 q 74 180 74 235 q 102 138 74 138 q 138 157 117 138 q 252 210 193 210 "},"≠":{"ha":833,"x_min":69,"x_max":755,"o":"m 368 165 l 629 165 q 719 193 682 165 q 755 261 755 221 q 725 288 755 288 l 433 288 l 522 454 l 629 454 q 719 482 682 454 q 755 550 755 510 q 725 576 755 576 l 587 576 l 669 728 q 681 770 681 749 q 668 799 681 786 q 631 812 654 812 q 566 757 595 812 l 468 576 l 196 576 q 105 548 141 576 q 69 481 69 519 q 100 454 69 454 l 403 454 l 313 288 l 196 288 q 105 259 141 288 q 69 192 69 230 q 100 165 69 165 l 248 165 l 168 18 q 155 -24 155 -3 q 205 -68 155 -68 q 273 -12 243 -68 l 368 165 "},"≤":{"ha":833,"x_min":69,"x_max":758,"o":"m 646 810 l 135 588 q 74 510 74 562 q 135 432 74 458 l 646 210 q 707 195 680 195 q 743 209 728 195 q 758 248 758 224 q 689 322 758 293 l 325 477 q 273 513 273 498 q 325 549 273 528 l 689 699 q 758 774 758 728 q 743 811 758 798 q 707 825 728 825 q 646 810 682 825 m 100 1 l 629 1 q 719 28 682 1 q 755 96 755 56 q 725 123 755 123 l 196 123 q 105 94 141 123 q 69 27 69 65 q 100 1 69 1 "},"≥":{"ha":833,"x_min":69,"x_max":760,"o":"m 187 210 l 699 432 q 760 510 760 459 q 699 588 760 562 l 187 810 q 126 825 155 825 q 90 811 105 825 q 75 772 75 796 q 144 697 75 726 l 509 543 q 559 507 559 522 q 509 471 559 492 l 144 321 q 75 246 75 292 q 126 195 75 195 q 187 210 153 195 m 100 1 l 629 1 q 719 28 682 1 q 755 96 755 56 q 725 123 755 123 l 196 123 q 105 94 141 123 q 69 27 69 65 q 100 1 69 1 "},"◊":{"ha":791,"x_min":69,"x_max":722,"o":"m 469 905 q 452 933 460 920 q 396 974 428 974 q 339 933 363 974 q 322 905 332 922 l 96 547 q 69 481 69 503 q 96 414 69 456 l 322 56 q 396 -12 366 -12 q 469 56 427 -12 l 696 414 q 722 481 722 455 q 696 547 722 505 l 469 905 m 347 729 q 396 782 380 782 q 444 729 411 782 l 585 505 q 593 481 593 493 q 585 456 593 469 l 443 236 q 396 187 412 187 q 349 236 380 187 l 207 456 q 199 481 199 467 q 207 505 199 492 l 347 729 "},"ﬁ":{"ha":741,"x_min":16,"x_max":646,"o":"m 248 87 l 248 549 q 279 583 248 583 q 370 612 334 583 q 406 679 406 640 q 375 705 406 705 l 278 705 q 248 741 248 705 l 248 762 q 267 827 248 807 q 328 854 286 848 q 451 898 416 869 q 486 950 486 926 q 456 978 486 978 l 336 978 q 118 764 118 978 l 118 755 q 112 724 118 734 q 85 710 106 713 q 16 644 16 699 q 85 583 16 583 q 118 549 118 583 l 118 87 q 183 -7 118 -7 q 230 20 213 -7 q 248 87 248 47 m 582 978 q 519 892 519 978 q 582 807 519 807 q 627 828 608 807 q 646 892 646 850 q 627 956 646 935 q 582 978 608 978 m 643 87 l 643 611 q 625 679 643 652 q 579 705 608 705 q 532 680 550 705 q 513 611 513 655 l 513 87 q 579 -7 513 -7 q 626 20 608 -7 q 643 87 643 47 "},"ﬂ":{"ha":741,"x_min":16,"x_max":643,"o":"m 248 87 l 248 549 q 279 583 248 583 q 370 612 334 583 q 406 679 406 640 q 375 705 406 705 l 278 705 q 248 741 248 705 l 248 762 q 267 827 248 807 q 328 854 286 848 q 451 898 416 869 q 486 950 486 926 q 456 978 486 978 l 336 978 q 118 764 118 978 l 118 755 q 112 724 118 734 q 85 710 106 713 q 16 644 16 699 q 85 583 16 583 q 118 549 118 583 l 118 87 q 183 -7 118 -7 q 230 20 213 -7 q 248 87 248 47 m 643 87 l 643 846 q 615 941 643 904 q 559 978 587 978 q 513 900 513 978 l 513 87 q 579 -7 513 -7 q 626 20 608 -7 q 643 87 643 47 "},"Ā":{"ha":871,"x_min":100,"x_max":771,"o":"m 100 732 l 100 87 q 165 -7 100 -7 q 232 87 232 -7 l 232 290 q 253 366 232 345 q 328 387 274 387 l 543 387 q 618 367 597 387 q 639 290 639 346 l 639 87 q 704 -7 639 -7 q 771 87 771 -7 l 771 732 q 709 904 771 843 q 534 965 647 965 l 336 965 q 162 904 225 965 q 100 732 100 843 m 639 730 l 639 607 q 618 532 639 553 q 543 510 597 510 l 328 510 q 253 531 274 510 q 232 607 232 552 l 232 730 q 342 842 232 842 l 529 842 q 639 730 639 842 m 606 1193 l 360 1193 q 268 1165 303 1193 q 233 1100 233 1137 q 264 1074 233 1074 l 510 1074 q 600 1101 564 1074 q 636 1166 636 1128 q 606 1193 636 1193 "},"ā":{"ha":766,"x_min":56,"x_max":685,"o":"m 147 583 l 460 583 q 554 504 554 583 q 461 418 554 418 l 282 418 q 56 203 56 418 q 282 -7 56 -7 l 463 -7 q 685 207 685 -7 l 685 488 q 460 705 685 705 l 296 705 q 172 676 228 705 q 117 608 117 646 q 147 583 117 583 m 278 296 l 461 296 q 554 205 554 296 q 461 117 554 117 l 278 117 q 191 205 191 117 q 278 296 191 296 m 562 933 l 317 933 q 225 905 260 933 q 190 840 190 878 q 220 814 190 814 l 467 814 q 556 841 520 814 q 593 907 593 868 q 562 933 593 933 "},"Ă":{"ha":871,"x_min":100,"x_max":771,"o":"m 100 732 l 100 87 q 165 -7 100 -7 q 232 87 232 -7 l 232 290 q 253 366 232 345 q 328 387 274 387 l 543 387 q 618 367 597 387 q 639 290 639 346 l 639 87 q 704 -7 639 -7 q 771 87 771 -7 l 771 732 q 709 904 771 843 q 534 965 647 965 l 336 965 q 162 904 225 965 q 100 732 100 843 m 639 730 l 639 607 q 618 532 639 553 q 543 510 597 510 l 328 510 q 253 531 274 510 q 232 607 232 552 l 232 730 q 342 842 232 842 l 529 842 q 639 730 639 842 m 640 1271 q 604 1247 622 1271 q 435 1165 536 1165 q 265 1247 330 1165 q 229 1271 245 1271 q 204 1239 204 1271 q 269 1105 204 1159 q 433 1051 333 1051 q 598 1107 530 1051 q 665 1239 665 1163 q 640 1271 665 1271 "},"ă":{"ha":766,"x_min":56,"x_max":685,"o":"m 147 583 l 460 583 q 554 504 554 583 q 461 418 554 418 l 282 418 q 56 203 56 418 q 282 -7 56 -7 l 463 -7 q 685 207 685 -7 l 685 488 q 460 705 685 705 l 296 705 q 172 676 228 705 q 117 608 117 646 q 147 583 117 583 m 278 296 l 461 296 q 554 205 554 296 q 461 117 554 117 l 278 117 q 191 205 191 117 q 278 296 191 296 m 596 1011 q 560 987 578 1011 q 391 905 492 905 q 221 987 286 905 q 185 1011 201 1011 q 160 979 160 1011 q 224 845 160 899 q 389 791 289 791 q 554 847 486 791 q 621 979 621 903 q 596 1011 621 1011 "},"Ą":{"ha":871,"x_min":100,"x_max":781,"o":"m 100 732 l 100 87 q 165 -7 100 -7 q 232 87 232 -7 l 232 290 q 253 366 232 345 q 328 387 274 387 l 543 387 q 618 367 597 387 q 639 290 639 346 l 639 87 q 648 35 639 56 q 526 -140 526 -33 q 673 -278 526 -278 q 750 -258 720 -278 q 781 -207 781 -238 q 760 -191 781 -191 l 692 -191 q 627 -129 627 -191 q 732 -3 627 -69 q 771 87 771 22 l 771 732 q 709 904 771 843 q 534 965 647 965 l 336 965 q 162 904 225 965 q 100 732 100 843 m 639 730 l 639 607 q 618 532 639 553 q 543 510 597 510 l 328 510 q 253 531 274 510 q 232 607 232 552 l 232 730 q 342 842 232 842 l 529 842 q 639 730 639 842 "},"ą":{"ha":766,"x_min":56,"x_max":685,"o":"m 147 583 l 460 583 q 554 504 554 583 q 461 418 554 418 l 282 418 q 56 203 56 418 q 282 -7 56 -7 l 335 -7 q 264 -140 264 -59 q 411 -278 264 -278 q 488 -258 458 -278 q 518 -207 518 -238 q 497 -191 518 -191 l 429 -191 q 364 -129 364 -191 q 429 -31 364 -77 l 463 -7 q 685 207 685 -7 l 685 488 q 460 705 685 705 l 296 705 q 172 676 228 705 q 117 608 117 646 q 147 583 117 583 m 278 296 l 461 296 q 554 205 554 296 q 461 117 554 117 l 278 117 q 191 205 191 117 q 278 296 191 296 "},"Ć":{"ha":749,"x_min":92,"x_max":721,"o":"m 690 122 l 334 122 q 224 233 224 122 l 224 730 q 334 842 224 842 l 690 842 q 721 869 721 842 q 675 937 721 908 q 564 965 629 965 l 328 965 q 154 904 217 965 q 92 732 92 844 l 92 232 q 154 60 92 120 q 328 0 216 0 l 564 0 q 675 28 630 0 q 721 96 721 56 q 690 122 721 122 m 528 1164 l 570 1206 q 597 1264 597 1232 q 581 1305 597 1289 q 538 1321 564 1321 q 477 1289 500 1321 l 338 1100 q 319 1060 319 1078 q 350 1034 319 1034 q 528 1164 400 1034 "},"ć":{"ha":704,"x_min":82,"x_max":663,"o":"m 211 208 l 211 490 q 301 583 211 583 l 632 583 q 663 608 663 583 q 607 675 663 646 q 484 705 551 705 l 298 705 q 82 492 82 705 l 82 207 q 298 -7 82 -7 l 484 -7 q 607 23 551 -7 q 663 89 663 53 q 632 117 663 117 l 301 117 q 211 208 211 117 m 494 904 l 536 946 q 564 1004 564 972 q 547 1045 564 1029 q 504 1061 530 1061 q 443 1029 467 1061 l 304 840 q 286 800 286 818 q 316 774 286 774 q 494 904 366 774 "},"Ĉ":{"ha":749,"x_min":92,"x_max":721,"o":"m 690 122 l 334 122 q 224 233 224 122 l 224 730 q 334 842 224 842 l 690 842 q 721 869 721 842 q 675 937 721 908 q 564 965 629 965 l 328 965 q 154 904 217 965 q 92 732 92 844 l 92 232 q 154 60 92 120 q 328 0 216 0 l 564 0 q 675 28 630 0 q 721 96 721 56 q 690 122 721 122 m 593 1100 l 467 1272 q 406 1315 437 1315 q 345 1272 376 1315 l 218 1100 q 200 1060 200 1074 q 231 1034 200 1034 q 292 1061 256 1034 q 382 1141 327 1089 q 406 1157 398 1157 q 428 1143 414 1157 q 581 1034 541 1034 q 612 1060 612 1034 q 593 1100 612 1075 "},"ĉ":{"ha":704,"x_min":82,"x_max":663,"o":"m 211 208 l 211 490 q 301 583 211 583 l 632 583 q 663 608 663 583 q 607 675 663 646 q 484 705 551 705 l 298 705 q 82 492 82 705 l 82 207 q 298 -7 82 -7 l 484 -7 q 607 23 551 -7 q 663 89 663 53 q 632 117 663 117 l 301 117 q 211 208 211 117 m 559 840 l 433 1013 q 372 1055 403 1055 q 311 1013 342 1055 l 184 840 q 166 800 166 814 q 197 774 166 774 q 258 802 222 774 q 349 882 293 829 q 372 897 364 897 q 394 884 380 897 q 547 774 507 774 q 578 800 578 774 q 559 840 578 815 "},"Ċ":{"ha":749,"x_min":92,"x_max":721,"o":"m 690 122 l 334 122 q 224 233 224 122 l 224 730 q 334 842 224 842 l 690 842 q 721 869 721 842 q 675 937 721 908 q 564 965 629 965 l 328 965 q 154 904 217 965 q 92 732 92 844 l 92 232 q 154 60 92 120 q 328 0 216 0 l 564 0 q 675 28 630 0 q 721 96 721 56 q 690 122 721 122 m 404 1238 q 342 1152 342 1238 q 404 1067 342 1067 q 449 1088 430 1067 q 468 1152 468 1109 q 449 1216 468 1194 q 404 1238 430 1238 "},"ċ":{"ha":704,"x_min":82,"x_max":663,"o":"m 211 208 l 211 490 q 301 583 211 583 l 632 583 q 663 608 663 583 q 607 675 663 646 q 484 705 551 705 l 298 705 q 82 492 82 705 l 82 207 q 298 -7 82 -7 l 484 -7 q 607 23 551 -7 q 663 89 663 53 q 632 117 663 117 l 301 117 q 211 208 211 117 m 372 978 q 310 892 310 978 q 372 807 310 807 q 417 828 398 807 q 436 892 436 850 q 417 956 436 935 q 372 978 398 978 "},"Č":{"ha":749,"x_min":92,"x_max":721,"o":"m 690 122 l 334 122 q 224 233 224 122 l 224 730 q 334 842 224 842 l 690 842 q 721 869 721 842 q 675 937 721 908 q 564 965 629 965 l 328 965 q 154 904 217 965 q 92 732 92 844 l 92 232 q 154 60 92 120 q 328 0 216 0 l 564 0 q 675 28 630 0 q 721 96 721 56 q 690 122 721 122 m 216 1249 l 342 1076 q 404 1034 373 1034 q 465 1076 434 1034 l 591 1249 q 610 1289 610 1274 q 579 1315 610 1315 q 518 1287 553 1315 q 427 1207 483 1259 q 404 1192 412 1192 q 382 1206 396 1192 q 229 1315 269 1315 q 198 1289 198 1315 q 216 1249 198 1274 "},"č":{"ha":704,"x_min":82,"x_max":663,"o":"m 211 208 l 211 490 q 301 583 211 583 l 632 583 q 663 608 663 583 q 607 675 663 646 q 484 705 551 705 l 298 705 q 82 492 82 705 l 82 207 q 298 -7 82 -7 l 484 -7 q 607 23 551 -7 q 663 89 663 53 q 632 117 663 117 l 301 117 q 211 208 211 117 m 184 989 l 311 817 q 372 774 341 774 q 433 817 402 774 l 559 989 q 578 1029 578 1015 q 547 1055 578 1055 q 486 1027 522 1055 q 395 947 451 1000 q 372 932 380 932 q 350 946 364 932 q 197 1055 237 1055 q 166 1029 166 1055 q 184 989 166 1014 "},"Ď":{"ha":863,"x_min":4,"x_max":771,"o":"m 103 758 l 103 94 q 196 0 103 0 l 532 0 q 708 60 645 0 q 771 232 771 121 l 771 739 q 710 907 771 848 q 532 965 648 965 l 103 965 q 32 943 59 965 q 4 882 4 922 q 24 856 4 856 l 64 856 q 103 758 103 856 m 233 220 l 233 751 q 255 827 233 805 q 329 848 277 848 l 528 848 q 637 737 637 848 l 637 233 q 528 122 637 122 l 329 122 q 254 144 274 122 q 233 220 233 166 m 228 1249 l 354 1076 q 416 1034 385 1034 q 477 1076 446 1034 l 603 1249 q 621 1289 621 1274 q 591 1315 621 1315 q 530 1287 565 1315 q 439 1207 494 1259 q 416 1192 423 1192 q 393 1206 408 1192 q 240 1315 280 1315 q 210 1289 210 1315 q 228 1249 210 1274 "},"ď":{"ha":852,"x_min":82,"x_max":950,"o":"m 298 0 l 599 0 q 689 94 689 0 l 689 846 q 661 941 689 904 q 606 978 633 978 q 559 900 559 978 l 559 775 q 546 721 559 737 q 493 705 532 705 l 318 705 q 82 472 82 705 l 82 214 q 298 0 82 0 m 211 215 l 211 471 q 321 583 211 583 l 489 583 q 543 569 526 583 q 559 513 559 555 l 559 189 q 546 136 559 149 q 494 122 533 122 l 301 122 q 211 215 211 122 m 812 633 q 901 739 852 633 q 950 913 950 845 q 932 959 950 941 q 889 978 915 978 q 822 905 829 978 q 785 686 810 781 q 781 664 781 673 q 812 633 781 633 "},"Đ":{"ha":863,"x_min":1,"x_max":771,"o":"m 103 425 l 103 94 q 196 0 103 0 l 532 0 q 708 60 645 0 q 771 232 771 121 l 771 739 q 710 907 771 848 q 532 965 648 965 l 103 965 q 32 943 59 965 q 4 882 4 922 q 24 856 4 856 l 64 856 q 103 758 103 856 l 103 545 q 28 511 54 537 q 1 452 1 484 q 32 425 1 425 l 103 425 m 233 547 l 233 751 q 255 827 233 805 q 329 848 277 848 l 528 848 q 637 737 637 848 l 637 233 q 528 122 637 122 l 329 122 q 254 144 274 122 q 233 220 233 166 l 233 425 l 334 425 q 423 453 387 425 q 460 521 460 481 q 429 547 460 547 l 233 547 "},"đ":{"ha":786,"x_min":82,"x_max":798,"o":"m 298 0 l 599 0 q 689 94 689 0 l 689 777 q 765 805 732 777 q 798 869 798 833 q 766 896 798 896 l 689 896 q 661 985 689 949 q 606 1021 633 1021 q 559 943 559 1021 l 559 896 l 503 896 q 411 868 446 896 q 376 803 376 840 q 407 777 376 777 l 559 777 l 559 734 q 546 681 559 697 q 493 665 532 665 l 318 665 q 82 432 82 665 l 82 214 q 298 0 82 0 m 211 215 l 211 431 q 321 543 211 543 l 489 543 q 545 526 530 543 q 559 472 559 509 l 559 189 q 546 136 559 149 q 494 122 533 122 l 301 122 q 211 215 211 122 "},"Ē":{"ha":708,"x_min":102,"x_max":681,"o":"m 328 842 l 522 842 q 633 870 588 842 q 679 937 679 899 q 648 965 679 965 l 189 965 q 102 871 102 965 l 102 94 q 189 0 102 0 l 524 0 q 635 29 589 0 q 681 97 681 58 q 650 123 681 123 l 328 123 q 252 145 273 123 q 232 221 232 168 l 232 340 q 252 415 232 393 q 328 437 273 437 l 478 437 q 568 466 532 437 q 604 534 604 494 q 574 559 604 559 l 328 559 q 252 582 273 559 q 232 657 232 604 l 232 745 q 252 820 232 798 q 328 842 273 842 m 561 1193 l 315 1193 q 223 1165 258 1193 q 189 1100 189 1137 q 219 1074 189 1074 l 465 1074 q 555 1101 519 1074 q 591 1166 591 1128 q 561 1193 591 1193 "},"ē":{"ha":777,"x_min":82,"x_max":697,"o":"m 640 117 l 306 117 q 211 203 211 117 q 304 296 211 296 l 559 296 q 697 429 697 296 l 697 500 q 471 705 697 705 l 304 705 q 82 492 82 705 l 82 212 q 306 -7 82 -7 l 490 -7 q 614 22 557 -7 q 671 89 671 52 q 640 117 671 117 m 478 418 l 304 418 q 211 500 211 418 q 304 583 211 583 l 478 583 q 566 500 566 583 q 478 418 566 418 m 562 933 l 317 933 q 225 905 260 933 q 190 840 190 878 q 220 814 190 814 l 467 814 q 556 841 520 814 q 593 907 593 868 q 562 933 593 933 "},"Ĕ":{"ha":708,"x_min":102,"x_max":681,"o":"m 328 842 l 522 842 q 633 870 588 842 q 679 937 679 899 q 648 965 679 965 l 189 965 q 102 871 102 965 l 102 94 q 189 0 102 0 l 524 0 q 635 29 589 0 q 681 97 681 58 q 650 123 681 123 l 328 123 q 252 145 273 123 q 232 221 232 168 l 232 340 q 252 415 232 393 q 328 437 273 437 l 478 437 q 568 466 532 437 q 604 534 604 494 q 574 559 604 559 l 328 559 q 252 582 273 559 q 232 657 232 604 l 232 745 q 252 820 232 798 q 328 842 273 842 m 591 1271 q 555 1247 573 1271 q 386 1165 487 1165 q 216 1247 281 1165 q 180 1271 197 1271 q 155 1239 155 1271 q 220 1105 155 1159 q 385 1051 284 1051 q 549 1107 481 1051 q 616 1239 616 1163 q 591 1271 616 1271 "},"ĕ":{"ha":777,"x_min":82,"x_max":697,"o":"m 640 117 l 306 117 q 211 203 211 117 q 304 296 211 296 l 559 296 q 697 429 697 296 l 697 500 q 471 705 697 705 l 304 705 q 82 492 82 705 l 82 212 q 306 -7 82 -7 l 490 -7 q 614 22 557 -7 q 671 89 671 52 q 640 117 671 117 m 478 418 l 304 418 q 211 500 211 418 q 304 583 211 583 l 478 583 q 566 500 566 583 q 478 418 566 418 m 595 1011 q 559 987 576 1011 q 389 905 490 905 q 220 987 285 905 q 184 1011 200 1011 q 159 979 159 1011 q 223 845 159 899 q 388 791 288 791 q 552 847 485 791 q 620 979 620 903 q 595 1011 620 1011 "},"Ė":{"ha":708,"x_min":102,"x_max":681,"o":"m 328 842 l 522 842 q 633 870 588 842 q 679 937 679 899 q 648 965 679 965 l 189 965 q 102 871 102 965 l 102 94 q 189 0 102 0 l 524 0 q 635 29 589 0 q 681 97 681 58 q 650 123 681 123 l 328 123 q 252 145 273 123 q 232 221 232 168 l 232 340 q 252 415 232 393 q 328 437 273 437 l 478 437 q 568 466 532 437 q 604 534 604 494 q 574 559 604 559 l 328 559 q 252 582 273 559 q 232 657 232 604 l 232 745 q 252 820 232 798 q 328 842 273 842 m 385 1238 q 322 1152 322 1238 q 385 1067 322 1067 q 429 1088 410 1067 q 448 1152 448 1109 q 429 1216 448 1194 q 385 1238 410 1238 "},"ė":{"ha":777,"x_min":82,"x_max":697,"o":"m 640 117 l 306 117 q 211 203 211 117 q 304 296 211 296 l 559 296 q 697 429 697 296 l 697 500 q 471 705 697 705 l 304 705 q 82 492 82 705 l 82 212 q 306 -7 82 -7 l 490 -7 q 614 22 557 -7 q 671 89 671 52 q 640 117 671 117 m 478 418 l 304 418 q 211 500 211 418 q 304 583 211 583 l 478 583 q 566 500 566 583 q 478 418 566 418 m 387 978 q 325 892 325 978 q 387 807 325 807 q 432 828 413 807 q 451 892 451 850 q 432 956 451 935 q 387 978 413 978 "},"Ę":{"ha":708,"x_min":102,"x_max":681,"o":"m 328 842 l 522 842 q 633 870 588 842 q 679 937 679 899 q 648 965 679 965 l 189 965 q 102 871 102 965 l 102 94 q 189 0 102 0 l 457 0 q 380 -140 380 -58 q 528 -278 380 -278 q 605 -258 574 -278 q 635 -207 635 -238 q 614 -191 635 -191 l 546 -191 q 481 -129 481 -191 q 629 25 481 -66 q 681 97 681 56 q 650 123 681 123 l 328 123 q 252 145 273 123 q 232 221 232 168 l 232 340 q 252 415 232 393 q 328 437 273 437 l 478 437 q 568 466 532 437 q 604 534 604 494 q 574 559 604 559 l 328 559 q 252 582 273 559 q 232 657 232 604 l 232 745 q 252 820 232 798 q 328 842 273 842 "},"ę":{"ha":777,"x_min":82,"x_max":697,"o":"m 640 117 l 306 117 q 211 203 211 117 q 304 296 211 296 l 559 296 q 697 429 697 296 l 697 500 q 471 705 697 705 l 304 705 q 82 492 82 705 l 82 212 q 306 -7 82 -7 l 450 -7 q 378 -140 378 -60 q 525 -278 378 -278 q 602 -258 572 -278 q 632 -207 632 -238 q 611 -191 632 -191 l 543 -191 q 478 -129 478 -191 q 616 22 478 -61 q 671 89 671 55 q 640 117 671 117 m 478 418 l 304 418 q 211 500 211 418 q 304 583 211 583 l 478 583 q 566 500 566 583 q 478 418 566 418 "},"Ě":{"ha":708,"x_min":102,"x_max":681,"o":"m 328 842 l 522 842 q 633 870 588 842 q 679 937 679 899 q 648 965 679 965 l 189 965 q 102 871 102 965 l 102 94 q 189 0 102 0 l 524 0 q 635 29 589 0 q 681 97 681 58 q 650 123 681 123 l 328 123 q 252 145 273 123 q 232 221 232 168 l 232 340 q 252 415 232 393 q 328 437 273 437 l 478 437 q 568 466 532 437 q 604 534 604 494 q 574 559 604 559 l 328 559 q 252 582 273 559 q 232 657 232 604 l 232 745 q 252 820 232 798 q 328 842 273 842 m 200 1249 l 326 1076 q 388 1034 357 1034 q 449 1076 418 1034 l 575 1249 q 593 1289 593 1274 q 563 1315 593 1315 q 502 1287 537 1315 q 411 1207 467 1259 q 388 1192 395 1192 q 366 1206 380 1192 q 212 1315 252 1315 q 182 1289 182 1315 q 200 1249 182 1274 "},"ě":{"ha":777,"x_min":82,"x_max":697,"o":"m 640 117 l 306 117 q 211 203 211 117 q 304 296 211 296 l 559 296 q 697 429 697 296 l 697 500 q 471 705 697 705 l 304 705 q 82 492 82 705 l 82 212 q 306 -7 82 -7 l 490 -7 q 614 22 557 -7 q 671 89 671 52 q 640 117 671 117 m 478 418 l 304 418 q 211 500 211 418 q 304 583 211 583 l 478 583 q 566 500 566 583 q 478 418 566 418 m 200 989 l 326 817 q 388 774 357 774 q 449 817 418 774 l 575 989 q 593 1029 593 1015 q 563 1055 593 1055 q 502 1027 537 1055 q 411 947 467 1000 q 388 932 395 932 q 366 946 380 932 q 212 1055 252 1055 q 182 1029 182 1055 q 200 989 182 1014 "},"Ĝ":{"ha":861,"x_min":92,"x_max":778,"o":"m 708 965 l 328 965 q 154 904 217 965 q 92 732 92 844 l 92 232 q 154 60 92 120 q 328 0 216 0 l 543 0 q 717 61 656 0 q 778 232 778 121 l 778 439 q 690 533 778 533 l 545 533 q 454 504 490 533 q 418 436 418 475 q 449 411 418 411 l 551 411 q 625 391 603 411 q 647 314 647 370 l 647 233 q 538 122 647 122 l 334 122 q 224 233 224 122 l 224 730 q 334 842 224 842 l 582 842 q 694 870 648 842 q 739 937 739 899 q 708 965 739 965 m 615 1100 l 489 1272 q 428 1315 458 1315 q 366 1272 397 1315 l 240 1100 q 222 1060 222 1074 q 252 1034 222 1034 q 313 1061 278 1034 q 404 1141 349 1089 q 428 1157 420 1157 q 450 1143 436 1157 q 603 1034 562 1034 q 633 1060 633 1034 q 615 1100 633 1075 "},"ĝ":{"ha":786,"x_min":82,"x_max":689,"o":"m 467 -132 l 139 -132 q 110 -158 110 -132 q 165 -226 110 -196 q 289 -256 220 -256 l 465 -256 q 689 -37 689 -256 l 689 608 q 599 705 689 705 l 319 705 q 82 472 82 705 l 82 245 q 300 32 82 32 l 467 32 q 559 -49 559 32 q 467 -132 559 -132 m 211 248 l 211 471 q 321 583 211 583 l 494 583 q 546 570 532 583 q 559 515 559 556 l 559 248 q 469 154 559 154 l 301 154 q 211 248 211 154 m 585 840 l 458 1013 q 397 1055 428 1055 q 336 1013 367 1055 l 210 840 q 191 800 191 814 q 222 774 191 774 q 283 802 248 774 q 374 882 318 829 q 397 897 389 897 q 419 884 406 897 q 572 774 532 774 q 603 800 603 774 q 585 840 603 815 "},"Ğ":{"ha":861,"x_min":92,"x_max":778,"o":"m 708 965 l 328 965 q 154 904 217 965 q 92 732 92 844 l 92 232 q 154 60 92 120 q 328 0 216 0 l 543 0 q 717 61 656 0 q 778 232 778 121 l 778 439 q 690 533 778 533 l 545 533 q 454 504 490 533 q 418 436 418 475 q 449 411 418 411 l 551 411 q 625 391 603 411 q 647 314 647 370 l 647 233 q 538 122 647 122 l 334 122 q 224 233 224 122 l 224 730 q 334 842 224 842 l 582 842 q 694 870 648 842 q 739 937 739 899 q 708 965 739 965 m 629 1271 q 593 1247 611 1271 q 424 1165 525 1165 q 254 1247 319 1165 q 218 1271 235 1271 q 193 1239 193 1271 q 258 1105 193 1159 q 422 1051 322 1051 q 587 1107 519 1051 q 654 1239 654 1163 q 629 1271 654 1271 "},"ğ":{"ha":786,"x_min":82,"x_max":689,"o":"m 467 -132 l 139 -132 q 110 -158 110 -132 q 165 -226 110 -196 q 289 -256 220 -256 l 465 -256 q 689 -37 689 -256 l 689 608 q 599 705 689 705 l 319 705 q 82 472 82 705 l 82 245 q 300 32 82 32 l 467 32 q 559 -49 559 32 q 467 -132 559 -132 m 211 248 l 211 471 q 321 583 211 583 l 494 583 q 546 570 532 583 q 559 515 559 556 l 559 248 q 469 154 559 154 l 301 154 q 211 248 211 154 m 602 1011 q 566 987 583 1011 q 396 905 497 905 q 227 987 292 905 q 191 1011 207 1011 q 165 979 165 1011 q 230 845 165 899 q 395 791 294 791 q 559 847 492 791 q 627 979 627 903 q 602 1011 627 1011 "},"Ġ":{"ha":861,"x_min":92,"x_max":778,"o":"m 708 965 l 328 965 q 154 904 217 965 q 92 732 92 844 l 92 232 q 154 60 92 120 q 328 0 216 0 l 543 0 q 717 61 656 0 q 778 232 778 121 l 778 439 q 690 533 778 533 l 545 533 q 454 504 490 533 q 418 436 418 475 q 449 411 418 411 l 551 411 q 625 391 603 411 q 647 314 647 370 l 647 233 q 538 122 647 122 l 334 122 q 224 233 224 122 l 224 730 q 334 842 224 842 l 582 842 q 694 870 648 842 q 739 937 739 899 q 708 965 739 965 m 420 1238 q 357 1152 357 1238 q 420 1067 357 1067 q 465 1088 446 1067 q 484 1152 484 1109 q 465 1216 484 1194 q 420 1238 446 1238 "},"ġ":{"ha":786,"x_min":82,"x_max":689,"o":"m 467 -132 l 139 -132 q 110 -158 110 -132 q 165 -226 110 -196 q 289 -256 220 -256 l 465 -256 q 689 -37 689 -256 l 689 608 q 599 705 689 705 l 319 705 q 82 472 82 705 l 82 245 q 300 32 82 32 l 467 32 q 559 -49 559 32 q 467 -132 559 -132 m 211 248 l 211 471 q 321 583 211 583 l 494 583 q 546 570 532 583 q 559 515 559 556 l 559 248 q 469 154 559 154 l 301 154 q 211 248 211 154 m 393 978 q 331 892 331 978 q 393 807 331 807 q 438 828 419 807 q 457 892 457 850 q 438 956 457 935 q 393 978 419 978 "},"Ģ":{"ha":861,"x_min":92,"x_max":778,"o":"m 708 965 l 328 965 q 154 904 217 965 q 92 732 92 844 l 92 232 q 154 60 92 120 q 328 0 216 0 l 543 0 q 717 61 656 0 q 778 232 778 121 l 778 439 q 690 533 778 533 l 545 533 q 454 504 490 533 q 418 436 418 475 q 449 411 418 411 l 551 411 q 625 391 603 411 q 647 314 647 370 l 647 233 q 538 122 647 122 l 334 122 q 224 233 224 122 l 224 730 q 334 842 224 842 l 582 842 q 694 870 648 842 q 739 937 739 899 q 708 965 739 965 m 351 -214 q 343 -248 343 -232 q 371 -278 343 -278 q 452 -205 399 -278 q 505 -90 505 -132 q 453 -33 505 -33 q 387 -98 407 -33 l 351 -214 "},"ģ":{"ha":786,"x_min":82,"x_max":689,"o":"m 467 -132 l 139 -132 q 110 -158 110 -132 q 165 -226 110 -196 q 289 -256 220 -256 l 465 -256 q 689 -37 689 -256 l 689 608 q 599 705 689 705 l 319 705 q 82 472 82 705 l 82 245 q 300 32 82 32 l 467 32 q 559 -49 559 32 q 467 -132 559 -132 m 211 248 l 211 471 q 321 583 211 583 l 494 583 q 546 570 532 583 q 559 515 559 556 l 559 248 q 469 154 559 154 l 301 154 q 211 248 211 154 m 493 954 q 501 988 501 972 q 473 1019 501 1019 q 392 946 445 1019 q 339 831 339 873 q 391 774 339 774 q 457 839 437 774 l 493 954 "},"Ĥ":{"ha":871,"x_min":102,"x_max":770,"o":"m 328 437 l 543 437 q 618 415 597 437 q 639 340 639 393 l 639 87 q 704 -7 639 -7 q 770 87 770 -7 l 770 833 q 743 928 770 890 q 686 965 716 965 q 639 886 639 965 l 639 659 q 618 583 639 605 q 543 561 597 561 l 328 561 q 253 583 273 561 q 232 659 232 605 l 232 886 q 184 965 232 965 q 129 928 155 965 q 102 833 102 891 l 102 87 q 167 -7 102 -7 q 232 87 232 -7 l 232 340 q 253 415 232 393 q 328 437 273 437 m 623 1100 l 496 1272 q 435 1315 466 1315 q 374 1272 405 1315 l 248 1100 q 229 1060 229 1074 q 260 1034 229 1034 q 321 1061 286 1034 q 412 1141 356 1089 q 435 1157 427 1157 q 457 1143 444 1157 q 610 1034 570 1034 q 641 1060 641 1034 q 623 1100 641 1075 "},"ĥ":{"ha":787,"x_min":97,"x_max":693,"o":"m 227 775 l 227 846 q 199 941 227 904 q 143 978 171 978 q 97 900 97 978 l 97 87 q 163 -7 97 -7 q 209 20 192 -7 q 227 87 227 47 l 227 513 q 241 567 227 550 q 296 583 255 583 l 454 583 q 564 471 564 583 l 564 87 q 629 -7 564 -7 q 676 20 659 -7 q 693 87 693 47 l 693 472 q 456 705 693 705 l 293 705 q 240 721 254 705 q 227 775 227 737 m 571 1100 l 445 1272 q 384 1315 414 1315 q 322 1272 353 1315 l 196 1100 q 178 1060 178 1074 q 208 1034 178 1034 q 269 1061 234 1034 q 360 1141 304 1089 q 384 1157 376 1157 q 406 1143 392 1157 q 559 1034 518 1034 q 589 1060 589 1034 q 571 1100 589 1075 "},"Ħ":{"ha":871,"x_min":-20,"x_max":890,"o":"m 328 437 l 543 437 q 618 415 597 437 q 639 340 639 393 l 639 87 q 704 -7 639 -7 q 770 87 770 -7 l 770 705 q 857 734 823 707 q 890 799 890 761 q 860 825 890 825 l 770 825 l 770 833 q 743 928 770 890 q 686 965 716 965 q 639 886 639 965 l 639 825 l 232 825 l 232 886 q 184 965 232 965 q 129 928 155 965 q 102 833 102 891 l 102 825 q 15 796 49 822 q -20 732 -20 770 q 11 705 -20 705 l 102 705 l 102 87 q 167 -7 102 -7 q 232 87 232 -7 l 232 340 q 253 415 232 393 q 328 437 273 437 m 543 561 l 328 561 q 253 583 273 561 q 232 659 232 605 l 232 705 l 639 705 l 639 659 q 618 583 639 605 q 543 561 597 561 "},"ħ":{"ha":787,"x_min":-11,"x_max":693,"o":"m 379 896 l 227 896 q 199 985 227 950 q 143 1021 171 1021 q 97 943 97 1021 l 97 896 q 21 867 53 896 q -11 803 -11 839 q 20 777 -11 777 l 97 777 l 97 87 q 163 -7 97 -7 q 209 20 192 -7 q 227 87 227 47 l 227 472 q 241 527 227 510 q 296 543 255 543 l 454 543 q 564 431 564 543 l 564 87 q 629 -7 564 -7 q 676 20 659 -7 q 693 87 693 47 l 693 432 q 456 665 693 665 l 293 665 q 240 681 254 665 q 227 734 227 697 l 227 777 l 288 777 q 374 804 338 777 q 410 869 410 831 q 379 896 410 896 "},"Ĩ":{"ha":396,"x_min":-28,"x_max":440,"o":"m 262 207 l 262 758 q 272 835 262 817 q 306 861 282 854 q 375 939 375 884 q 351 965 375 965 l 119 965 q 21 882 21 965 q 40 856 21 856 l 94 856 q 134 758 134 856 l 134 207 q 124 132 134 151 q 90 104 115 112 q 21 26 21 82 q 45 0 21 0 l 277 0 q 375 83 375 0 q 355 110 375 110 l 300 110 q 262 207 262 110 m 97 1116 q 186 1086 125 1116 q 313 1051 264 1051 q 401 1094 363 1051 q 440 1185 440 1137 q 416 1223 440 1223 q 389 1206 401 1223 q 316 1158 351 1158 q 218 1192 292 1158 q 98 1223 151 1223 q 11 1180 50 1223 q -28 1089 -28 1136 q -5 1051 -28 1051 q 24 1068 12 1051 q 97 1116 62 1116 "},"ĩ":{"ha":323,"x_min":-65,"x_max":404,"o":"m 227 87 l 227 611 q 209 679 227 652 q 163 705 191 705 q 115 680 134 705 q 97 611 97 655 l 97 87 q 163 -7 97 -7 q 209 20 192 -7 q 227 87 227 47 m 60 856 q 149 827 89 856 q 277 791 227 791 q 365 834 326 791 q 404 925 404 877 q 380 964 404 964 q 352 946 365 964 q 279 899 315 899 q 181 932 255 899 q 62 964 115 964 q -26 920 13 964 q -65 829 -65 876 q -41 791 -65 791 q -12 808 -24 791 q 60 856 25 856 "},"Ī":{"ha":396,"x_min":1,"x_max":404,"o":"m 262 207 l 262 758 q 272 835 262 817 q 306 861 282 854 q 375 939 375 884 q 351 965 375 965 l 119 965 q 21 882 21 965 q 40 856 21 856 l 94 856 q 134 758 134 856 l 134 207 q 124 132 134 151 q 90 104 115 112 q 21 26 21 82 q 45 0 21 0 l 277 0 q 375 83 375 0 q 355 110 375 110 l 300 110 q 262 207 262 110 m 373 1193 l 127 1193 q 36 1165 71 1193 q 1 1100 1 1137 q 31 1074 1 1074 l 277 1074 q 367 1101 331 1074 q 404 1166 404 1128 q 373 1193 404 1193 "},"ī":{"ha":323,"x_min":-35,"x_max":368,"o":"m 227 87 l 227 611 q 209 679 227 652 q 163 705 191 705 q 115 680 134 705 q 97 611 97 655 l 97 87 q 163 -7 97 -7 q 209 20 192 -7 q 227 87 227 47 m 338 933 l 92 933 q 0 905 35 933 q -35 840 -35 878 q -4 814 -35 814 l 242 814 q 332 841 296 814 q 368 907 368 868 q 338 933 368 933 "},"Ĭ":{"ha":396,"x_min":-31,"x_max":430,"o":"m 262 207 l 262 758 q 272 835 262 817 q 306 861 282 854 q 375 939 375 884 q 351 965 375 965 l 119 965 q 21 882 21 965 q 40 856 21 856 l 94 856 q 134 758 134 856 l 134 207 q 124 132 134 151 q 90 104 115 112 q 21 26 21 82 q 45 0 21 0 l 277 0 q 375 83 375 0 q 355 110 375 110 l 300 110 q 262 207 262 110 m 405 1271 q 369 1247 387 1271 q 199 1165 300 1165 q 30 1247 95 1165 q -6 1271 10 1271 q -31 1239 -31 1271 q 33 1105 -31 1159 q 198 1051 98 1051 q 362 1107 295 1051 q 430 1239 430 1163 q 405 1271 430 1271 "},"ĭ":{"ha":323,"x_min":-67,"x_max":394,"o":"m 227 87 l 227 611 q 209 679 227 652 q 163 705 191 705 q 115 680 134 705 q 97 611 97 655 l 97 87 q 163 -7 97 -7 q 209 20 192 -7 q 227 87 227 47 m 369 1011 q 333 987 351 1011 q 163 905 264 905 q -6 987 59 905 q -42 1011 -26 1011 q -67 979 -67 1011 q -3 845 -67 899 q 162 791 62 791 q 327 847 259 791 q 394 979 394 903 q 369 1011 394 1011 "},"Į":{"ha":396,"x_min":21,"x_max":375,"o":"m 262 207 l 262 758 q 272 835 262 817 q 306 861 282 854 q 375 939 375 884 q 351 965 375 965 l 119 965 q 21 882 21 965 q 40 856 21 856 l 94 856 q 134 758 134 856 l 134 207 q 124 132 134 151 q 90 104 115 112 q 21 26 21 82 q 45 0 21 0 l 149 0 q 74 -140 74 -56 q 221 -278 74 -278 q 297 -258 266 -278 q 328 -207 328 -239 q 307 -191 328 -191 l 239 -191 q 174 -129 174 -191 q 314 4 174 -48 q 375 83 375 27 q 355 110 375 110 l 300 110 q 262 207 262 110 "},"į":{"ha":323,"x_min":35,"x_max":289,"o":"m 165 978 q 103 892 103 978 q 165 807 103 807 q 210 828 191 807 q 229 892 229 850 q 210 956 229 935 q 165 978 191 978 m 111 21 q 35 -140 35 -54 q 182 -278 35 -278 q 259 -258 229 -278 q 289 -207 289 -238 q 268 -191 289 -191 l 200 -191 q 135 -129 135 -191 q 199 7 135 -70 q 227 87 227 33 l 227 611 q 209 679 227 652 q 163 705 191 705 q 115 680 134 705 q 97 611 97 655 l 97 87 q 111 21 97 44 "},"İ":{"ha":396,"x_min":21,"x_max":375,"o":"m 262 207 l 262 758 q 272 835 262 817 q 306 861 282 854 q 375 939 375 884 q 351 965 375 965 l 119 965 q 21 882 21 965 q 40 856 21 856 l 94 856 q 134 758 134 856 l 134 207 q 124 132 134 151 q 90 104 115 112 q 21 26 21 82 q 45 0 21 0 l 277 0 q 375 83 375 0 q 355 110 375 110 l 300 110 q 262 207 262 110 m 197 1238 q 135 1152 135 1238 q 197 1067 135 1067 q 242 1088 223 1067 q 261 1152 261 1109 q 242 1216 261 1194 q 197 1238 223 1238 "},"Ĳ":{"ha":779,"x_min":21,"x_max":680,"o":"m 262 207 l 262 758 q 272 835 262 817 q 306 861 282 854 q 375 939 375 884 q 351 965 375 965 l 119 965 q 21 882 21 965 q 40 856 21 856 l 94 856 q 134 758 134 856 l 134 207 q 124 132 134 151 q 90 104 115 112 q 21 26 21 82 q 45 0 21 0 l 277 0 q 375 83 375 0 q 355 110 375 110 l 300 110 q 262 207 262 110 m 550 758 l 550 78 q 511 -44 550 -5 q 406 -112 471 -83 q 326 -152 338 -143 q 314 -175 314 -161 q 378 -216 314 -216 q 584 -151 489 -216 q 680 64 680 -86 l 680 886 q 632 965 680 965 l 515 965 q 417 882 417 965 q 436 856 417 856 l 511 856 q 550 758 550 856 "},"ĳ":{"ha":647,"x_min":97,"x_max":553,"o":"m 165 978 q 103 892 103 978 q 165 807 103 807 q 210 828 191 807 q 229 892 229 850 q 210 956 229 935 q 165 978 191 978 m 227 87 l 227 611 q 209 679 227 652 q 163 705 191 705 q 115 680 134 705 q 97 611 97 655 l 97 87 q 163 -7 97 -7 q 209 20 192 -7 q 227 87 227 47 m 489 978 q 427 892 427 978 q 489 807 427 807 q 534 828 515 807 q 553 892 553 850 q 534 956 553 935 q 489 978 515 978 m 380 -92 l 272 -200 q 258 -224 258 -216 q 314 -256 258 -256 q 404 -228 354 -256 q 502 -141 454 -200 q 550 25 550 -83 l 550 611 q 532 679 550 652 q 486 705 515 705 q 439 680 457 705 q 420 611 420 655 l 420 25 q 380 -92 420 -52 "},"Ĵ":{"ha":383,"x_min":-82,"x_max":386,"o":"m 154 758 l 154 78 q 115 -44 154 -5 q 10 -112 75 -83 q -70 -152 -58 -143 q -82 -175 -82 -161 q -18 -216 -82 -216 q 188 -151 93 -216 q 283 64 283 -86 l 283 886 q 236 965 283 965 l 119 965 q 21 882 21 965 q 40 856 21 856 l 115 856 q 154 758 154 856 m 368 1100 l 241 1272 q 180 1315 211 1315 q 119 1272 150 1315 l -7 1100 q -26 1060 -26 1074 q 5 1034 -26 1034 q 66 1061 31 1034 q 157 1141 101 1089 q 180 1157 172 1157 q 202 1143 189 1157 q 355 1034 315 1034 q 386 1060 386 1034 q 368 1100 386 1075 "},"ĵ":{"ha":323,"x_min":-65,"x_max":368,"o":"m 57 -92 l -52 -200 q -65 -224 -65 -216 q -9 -256 -65 -256 q 81 -228 31 -256 q 179 -141 131 -200 q 227 25 227 -83 l 227 611 q 209 679 227 652 q 163 705 191 705 q 115 680 134 705 q 97 611 97 655 l 97 25 q 57 -92 97 -52 m 349 840 l 223 1013 q 162 1055 193 1055 q 100 1013 132 1055 l -26 840 q -44 800 -44 814 q -14 774 -44 774 q 47 802 12 774 q 138 882 83 829 q 162 897 154 897 q 184 884 170 897 q 337 774 296 774 q 368 800 368 774 q 349 840 368 815 "},"Ķ":{"ha":793,"x_min":102,"x_max":793,"o":"m 102 833 l 102 87 q 167 -7 102 -7 q 232 87 232 -7 l 232 371 q 264 422 232 422 q 317 392 292 422 l 572 85 q 737 -7 649 -7 q 793 31 793 -7 q 782 56 793 43 l 453 439 q 414 507 414 484 q 456 572 414 528 l 711 839 q 754 911 754 882 q 738 951 754 937 q 700 966 722 966 q 631 933 663 966 l 318 610 q 264 583 292 583 q 232 637 232 583 l 232 886 q 184 965 232 965 q 129 928 155 965 q 102 833 102 891 m 323 -214 q 315 -248 315 -232 q 343 -278 315 -278 q 424 -205 371 -278 q 477 -90 477 -132 q 425 -33 477 -33 q 359 -98 379 -33 l 323 -214 "},"ķ":{"ha":736,"x_min":97,"x_max":729,"o":"m 310 260 l 509 77 q 671 -4 595 -4 q 729 32 729 -4 q 715 56 729 43 l 439 306 q 400 371 400 340 q 441 435 400 399 l 615 586 q 660 653 660 623 q 610 705 660 705 q 541 673 576 705 l 311 472 q 261 452 287 452 q 227 498 227 452 l 227 846 q 199 941 227 904 q 143 978 171 978 q 97 900 97 978 l 97 87 q 163 -7 97 -7 q 209 20 192 -7 q 227 87 227 47 l 227 228 q 261 282 227 282 q 310 260 286 282 m 292 -214 q 285 -248 285 -232 q 313 -278 285 -278 q 393 -205 340 -278 q 446 -90 446 -132 q 395 -33 446 -33 q 328 -98 349 -33 l 292 -214 "},"ĸ":{"ha":736,"x_min":97,"x_max":729,"o":"m 310 243 l 509 77 q 671 -4 606 -4 q 729 32 729 -4 q 715 56 729 44 l 439 289 q 400 354 400 323 q 441 418 400 378 l 615 582 q 660 653 660 625 q 610 705 660 705 q 539 669 578 705 l 311 456 q 261 435 290 435 q 227 482 227 435 l 227 574 q 199 668 227 631 q 143 705 172 705 q 97 628 97 705 l 97 87 q 163 -7 97 -7 q 209 20 192 -7 q 227 87 227 47 l 227 211 q 261 265 227 265 q 310 243 283 265 "},"Ĺ":{"ha":679,"x_min":102,"x_max":665,"o":"m 102 833 l 102 94 q 189 0 102 0 l 509 0 q 620 28 574 0 q 665 97 665 57 q 635 123 665 123 l 328 123 q 252 145 273 123 q 232 221 232 168 l 232 886 q 184 965 232 965 q 129 928 155 965 q 102 833 102 891 m 356 1164 l 397 1206 q 425 1264 425 1232 q 409 1305 425 1289 q 366 1321 392 1321 q 304 1289 328 1321 l 165 1100 q 147 1060 147 1078 q 178 1034 147 1034 q 356 1164 228 1034 "},"ĺ":{"ha":323,"x_min":77,"x_max":355,"o":"m 227 87 l 227 846 q 199 941 227 904 q 143 978 171 978 q 97 900 97 978 l 97 87 q 163 -7 97 -7 q 209 20 192 -7 q 227 87 227 47 m 286 1164 l 328 1206 q 355 1264 355 1232 q 339 1305 355 1289 q 296 1321 322 1321 q 235 1289 258 1321 l 96 1100 q 77 1060 77 1078 q 108 1034 77 1034 q 286 1164 158 1034 "},"Ļ":{"ha":679,"x_min":102,"x_max":665,"o":"m 102 833 l 102 94 q 189 0 102 0 l 509 0 q 620 28 574 0 q 665 97 665 57 q 635 123 665 123 l 328 123 q 252 145 273 123 q 232 221 232 168 l 232 886 q 184 965 232 965 q 129 928 155 965 q 102 833 102 891 m 270 -214 q 262 -248 262 -232 q 290 -278 262 -278 q 371 -205 318 -278 q 424 -90 424 -132 q 372 -33 424 -33 q 306 -98 326 -33 l 270 -214 "},"ļ":{"ha":323,"x_min":56,"x_max":227,"o":"m 227 87 l 227 846 q 199 941 227 904 q 143 978 171 978 q 97 900 97 978 l 97 87 q 163 -7 97 -7 q 209 20 192 -7 q 227 87 227 47 m 64 -214 q 56 -248 56 -232 q 84 -278 56 -278 q 165 -205 112 -278 q 218 -90 218 -132 q 166 -33 218 -33 q 100 -98 120 -33 l 64 -214 "},"Ľ":{"ha":679,"x_min":102,"x_max":665,"o":"m 102 833 l 102 94 q 189 0 102 0 l 509 0 q 620 28 574 0 q 665 97 665 57 q 635 123 665 123 l 328 123 q 252 145 273 123 q 232 221 232 168 l 232 886 q 184 965 232 965 q 129 928 155 965 q 102 833 102 891 m 446 627 q 534 733 485 627 q 583 907 583 839 q 566 953 583 935 q 522 972 548 972 q 455 899 463 972 q 418 680 443 775 q 414 658 414 667 q 446 627 414 627 "},"ľ":{"ha":390,"x_min":97,"x_max":488,"o":"m 227 87 l 227 846 q 199 941 227 904 q 143 978 171 978 q 97 900 97 978 l 97 87 q 163 -7 97 -7 q 209 20 192 -7 q 227 87 227 47 m 350 633 q 438 739 389 633 q 488 913 488 845 q 470 959 488 941 q 427 978 452 978 q 359 905 367 978 q 322 686 347 781 q 318 664 318 673 q 350 633 318 633 "},"Ŀ":{"ha":679,"x_min":102,"x_max":665,"o":"m 102 833 l 102 94 q 189 0 102 0 l 509 0 q 620 28 574 0 q 665 97 665 57 q 635 123 665 123 l 328 123 q 252 145 273 123 q 232 221 232 168 l 232 886 q 184 965 232 965 q 129 928 155 965 q 102 833 102 891 m 494 587 q 432 500 432 587 q 494 416 432 416 q 539 437 520 416 q 558 500 558 458 q 539 565 558 543 q 494 587 520 587 "},"ŀ":{"ha":450,"x_min":97,"x_max":448,"o":"m 227 87 l 227 846 q 199 941 227 904 q 143 978 171 978 q 97 900 97 978 l 97 87 q 163 -7 97 -7 q 209 20 192 -7 q 227 87 227 47 m 385 467 q 322 381 322 467 q 385 296 322 296 q 429 318 410 296 q 448 381 448 339 q 429 446 448 424 q 385 467 410 467 "},"Ń":{"ha":901,"x_min":102,"x_max":800,"o":"m 232 699 l 615 85 q 673 13 648 32 q 732 -7 698 -7 q 800 87 800 -7 l 800 833 q 773 928 800 890 q 717 965 747 965 q 669 886 669 965 l 669 237 l 235 924 q 167 965 210 965 q 102 871 102 965 l 102 87 q 165 -7 102 -7 q 232 87 232 -7 l 232 699 m 575 1164 l 616 1206 q 644 1264 644 1232 q 628 1305 644 1289 q 585 1321 611 1321 q 524 1289 547 1321 l 385 1100 q 366 1060 366 1078 q 397 1034 366 1034 q 575 1164 447 1034 "},"ń":{"ha":787,"x_min":97,"x_max":693,"o":"m 456 705 l 186 705 q 97 612 97 705 l 97 87 q 163 -7 97 -7 q 209 20 192 -7 q 227 87 227 47 l 227 513 q 238 568 227 553 q 294 583 250 583 l 454 583 q 564 471 564 583 l 564 87 q 629 -7 564 -7 q 676 20 659 -7 q 693 87 693 47 l 693 472 q 456 705 693 705 m 502 904 l 543 946 q 571 1004 571 972 q 554 1045 571 1029 q 511 1061 538 1061 q 450 1029 474 1061 l 311 840 q 293 800 293 818 q 323 774 293 774 q 502 904 374 774 "},"Ņ":{"ha":901,"x_min":102,"x_max":800,"o":"m 232 699 l 615 85 q 673 13 648 32 q 732 -7 698 -7 q 800 87 800 -7 l 800 833 q 773 928 800 890 q 717 965 747 965 q 669 886 669 965 l 669 237 l 235 924 q 167 965 210 965 q 102 871 102 965 l 102 87 q 165 -7 102 -7 q 232 87 232 -7 l 232 699 m 360 -214 q 353 -248 353 -232 q 380 -278 353 -278 q 461 -205 408 -278 q 514 -90 514 -132 q 463 -33 514 -33 q 396 -98 416 -33 l 360 -214 "},"ņ":{"ha":787,"x_min":97,"x_max":693,"o":"m 456 705 l 186 705 q 97 612 97 705 l 97 87 q 163 -7 97 -7 q 209 20 192 -7 q 227 87 227 47 l 227 513 q 238 568 227 553 q 294 583 250 583 l 454 583 q 564 471 564 583 l 564 87 q 629 -7 564 -7 q 676 20 659 -7 q 693 87 693 47 l 693 472 q 456 705 693 705 m 299 -214 q 292 -248 292 -232 q 319 -278 292 -278 q 400 -205 347 -278 q 453 -90 453 -132 q 401 -33 453 -33 q 335 -98 355 -33 l 299 -214 "},"Ň":{"ha":901,"x_min":102,"x_max":800,"o":"m 232 699 l 615 85 q 673 13 648 32 q 732 -7 698 -7 q 800 87 800 -7 l 800 833 q 773 928 800 890 q 717 965 747 965 q 669 886 669 965 l 669 237 l 235 924 q 167 965 210 965 q 102 871 102 965 l 102 87 q 165 -7 102 -7 q 232 87 232 -7 l 232 699 m 257 1249 l 383 1076 q 445 1034 414 1034 q 506 1076 475 1034 l 632 1249 q 650 1289 650 1274 q 620 1315 650 1315 q 559 1287 594 1315 q 468 1207 524 1259 q 445 1192 452 1192 q 422 1206 437 1192 q 269 1315 309 1315 q 239 1289 239 1315 q 257 1249 239 1274 "},"ň":{"ha":787,"x_min":97,"x_max":693,"o":"m 456 705 l 186 705 q 97 612 97 705 l 97 87 q 163 -7 97 -7 q 209 20 192 -7 q 227 87 227 47 l 227 513 q 238 568 227 553 q 294 583 250 583 l 454 583 q 564 471 564 583 l 564 87 q 629 -7 564 -7 q 676 20 659 -7 q 693 87 693 47 l 693 472 q 456 705 693 705 m 200 989 l 326 817 q 388 774 357 774 q 449 817 418 774 l 575 989 q 593 1029 593 1015 q 563 1055 593 1055 q 502 1027 537 1055 q 411 947 467 1000 q 388 932 395 932 q 366 946 380 932 q 212 1055 252 1055 q 182 1029 182 1055 q 200 989 182 1014 "},"ŉ":{"ha":844,"x_min":-27,"x_max":750,"o":"m 513 705 l 243 705 q 154 612 154 705 l 154 87 q 220 -7 154 -7 q 266 20 249 -7 q 283 87 283 47 l 283 513 q 295 568 283 553 q 351 583 307 583 l 511 583 q 621 471 621 583 l 621 87 q 686 -7 621 -7 q 733 20 715 -7 q 750 87 750 47 l 750 472 q 513 705 750 705 m 5 633 q 93 739 44 633 q 142 913 142 845 q 125 959 142 941 q 81 978 107 978 q 14 905 22 978 q -23 686 2 781 q -27 664 -27 673 q 5 633 -27 633 "},"Ŋ":{"ha":901,"x_min":102,"x_max":800,"o":"m 800 25 l 800 833 q 773 928 800 890 q 717 965 747 965 q 669 886 669 965 l 669 237 l 235 924 q 167 965 210 965 q 102 871 102 965 l 102 87 q 165 -7 102 -7 q 232 87 232 -7 l 232 699 l 644 39 q 663 -21 663 12 q 527 -151 663 -90 q 450 -189 466 -178 q 435 -214 435 -199 q 498 -256 435 -256 q 703 -190 606 -256 q 800 25 800 -125 "},"ŋ":{"ha":787,"x_min":97,"x_max":693,"o":"m 456 705 l 186 705 q 97 612 97 705 l 97 87 q 163 -7 97 -7 q 209 20 192 -7 q 227 87 227 47 l 227 513 q 238 568 227 553 q 294 583 250 583 l 454 583 q 564 471 564 583 l 564 25 q 524 -92 564 -52 l 415 -200 q 401 -224 401 -216 q 457 -256 401 -256 q 549 -227 498 -256 q 646 -140 600 -198 q 693 25 693 -82 l 693 472 q 456 705 693 705 "},"Ō":{"ha":893,"x_min":92,"x_max":802,"o":"m 328 -7 l 564 -7 q 739 55 676 -7 q 802 227 802 116 l 802 739 q 739 910 802 849 q 564 971 677 971 l 328 971 q 154 911 216 971 q 92 739 92 851 l 92 227 q 154 54 92 115 q 328 -7 217 -7 m 224 228 l 224 737 q 334 848 224 848 l 558 848 q 668 737 668 848 l 668 228 q 558 117 668 117 l 334 117 q 224 228 224 117 m 618 1193 l 372 1193 q 280 1165 315 1193 q 245 1100 245 1137 q 276 1074 245 1074 l 522 1074 q 612 1101 576 1074 q 648 1166 648 1128 q 618 1193 648 1193 "},"ō":{"ha":799,"x_min":82,"x_max":717,"o":"m 298 -7 l 498 -7 q 717 207 717 -7 l 717 492 q 498 705 717 705 l 298 705 q 82 492 82 705 l 82 207 q 298 -7 82 -7 m 211 208 l 211 490 q 301 583 211 583 l 496 583 q 586 490 586 583 l 586 208 q 496 117 586 117 l 301 117 q 211 208 211 117 m 570 933 l 325 933 q 233 905 268 933 q 198 840 198 878 q 229 814 198 814 l 475 814 q 565 841 528 814 q 601 907 601 868 q 570 933 601 933 "},"Ŏ":{"ha":893,"x_min":92,"x_max":802,"o":"m 328 -7 l 564 -7 q 739 55 676 -7 q 802 227 802 116 l 802 739 q 739 910 802 849 q 564 971 677 971 l 328 971 q 154 911 216 971 q 92 739 92 851 l 92 227 q 154 54 92 115 q 328 -7 217 -7 m 224 228 l 224 737 q 334 848 224 848 l 558 848 q 668 737 668 848 l 668 228 q 558 117 668 117 l 334 117 q 224 228 224 117 m 652 1271 q 616 1247 633 1271 q 446 1165 547 1165 q 277 1247 342 1165 q 241 1271 257 1271 q 216 1239 216 1271 q 280 1105 216 1159 q 445 1051 345 1051 q 609 1107 542 1051 q 677 1239 677 1163 q 652 1271 677 1271 "},"ŏ":{"ha":799,"x_min":82,"x_max":717,"o":"m 298 -7 l 498 -7 q 717 207 717 -7 l 717 492 q 498 705 717 705 l 298 705 q 82 492 82 705 l 82 207 q 298 -7 82 -7 m 211 208 l 211 490 q 301 583 211 583 l 496 583 q 586 490 586 583 l 586 208 q 496 117 586 117 l 301 117 q 211 208 211 117 m 604 1011 q 568 987 586 1011 q 399 905 500 905 q 229 987 294 905 q 193 1011 210 1011 q 168 979 168 1011 q 233 845 168 899 q 397 791 297 791 q 562 847 494 791 q 629 979 629 903 q 604 1011 629 1011 "},"Ő":{"ha":893,"x_min":92,"x_max":802,"o":"m 328 -7 l 564 -7 q 739 55 676 -7 q 802 227 802 116 l 802 739 q 739 910 802 849 q 564 971 677 971 l 328 971 q 154 911 216 971 q 92 739 92 851 l 92 227 q 154 54 92 115 q 328 -7 217 -7 m 224 228 l 224 737 q 334 848 224 848 l 558 848 q 668 737 668 848 l 668 228 q 558 117 668 117 l 334 117 q 224 228 224 117 m 447 1164 l 486 1206 q 511 1264 511 1234 q 456 1322 511 1322 q 399 1291 420 1322 l 273 1100 q 255 1060 255 1078 q 283 1034 255 1034 q 447 1164 327 1034 m 672 1141 l 718 1177 q 753 1239 753 1202 q 738 1279 753 1262 q 699 1296 722 1296 q 646 1272 667 1296 l 492 1101 q 468 1059 468 1076 q 497 1034 468 1034 q 672 1141 533 1034 "},"ő":{"ha":799,"x_min":82,"x_max":717,"o":"m 298 -7 l 498 -7 q 717 207 717 -7 l 717 492 q 498 705 717 705 l 298 705 q 82 492 82 705 l 82 207 q 298 -7 82 -7 m 211 208 l 211 490 q 301 583 211 583 l 496 583 q 586 490 586 583 l 586 208 q 496 117 586 117 l 301 117 q 211 208 211 117 m 410 904 l 448 946 q 473 1004 473 975 q 419 1063 473 1063 q 362 1031 383 1063 l 236 840 q 218 800 218 818 q 245 774 218 774 q 410 904 290 774 m 635 882 l 680 917 q 715 979 715 942 q 700 1019 715 1002 q 661 1036 685 1036 q 608 1013 630 1036 l 454 842 q 431 799 431 816 q 460 774 431 774 q 635 882 496 774 "},"Ŕ":{"ha":827,"x_min":102,"x_max":819,"o":"m 232 87 l 232 314 q 253 389 232 367 q 328 411 273 411 l 342 411 q 410 392 386 411 q 473 314 435 373 l 612 102 q 772 -7 685 -7 q 819 26 819 -7 q 808 53 819 37 l 591 376 q 578 410 578 397 q 603 437 578 427 q 743 644 743 495 l 743 746 q 679 908 743 850 q 503 965 614 965 l 195 965 q 127 939 152 965 q 102 871 102 913 l 102 87 q 167 -7 102 -7 q 232 87 232 -7 m 328 842 l 503 842 q 611 743 611 842 l 611 643 q 500 534 611 534 l 328 534 q 253 556 273 534 q 232 632 232 578 l 232 745 q 253 820 232 798 q 328 842 273 842 m 535 1164 l 576 1206 q 604 1264 604 1232 q 588 1305 604 1289 q 545 1321 571 1321 q 484 1289 507 1321 l 345 1100 q 326 1060 326 1078 q 357 1034 326 1034 q 535 1164 407 1034 "},"ŕ":{"ha":478,"x_min":94,"x_max":463,"o":"m 224 490 q 304 583 224 572 q 426 624 389 595 q 463 679 463 653 q 432 705 463 705 l 313 705 q 94 492 94 705 l 94 87 q 160 -7 94 -7 q 207 20 189 -7 q 224 87 224 47 l 224 490 m 391 904 l 432 946 q 460 1004 460 972 q 443 1045 460 1029 q 400 1061 427 1061 q 339 1029 363 1061 l 200 840 q 182 800 182 818 q 212 774 182 774 q 391 904 262 774 "},"Ŗ":{"ha":827,"x_min":102,"x_max":819,"o":"m 232 87 l 232 314 q 253 389 232 367 q 328 411 273 411 l 342 411 q 410 392 386 411 q 473 314 435 373 l 612 102 q 772 -7 685 -7 q 819 26 819 -7 q 808 53 819 37 l 591 376 q 578 410 578 397 q 603 437 578 427 q 743 644 743 495 l 743 746 q 679 908 743 850 q 503 965 614 965 l 195 965 q 127 939 152 965 q 102 871 102 913 l 102 87 q 167 -7 102 -7 q 232 87 232 -7 m 328 842 l 503 842 q 611 743 611 842 l 611 643 q 500 534 611 534 l 328 534 q 253 556 273 534 q 232 632 232 578 l 232 745 q 253 820 232 798 q 328 842 273 842 m 338 -214 q 330 -248 330 -232 q 358 -278 330 -278 q 439 -205 386 -278 q 492 -90 492 -132 q 440 -33 492 -33 q 374 -98 394 -33 l 338 -214 "},"ŗ":{"ha":478,"x_min":70,"x_max":463,"o":"m 224 490 q 304 583 224 572 q 426 624 389 595 q 463 679 463 653 q 432 705 463 705 l 313 705 q 94 492 94 705 l 94 87 q 160 -7 94 -7 q 207 20 189 -7 q 224 87 224 47 l 224 490 m 77 -214 q 70 -248 70 -232 q 98 -278 70 -278 q 178 -205 125 -278 q 231 -90 231 -132 q 180 -33 231 -33 q 113 -98 134 -33 l 77 -214 "},"Ř":{"ha":827,"x_min":102,"x_max":819,"o":"m 232 87 l 232 314 q 253 389 232 367 q 328 411 273 411 l 342 411 q 410 392 386 411 q 473 314 435 373 l 612 102 q 772 -7 685 -7 q 819 26 819 -7 q 808 53 819 37 l 591 376 q 578 410 578 397 q 603 437 578 427 q 743 644 743 495 l 743 746 q 679 908 743 850 q 503 965 614 965 l 195 965 q 127 939 152 965 q 102 871 102 913 l 102 87 q 167 -7 102 -7 q 232 87 232 -7 m 328 842 l 503 842 q 611 743 611 842 l 611 643 q 500 534 611 534 l 328 534 q 253 556 273 534 q 232 632 232 578 l 232 745 q 253 820 232 798 q 328 842 273 842 m 216 1249 l 342 1076 q 404 1034 373 1034 q 465 1076 434 1034 l 591 1249 q 610 1289 610 1274 q 579 1315 610 1315 q 518 1287 553 1315 q 427 1207 483 1259 q 404 1192 412 1192 q 382 1206 396 1192 q 229 1315 269 1315 q 198 1289 198 1315 q 216 1249 198 1274 "},"ř":{"ha":478,"x_min":63,"x_max":475,"o":"m 224 490 q 304 583 224 572 q 426 624 389 595 q 463 679 463 653 q 432 705 463 705 l 313 705 q 94 492 94 705 l 94 87 q 160 -7 94 -7 q 207 20 189 -7 q 224 87 224 47 l 224 490 m 81 989 l 208 817 q 269 774 238 774 q 330 817 299 774 l 456 989 q 475 1029 475 1015 q 444 1055 475 1055 q 383 1027 418 1055 q 292 947 348 1000 q 269 932 277 932 q 247 946 261 932 q 94 1055 134 1055 q 63 1029 63 1055 q 81 989 63 1014 "},"Ś":{"ha":749,"x_min":45,"x_max":697,"o":"m 410 122 l 224 122 q 100 93 156 122 q 45 25 45 63 q 75 0 45 0 l 414 0 q 622 75 547 0 q 697 292 697 151 q 422 551 697 551 l 322 551 q 189 696 189 551 q 229 804 189 766 q 339 842 269 842 l 496 842 q 619 871 564 842 q 675 937 675 901 q 646 965 675 965 l 339 965 q 134 893 211 965 q 57 694 57 821 q 319 428 57 428 l 414 428 q 529 394 494 428 q 564 288 564 359 q 523 164 564 207 q 410 122 481 122 m 496 1164 l 538 1206 q 566 1264 566 1232 q 549 1305 566 1289 q 506 1321 532 1321 q 445 1289 469 1321 l 306 1100 q 288 1060 288 1078 q 318 1034 288 1034 q 496 1164 368 1034 "},"ś":{"ha":745,"x_min":66,"x_max":675,"o":"m 454 123 l 248 123 q 122 94 178 123 q 66 26 66 64 q 97 0 66 0 l 449 0 q 616 56 558 0 q 675 215 675 111 q 449 421 675 421 l 296 421 q 208 500 208 421 q 296 583 208 583 l 478 583 q 602 612 547 583 q 657 679 657 642 q 628 705 657 705 l 301 705 q 136 651 196 705 q 75 498 75 597 q 301 298 75 298 l 454 298 q 541 212 541 298 q 454 123 541 123 m 494 904 l 536 946 q 564 1004 564 972 q 547 1045 564 1029 q 504 1061 530 1061 q 443 1029 467 1061 l 304 840 q 286 800 286 818 q 316 774 286 774 q 494 904 366 774 "},"Ŝ":{"ha":749,"x_min":45,"x_max":697,"o":"m 410 122 l 224 122 q 100 93 156 122 q 45 25 45 63 q 75 0 45 0 l 414 0 q 622 75 547 0 q 697 292 697 151 q 422 551 697 551 l 322 551 q 189 696 189 551 q 229 804 189 766 q 339 842 269 842 l 496 842 q 619 871 564 842 q 675 937 675 901 q 646 965 675 965 l 339 965 q 134 893 211 965 q 57 694 57 821 q 319 428 57 428 l 414 428 q 529 394 494 428 q 564 288 564 359 q 523 164 564 207 q 410 122 481 122 m 559 1100 l 433 1272 q 372 1315 403 1315 q 311 1272 342 1315 l 184 1100 q 166 1060 166 1074 q 197 1034 166 1034 q 258 1061 222 1034 q 349 1141 293 1089 q 372 1157 364 1157 q 394 1143 380 1157 q 547 1034 507 1034 q 578 1060 578 1034 q 559 1100 578 1075 "},"ŝ":{"ha":745,"x_min":66,"x_max":675,"o":"m 454 123 l 248 123 q 122 94 178 123 q 66 26 66 64 q 97 0 66 0 l 449 0 q 616 56 558 0 q 675 215 675 111 q 449 421 675 421 l 296 421 q 208 500 208 421 q 296 583 208 583 l 478 583 q 602 612 547 583 q 657 679 657 642 q 628 705 657 705 l 301 705 q 136 651 196 705 q 75 498 75 597 q 301 298 75 298 l 454 298 q 541 212 541 298 q 454 123 541 123 m 554 840 l 428 1013 q 367 1055 397 1055 q 305 1013 336 1055 l 179 840 q 161 800 161 814 q 191 774 161 774 q 252 802 217 774 q 343 882 288 829 q 367 897 359 897 q 389 884 375 897 q 542 774 501 774 q 572 800 572 774 q 554 840 572 815 "},"Ş":{"ha":749,"x_min":45,"x_max":697,"o":"m 410 122 l 224 122 q 100 93 156 122 q 45 25 45 63 q 75 0 45 0 l 414 0 q 622 75 547 0 q 697 292 697 151 q 422 551 697 551 l 322 551 q 189 696 189 551 q 229 804 189 766 q 339 842 269 842 l 496 842 q 619 871 564 842 q 675 937 675 901 q 646 965 675 965 l 339 965 q 134 893 211 965 q 57 694 57 821 q 319 428 57 428 l 414 428 q 529 394 494 428 q 564 288 564 359 q 523 164 564 207 q 410 122 481 122 m 381 20 q 360 45 381 45 q 311 14 334 45 q 288 -60 288 -18 q 349 -117 288 -109 l 359 -118 q 422 -155 422 -127 q 351 -191 422 -191 l 249 -191 q 228 -207 228 -191 q 259 -258 228 -239 q 336 -278 291 -278 l 360 -278 q 519 -153 519 -278 q 494 -73 519 -100 q 403 -35 469 -45 q 381 -9 381 -31 l 381 20 "},"ş":{"ha":745,"x_min":66,"x_max":675,"o":"m 454 123 l 248 123 q 122 94 178 123 q 66 26 66 64 q 97 0 66 0 l 449 0 q 616 56 558 0 q 675 215 675 111 q 449 421 675 421 l 296 421 q 208 500 208 421 q 296 583 208 583 l 478 583 q 602 612 547 583 q 657 679 657 642 q 628 705 657 705 l 301 705 q 136 651 196 705 q 75 498 75 597 q 301 298 75 298 l 454 298 q 541 212 541 298 q 454 123 541 123 m 378 20 q 357 45 378 45 q 308 14 331 45 q 284 -60 284 -18 q 345 -117 284 -109 l 355 -118 q 419 -155 419 -127 q 347 -191 419 -191 l 245 -191 q 224 -207 224 -191 q 256 -258 224 -239 q 333 -278 288 -278 l 357 -278 q 516 -153 516 -278 q 491 -73 516 -100 q 399 -35 466 -45 q 378 -9 378 -31 l 378 20 "},"Ţ":{"ha":742,"x_min":12,"x_max":729,"o":"m 306 745 l 306 87 q 371 -7 306 -7 q 436 87 436 -7 l 436 745 q 457 820 436 798 q 532 842 477 842 l 604 842 q 693 870 657 842 q 729 939 729 898 q 700 965 729 965 l 138 965 q 48 937 84 965 q 12 868 12 909 q 41 842 12 842 l 210 842 q 286 820 265 842 q 306 745 306 798 m 371 20 q 350 45 371 45 q 301 14 324 45 q 277 -60 277 -18 q 338 -117 277 -109 l 349 -118 q 412 -155 412 -127 q 340 -191 412 -191 l 239 -191 q 218 -207 218 -191 q 249 -258 218 -239 q 326 -278 281 -278 l 350 -278 q 509 -153 509 -278 q 484 -73 509 -100 q 393 -35 459 -45 q 371 -9 371 -31 l 371 20 "},"ţ":{"ha":431,"x_min":16,"x_max":406,"o":"m 118 100 q 211 -7 118 -7 q 341 22 284 -7 q 397 89 397 50 q 368 117 397 117 l 323 117 q 257 134 267 117 q 248 199 248 152 l 248 549 q 279 583 248 583 q 370 612 334 583 q 406 679 406 640 q 375 705 406 705 l 278 705 q 248 741 248 705 l 248 768 q 219 862 248 825 q 163 900 191 900 q 118 822 118 900 l 118 750 q 85 710 118 713 q 16 644 16 699 q 85 583 16 583 q 118 549 118 583 l 118 100 m 240 20 q 219 45 240 45 q 170 14 193 45 q 146 -60 146 -18 q 208 -117 146 -109 l 218 -118 q 281 -155 281 -127 q 210 -191 281 -191 l 108 -191 q 87 -207 87 -191 q 118 -258 87 -239 q 195 -278 150 -278 l 219 -278 q 378 -153 378 -278 q 353 -73 378 -100 q 262 -35 328 -45 q 240 -9 240 -31 l 240 20 "},"Ť":{"ha":742,"x_min":12,"x_max":729,"o":"m 306 745 l 306 87 q 371 -7 306 -7 q 436 87 436 -7 l 436 745 q 457 820 436 798 q 532 842 477 842 l 604 842 q 693 870 657 842 q 729 939 729 898 q 700 965 729 965 l 138 965 q 48 937 84 965 q 12 868 12 909 q 41 842 12 842 l 210 842 q 286 820 265 842 q 306 745 306 798 m 183 1249 l 309 1076 q 371 1034 340 1034 q 432 1076 401 1034 l 558 1249 q 576 1289 576 1274 q 546 1315 576 1315 q 485 1287 520 1315 q 394 1207 450 1259 q 371 1192 378 1192 q 349 1206 363 1192 q 195 1315 235 1315 q 165 1289 165 1315 q 183 1249 165 1274 "},"ť":{"ha":524,"x_min":16,"x_max":621,"o":"m 118 100 q 211 -7 118 -7 q 341 22 284 -7 q 397 89 397 50 q 368 117 397 117 l 323 117 q 257 134 267 117 q 248 199 248 152 l 248 549 q 279 583 248 583 q 370 612 334 583 q 406 679 406 640 q 375 705 406 705 l 278 705 q 248 741 248 705 l 248 768 q 219 862 248 825 q 163 900 191 900 q 118 822 118 900 l 118 750 q 85 710 118 713 q 16 644 16 699 q 85 583 16 583 q 118 549 118 583 l 118 100 m 484 633 q 572 739 523 633 q 621 913 621 845 q 604 959 621 941 q 560 978 586 978 q 493 905 500 978 q 456 686 481 781 q 452 664 452 673 q 484 633 452 633 "},"Ŧ":{"ha":742,"x_min":12,"x_max":729,"o":"m 306 415 l 306 87 q 371 -7 306 -7 q 436 87 436 -7 l 436 415 l 513 415 q 603 442 566 415 q 639 509 639 469 q 608 534 639 534 l 436 534 l 436 745 q 457 820 436 798 q 532 842 477 842 l 604 842 q 693 870 657 842 q 729 939 729 898 q 700 965 729 965 l 138 965 q 48 937 84 965 q 12 868 12 909 q 41 842 12 842 l 210 842 q 286 820 265 842 q 306 745 306 798 l 306 534 l 232 534 q 141 507 176 534 q 106 441 106 480 q 136 415 106 415 l 306 415 "},"ŧ":{"ha":431,"x_min":16,"x_max":406,"o":"m 118 296 l 118 100 q 211 -7 118 -7 q 341 22 284 -7 q 397 89 397 50 q 368 117 397 117 l 323 117 q 257 134 267 117 q 248 199 248 152 l 248 296 l 273 296 q 365 323 329 296 q 400 387 400 350 q 370 414 400 414 l 248 414 l 248 549 q 279 583 248 583 q 370 612 334 583 q 406 679 406 640 q 375 705 406 705 l 278 705 q 248 741 248 705 l 248 768 q 219 862 248 825 q 163 900 191 900 q 118 822 118 900 l 118 750 q 85 710 118 713 q 16 644 16 699 q 85 583 16 583 q 118 549 118 583 l 118 414 q 43 384 71 410 q 16 322 16 357 q 46 296 16 296 l 118 296 "},"Ũ":{"ha":871,"x_min":100,"x_max":771,"o":"m 639 886 l 639 228 q 528 117 639 117 l 342 117 q 232 228 232 117 l 232 886 q 183 965 232 965 q 127 927 154 965 q 100 833 100 890 l 100 227 q 162 54 100 115 q 336 -7 225 -7 l 534 -7 q 709 54 647 -7 q 771 227 771 115 l 771 833 q 744 927 771 890 q 686 965 717 965 q 639 886 639 965 m 334 1116 q 422 1086 362 1116 q 550 1051 500 1051 q 638 1094 600 1051 q 677 1185 677 1137 q 653 1223 677 1223 q 625 1206 638 1223 q 553 1158 588 1158 q 454 1192 528 1158 q 335 1223 388 1223 q 247 1180 286 1223 q 208 1089 208 1136 q 232 1051 208 1051 q 261 1068 249 1051 q 334 1116 298 1116 "},"ũ":{"ha":787,"x_min":94,"x_max":690,"o":"m 330 -7 l 600 -7 q 690 87 690 -7 l 690 611 q 672 679 690 652 q 625 705 654 705 q 579 680 597 705 q 561 611 561 654 l 561 186 q 548 130 561 144 q 493 117 536 117 l 334 117 q 224 228 224 117 l 224 611 q 205 679 224 653 q 158 705 187 705 q 112 679 130 705 q 94 611 94 652 l 94 227 q 330 -7 94 -7 m 290 856 q 379 827 319 856 q 507 791 457 791 q 595 834 556 791 q 633 925 633 877 q 610 964 633 964 q 582 946 595 964 q 509 899 545 899 q 411 932 485 899 q 292 964 345 964 q 204 920 243 964 q 165 829 165 876 q 189 791 165 791 q 218 808 205 791 q 290 856 255 856 "},"Ū":{"ha":871,"x_min":100,"x_max":771,"o":"m 639 886 l 639 228 q 528 117 639 117 l 342 117 q 232 228 232 117 l 232 886 q 183 965 232 965 q 127 927 154 965 q 100 833 100 890 l 100 227 q 162 54 100 115 q 336 -7 225 -7 l 534 -7 q 709 54 647 -7 q 771 227 771 115 l 771 833 q 744 927 771 890 q 686 965 717 965 q 639 886 639 965 m 610 1193 l 364 1193 q 272 1165 307 1193 q 237 1100 237 1137 q 268 1074 237 1074 l 514 1074 q 604 1101 568 1074 q 640 1166 640 1128 q 610 1193 640 1193 "},"ū":{"ha":787,"x_min":94,"x_max":690,"o":"m 330 -7 l 600 -7 q 690 87 690 -7 l 690 611 q 672 679 690 652 q 625 705 654 705 q 579 680 597 705 q 561 611 561 654 l 561 186 q 548 130 561 144 q 493 117 536 117 l 334 117 q 224 228 224 117 l 224 611 q 205 679 224 653 q 158 705 187 705 q 112 679 130 705 q 94 611 94 652 l 94 227 q 330 -7 94 -7 m 568 933 l 322 933 q 230 905 265 933 q 195 840 195 878 q 226 814 195 814 l 472 814 q 562 841 526 814 q 598 907 598 868 q 568 933 598 933 "},"Ŭ":{"ha":871,"x_min":100,"x_max":771,"o":"m 639 886 l 639 228 q 528 117 639 117 l 342 117 q 232 228 232 117 l 232 886 q 183 965 232 965 q 127 927 154 965 q 100 833 100 890 l 100 227 q 162 54 100 115 q 336 -7 225 -7 l 534 -7 q 709 54 647 -7 q 771 227 771 115 l 771 833 q 744 927 771 890 q 686 965 717 965 q 639 886 639 965 m 640 1271 q 604 1247 622 1271 q 435 1165 536 1165 q 265 1247 330 1165 q 229 1271 245 1271 q 204 1239 204 1271 q 269 1105 204 1159 q 433 1051 333 1051 q 598 1107 530 1051 q 665 1239 665 1163 q 640 1271 665 1271 "},"ŭ":{"ha":787,"x_min":94,"x_max":690,"o":"m 330 -7 l 600 -7 q 690 87 690 -7 l 690 611 q 672 679 690 652 q 625 705 654 705 q 579 680 597 705 q 561 611 561 654 l 561 186 q 548 130 561 144 q 493 117 536 117 l 334 117 q 224 228 224 117 l 224 611 q 205 679 224 653 q 158 705 187 705 q 112 679 130 705 q 94 611 94 652 l 94 227 q 330 -7 94 -7 m 599 1011 q 563 987 581 1011 q 393 905 494 905 q 224 987 289 905 q 188 1011 204 1011 q 163 979 163 1011 q 227 845 163 899 q 392 791 292 791 q 556 847 489 791 q 624 979 624 903 q 599 1011 624 1011 "},"Ů":{"ha":871,"x_min":100,"x_max":771,"o":"m 639 886 l 639 228 q 528 117 639 117 l 342 117 q 232 228 232 117 l 232 886 q 183 965 232 965 q 127 927 154 965 q 100 833 100 890 l 100 227 q 162 54 100 115 q 336 -7 225 -7 l 534 -7 q 709 54 647 -7 q 771 227 771 115 l 771 833 q 744 927 771 890 q 686 965 717 965 q 639 886 639 965 m 282 1177 q 435 1034 282 1034 q 587 1177 587 1034 q 435 1321 587 1321 q 282 1177 282 1321 m 496 1177 q 435 1117 496 1117 q 374 1177 374 1117 q 435 1238 374 1238 q 496 1177 496 1238 "},"ů":{"ha":787,"x_min":94,"x_max":690,"o":"m 330 -7 l 600 -7 q 690 87 690 -7 l 690 611 q 672 679 690 652 q 625 705 654 705 q 579 680 597 705 q 561 611 561 654 l 561 186 q 548 130 561 144 q 493 117 536 117 l 334 117 q 224 228 224 117 l 224 611 q 205 679 224 653 q 158 705 187 705 q 112 679 130 705 q 94 611 94 652 l 94 227 q 330 -7 94 -7 m 240 917 q 393 774 240 774 q 545 917 545 774 q 393 1061 545 1061 q 240 917 240 1061 m 454 917 q 393 857 454 857 q 332 917 332 857 q 393 978 332 978 q 454 917 454 978 "},"Ű":{"ha":871,"x_min":100,"x_max":771,"o":"m 639 886 l 639 228 q 528 117 639 117 l 342 117 q 232 228 232 117 l 232 886 q 183 965 232 965 q 127 927 154 965 q 100 833 100 890 l 100 227 q 162 54 100 115 q 336 -7 225 -7 l 534 -7 q 709 54 647 -7 q 771 227 771 115 l 771 833 q 744 927 771 890 q 686 965 717 965 q 639 886 639 965 m 433 1164 l 472 1206 q 497 1264 497 1234 q 443 1322 497 1322 q 386 1291 407 1322 l 260 1100 q 241 1060 241 1078 q 269 1034 241 1034 q 433 1164 313 1034 m 659 1141 l 704 1177 q 739 1239 739 1202 q 724 1279 739 1262 q 685 1296 709 1296 q 632 1272 654 1296 l 478 1101 q 454 1059 454 1076 q 484 1034 454 1034 q 659 1141 519 1034 "},"ű":{"ha":787,"x_min":94,"x_max":709,"o":"m 330 -7 l 600 -7 q 690 87 690 -7 l 690 611 q 672 679 690 652 q 625 705 654 705 q 579 680 597 705 q 561 611 561 654 l 561 186 q 548 130 561 144 q 493 117 536 117 l 334 117 q 224 228 224 117 l 224 611 q 205 679 224 653 q 158 705 187 705 q 112 679 130 705 q 94 611 94 652 l 94 227 q 330 -7 94 -7 m 403 904 l 441 946 q 467 1004 467 975 q 412 1063 467 1063 q 355 1031 376 1063 l 229 840 q 211 800 211 818 q 239 774 211 774 q 403 904 283 774 m 628 882 l 673 917 q 709 979 709 942 q 693 1019 709 1002 q 654 1036 678 1036 q 602 1013 623 1036 l 448 842 q 424 799 424 816 q 453 774 424 774 q 628 882 489 774 "},"Ų":{"ha":871,"x_min":100,"x_max":771,"o":"m 639 886 l 639 228 q 528 117 639 117 l 342 117 q 232 228 232 117 l 232 886 q 183 965 232 965 q 127 927 154 965 q 100 833 100 890 l 100 227 q 162 54 100 115 q 336 -7 225 -7 l 534 -7 q 709 54 647 -7 q 771 227 771 115 l 771 833 q 744 927 771 890 q 686 965 717 965 q 639 886 639 965 m 425 14 q 319 -140 319 -54 q 467 -278 319 -278 q 543 -259 512 -278 q 574 -207 574 -239 q 553 -191 574 -191 l 485 -191 q 420 -129 420 -191 q 481 -35 420 -80 l 546 14 l 425 14 "},"ų":{"ha":787,"x_min":94,"x_max":693,"o":"m 330 -7 l 600 -7 q 690 87 690 -7 l 690 611 q 672 679 690 652 q 625 705 654 705 q 579 680 597 705 q 561 611 561 654 l 561 186 q 548 130 561 144 q 493 117 536 117 l 334 117 q 224 228 224 117 l 224 611 q 205 679 224 653 q 158 705 187 705 q 112 679 130 705 q 94 611 94 652 l 94 227 q 330 -7 94 -7 m 545 14 q 439 -140 439 -54 q 586 -278 439 -278 q 662 -259 631 -278 q 693 -207 693 -239 q 672 -191 693 -191 l 604 -191 q 539 -129 539 -191 q 600 -35 539 -80 l 665 14 l 545 14 "},"Ŵ":{"ha":1243,"x_min":100,"x_max":1143,"o":"m 318 -7 l 461 -7 q 602 47 551 -7 q 618 57 610 57 q 635 47 626 57 q 775 -7 686 -7 l 925 -7 q 1143 207 1143 -7 l 1143 871 q 1125 939 1143 913 q 1078 965 1107 965 q 1029 939 1048 965 q 1011 871 1011 913 l 1011 208 q 920 117 1011 117 l 777 117 q 688 208 688 117 l 688 777 q 669 844 688 817 q 621 871 650 871 q 574 845 593 871 q 555 777 555 819 l 555 208 q 467 117 555 117 l 321 117 q 232 208 232 117 l 232 871 q 214 939 232 913 q 165 965 195 965 q 118 940 136 965 q 100 871 100 915 l 100 207 q 318 -7 100 -7 m 808 1100 l 682 1272 q 621 1315 652 1315 q 559 1272 591 1315 l 433 1100 q 415 1060 415 1074 q 446 1034 415 1034 q 507 1061 471 1034 q 597 1141 542 1089 q 621 1157 613 1157 q 643 1143 629 1157 q 796 1034 755 1034 q 827 1060 827 1034 q 808 1100 827 1075 "},"ŵ":{"ha":1225,"x_min":94,"x_max":1131,"o":"m 770 -7 l 913 -7 q 1131 207 1131 -7 l 1131 611 q 1113 679 1131 652 q 1065 705 1095 705 q 1019 679 1037 705 q 1000 611 1000 653 l 1000 208 q 909 117 1000 117 l 768 117 q 677 208 677 117 l 677 611 q 660 679 677 652 q 612 705 642 705 q 566 680 584 705 q 549 611 549 654 l 549 208 q 457 117 549 117 l 315 117 q 224 208 224 117 l 224 611 q 206 679 224 652 q 160 705 189 705 q 113 679 131 705 q 94 611 94 653 l 94 207 q 313 -7 94 -7 l 456 -7 q 585 45 541 -7 q 612 64 600 64 q 636 53 625 64 q 770 -7 695 -7 m 800 840 l 674 1013 q 613 1055 644 1055 q 551 1013 583 1055 l 425 840 q 407 800 407 814 q 437 774 407 774 q 498 802 463 774 q 589 882 534 829 q 613 897 605 897 q 635 884 621 897 q 788 774 747 774 q 819 800 819 774 q 800 840 819 815 "},"Ŷ":{"ha":697,"x_min":12,"x_max":685,"o":"m 414 87 l 414 304 q 431 375 414 341 l 671 852 q 685 909 685 881 q 669 948 685 931 q 628 965 654 965 q 551 895 586 965 l 390 564 q 349 515 366 515 q 309 564 332 515 l 149 896 q 71 965 115 965 q 28 947 45 965 q 12 908 12 930 q 26 850 12 878 l 265 375 q 283 307 283 340 l 283 87 q 349 -7 283 -7 q 414 87 414 -7 m 536 1100 l 410 1272 q 349 1315 380 1315 q 288 1272 319 1315 l 161 1100 q 143 1060 143 1074 q 174 1034 143 1034 q 235 1061 199 1034 q 326 1141 270 1089 q 349 1157 341 1157 q 371 1143 357 1157 q 524 1034 484 1034 q 555 1060 555 1034 q 536 1100 555 1075 "},"ŷ":{"ha":787,"x_min":94,"x_max":690,"o":"m 224 248 l 224 611 q 205 679 224 653 q 158 705 187 705 q 112 679 130 705 q 94 611 94 652 l 94 245 q 313 32 94 32 l 467 32 q 559 -47 559 32 q 467 -132 559 -132 l 146 -132 q 117 -158 117 -132 q 172 -226 117 -196 q 296 -256 227 -256 l 467 -256 q 690 -37 690 -256 l 690 611 q 672 679 690 652 q 625 705 654 705 q 579 680 597 705 q 561 611 561 654 l 561 248 q 471 154 561 154 l 314 154 q 224 248 224 154 m 582 840 l 456 1013 q 395 1055 425 1055 q 333 1013 364 1055 l 207 840 q 189 800 189 814 q 219 774 189 774 q 280 802 245 774 q 371 882 315 829 q 395 897 387 897 q 416 884 403 897 q 570 774 529 774 q 600 800 600 774 q 582 840 600 815 "},"Ź":{"ha":721,"x_min":25,"x_max":679,"o":"m 81 0 l 525 0 q 635 28 591 0 q 679 96 679 56 q 647 122 679 122 l 265 122 q 225 144 225 122 q 243 184 225 156 l 647 840 q 676 913 676 893 q 658 951 676 938 q 616 965 640 965 l 220 965 q 110 936 154 965 q 65 868 65 906 q 96 842 65 842 l 435 842 q 475 817 475 842 q 461 779 475 801 l 56 125 q 25 54 25 75 q 41 16 25 31 q 81 0 57 0 m 513 1164 l 554 1206 q 582 1264 582 1232 q 565 1305 582 1289 q 522 1321 549 1321 q 461 1289 485 1321 l 322 1100 q 304 1060 304 1078 q 334 1034 304 1034 q 513 1164 385 1034 "},"ź":{"ha":693,"x_min":35,"x_max":639,"o":"m 89 0 l 458 0 q 584 29 528 0 q 639 96 639 58 q 608 122 639 122 l 296 122 q 256 147 256 122 q 273 184 256 162 l 589 583 q 618 650 618 621 q 600 689 618 672 q 559 705 581 705 l 232 705 q 109 676 164 705 q 53 608 53 646 q 83 583 53 583 l 355 583 q 396 554 396 583 q 382 521 396 538 l 65 123 q 35 56 35 87 q 50 16 35 33 q 89 0 65 0 m 474 904 l 515 946 q 543 1004 543 972 q 527 1045 543 1029 q 484 1061 510 1061 q 422 1029 446 1061 l 283 840 q 265 800 265 818 q 296 774 265 774 q 474 904 346 774 "},"Ż":{"ha":721,"x_min":25,"x_max":679,"o":"m 81 0 l 525 0 q 635 28 591 0 q 679 96 679 56 q 647 122 679 122 l 265 122 q 225 144 225 122 q 243 184 225 156 l 647 840 q 676 913 676 893 q 658 951 676 938 q 616 965 640 965 l 220 965 q 110 936 154 965 q 65 868 65 906 q 96 842 65 842 l 435 842 q 475 817 475 842 q 461 779 475 801 l 56 125 q 25 54 25 75 q 41 16 25 31 q 81 0 57 0 m 375 1238 q 313 1152 313 1238 q 375 1067 313 1067 q 420 1088 401 1067 q 439 1152 439 1109 q 420 1216 439 1194 q 375 1238 401 1238 "},"ż":{"ha":693,"x_min":35,"x_max":639,"o":"m 89 0 l 458 0 q 584 29 528 0 q 639 96 639 58 q 608 122 639 122 l 296 122 q 256 147 256 122 q 273 184 256 162 l 589 583 q 618 650 618 621 q 600 689 618 672 q 559 705 581 705 l 232 705 q 109 676 164 705 q 53 608 53 646 q 83 583 53 583 l 355 583 q 396 554 396 583 q 382 521 396 538 l 65 123 q 35 56 35 87 q 50 16 35 33 q 89 0 65 0 m 346 978 q 283 892 283 978 q 346 807 283 807 q 391 828 372 807 q 410 892 410 850 q 391 956 410 935 q 346 978 372 978 "},"ſ":{"ha":416,"x_min":16,"x_max":486,"o":"m 248 87 l 248 762 q 267 827 248 807 q 328 854 286 848 q 451 898 416 869 q 486 950 486 926 q 456 978 486 978 l 336 978 q 118 764 118 978 l 118 755 q 112 724 118 734 q 85 710 106 713 q 16 644 16 699 q 85 583 16 583 q 118 549 118 583 l 118 87 q 183 -7 118 -7 q 230 20 213 -7 q 248 87 248 47 "},"Ǻ":{"ha":871,"x_min":100,"x_max":771,"o":"m 561 1255 l 596 1279 q 624 1337 624 1300 q 566 1390 624 1390 q 503 1360 534 1390 l 359 1221 q 343 1187 343 1204 q 374 1161 343 1161 q 561 1255 420 1161 m 100 696 l 100 87 q 165 -7 100 -7 q 232 87 232 -7 l 232 268 q 253 344 232 322 q 328 366 273 366 l 543 366 q 619 344 599 366 q 639 268 639 323 l 639 87 q 704 -7 639 -7 q 771 87 771 -7 l 771 696 q 721 855 771 794 q 575 926 671 916 q 587 989 587 956 q 435 1133 587 1133 q 282 989 282 1133 q 296 926 282 955 q 150 855 200 916 q 100 696 100 794 m 496 989 q 435 929 496 929 q 374 989 374 929 q 435 1050 374 1050 q 496 989 496 1050 m 639 694 l 639 585 q 618 509 639 531 q 543 488 597 488 l 328 488 q 253 509 273 488 q 232 585 232 531 l 232 694 q 342 806 232 806 l 529 806 q 639 694 639 806 "},"ǻ":{"ha":766,"x_min":56,"x_max":685,"o":"m 519 1150 l 554 1174 q 582 1232 582 1193 q 524 1284 582 1284 q 461 1254 493 1284 l 318 1116 q 301 1082 301 1097 q 332 1055 301 1055 q 519 1150 381 1055 m 241 884 q 395 741 241 741 q 547 884 547 741 q 395 1028 547 1028 q 241 884 241 1028 m 456 884 q 395 823 456 823 q 334 884 334 823 q 395 945 334 945 q 456 884 456 945 m 147 583 l 460 583 q 554 504 554 583 q 461 418 554 418 l 282 418 q 56 203 56 418 q 282 -7 56 -7 l 463 -7 q 685 207 685 -7 l 685 488 q 460 705 685 705 l 296 705 q 172 676 228 705 q 117 608 117 646 q 147 583 117 583 m 278 296 l 461 296 q 554 205 554 296 q 461 117 554 117 l 278 117 q 191 205 191 117 q 278 296 191 296 "},"Ǽ":{"ha":1192,"x_min":100,"x_max":1164,"o":"m 811 842 l 1006 842 q 1117 870 1072 842 q 1162 937 1162 899 q 1132 965 1162 965 l 336 965 q 162 904 225 965 q 100 732 100 843 l 100 87 q 165 -7 100 -7 q 232 87 232 -7 l 232 290 q 253 366 232 345 q 328 387 274 387 l 488 387 q 564 366 543 387 q 585 290 585 345 l 585 87 q 652 0 585 0 l 1007 0 q 1118 29 1072 0 q 1164 97 1164 58 q 1133 123 1164 123 l 811 123 q 736 145 756 123 q 715 221 715 168 l 715 351 q 736 417 715 397 q 811 437 758 437 l 961 437 q 1052 466 1016 437 q 1088 534 1088 495 q 1057 559 1088 559 l 811 559 q 736 582 756 559 q 715 657 715 604 l 715 755 q 736 821 715 801 q 811 842 758 842 m 585 730 l 585 607 q 563 532 585 554 q 488 510 541 510 l 328 510 q 253 531 274 510 q 232 607 232 552 l 232 730 q 342 842 232 842 l 473 842 q 585 730 585 842 m 749 1164 l 790 1206 q 818 1264 818 1232 q 801 1305 818 1289 q 758 1321 785 1321 q 697 1289 721 1321 l 558 1100 q 540 1060 540 1078 q 570 1034 540 1034 q 749 1164 621 1034 "},"ǽ":{"ha":1249,"x_min":56,"x_max":1169,"o":"m 1112 117 l 778 117 q 684 203 684 117 q 777 296 684 296 l 1032 296 q 1137 328 1105 296 q 1169 429 1169 360 l 1169 500 q 943 705 1169 705 l 777 705 q 635 659 680 705 q 621 650 627 650 q 607 659 615 650 q 460 705 562 705 l 296 705 q 172 676 228 705 q 117 608 117 646 q 147 583 117 583 l 460 583 q 554 504 554 583 q 461 418 554 418 l 282 418 q 56 203 56 418 q 282 -7 56 -7 l 463 -7 q 601 39 555 -7 q 616 47 609 47 q 633 39 624 47 q 778 -7 680 -7 l 962 -7 q 1086 22 1029 -7 q 1143 89 1143 51 q 1112 117 1143 117 m 950 418 l 777 418 q 684 500 684 418 q 777 583 684 583 l 950 583 q 1038 500 1038 583 q 950 418 1038 418 m 278 296 l 461 296 q 554 205 554 296 q 461 117 554 117 l 278 117 q 191 205 191 117 q 278 296 191 296 m 777 904 l 818 946 q 846 1004 846 972 q 829 1045 846 1029 q 786 1061 812 1061 q 725 1029 749 1061 l 586 840 q 568 800 568 818 q 598 774 568 774 q 777 904 648 774 "},"Ǿ":{"ha":893,"x_min":92,"x_max":802,"o":"m 313 -7 l 564 -7 q 739 55 676 -7 q 802 227 802 116 l 802 739 q 711 932 802 871 q 718 970 718 949 q 667 1021 718 1021 q 604 968 631 1021 q 564 971 581 971 l 328 971 q 154 911 216 971 q 92 739 92 851 l 92 227 q 191 26 92 83 q 174 -32 174 -8 q 225 -83 174 -83 q 300 -5 269 -83 q 313 -7 307 -7 m 224 214 l 224 737 q 334 848 224 848 l 551 848 l 243 146 q 224 214 224 169 m 668 751 l 668 228 q 558 117 668 117 l 353 117 l 656 806 q 668 751 668 784 m 568 1164 l 610 1206 q 637 1264 637 1232 q 621 1305 637 1289 q 578 1321 604 1321 q 517 1289 541 1321 l 378 1100 q 359 1060 359 1078 q 390 1034 359 1034 q 568 1164 440 1034 "},"ǿ":{"ha":799,"x_min":82,"x_max":717,"o":"m 302 -7 l 498 -7 q 717 207 717 -7 l 717 492 q 607 686 717 640 q 615 729 615 711 q 564 781 615 781 q 492 705 526 781 l 298 705 q 82 492 82 705 l 82 207 q 186 12 82 59 q 176 -32 176 -11 q 228 -83 176 -83 q 302 -7 269 -83 m 211 208 l 211 490 q 301 583 211 583 l 437 583 l 240 135 q 211 208 211 158 m 586 490 l 586 208 q 496 117 586 117 l 357 117 l 554 566 q 586 490 586 541 m 538 904 l 579 946 q 607 1004 607 972 q 590 1045 607 1029 q 547 1061 574 1061 q 486 1029 510 1061 l 347 840 q 329 800 329 818 q 359 774 329 774 q 538 904 410 774 "},"Ș":{"ha":749,"x_min":45,"x_max":697,"o":"m 410 122 l 224 122 q 100 93 156 122 q 45 25 45 63 q 75 0 45 0 l 414 0 q 622 75 547 0 q 697 292 697 151 q 422 551 697 551 l 322 551 q 189 696 189 551 q 229 804 189 766 q 339 842 269 842 l 496 842 q 619 871 564 842 q 675 937 675 901 q 646 965 675 965 l 339 965 q 134 893 211 965 q 57 694 57 821 q 319 428 57 428 l 414 428 q 529 394 494 428 q 564 288 564 359 q 523 164 564 207 q 410 122 481 122 m 263 -214 q 256 -248 256 -232 q 283 -278 256 -278 q 364 -205 311 -278 q 417 -90 417 -132 q 366 -33 417 -33 q 299 -98 319 -33 l 263 -214 "},"ș":{"ha":745,"x_min":66,"x_max":675,"o":"m 454 123 l 248 123 q 122 94 178 123 q 66 26 66 64 q 97 0 66 0 l 449 0 q 616 56 558 0 q 675 215 675 111 q 449 421 675 421 l 296 421 q 208 500 208 421 q 296 583 208 583 l 478 583 q 602 612 547 583 q 657 679 657 642 q 628 705 657 705 l 301 705 q 136 651 196 705 q 75 498 75 597 q 301 298 75 298 l 454 298 q 541 212 541 298 q 454 123 541 123 m 279 -214 q 272 -248 272 -232 q 300 -278 272 -278 q 380 -205 328 -278 q 433 -90 433 -132 q 382 -33 433 -33 q 315 -98 336 -33 l 279 -214 "},"Ț":{"ha":742,"x_min":12,"x_max":729,"o":"m 306 745 l 306 87 q 371 -7 306 -7 q 436 87 436 -7 l 436 745 q 457 820 436 798 q 532 842 477 842 l 604 842 q 693 870 657 842 q 729 939 729 898 q 700 965 729 965 l 138 965 q 48 937 84 965 q 12 868 12 909 q 41 842 12 842 l 210 842 q 286 820 265 842 q 306 745 306 798 m 279 -214 q 272 -248 272 -232 q 300 -278 272 -278 q 380 -205 328 -278 q 433 -90 433 -132 q 382 -33 433 -33 q 315 -98 336 -33 l 279 -214 "},"ț":{"ha":431,"x_min":16,"x_max":406,"o":"m 118 100 q 211 -7 118 -7 q 341 22 284 -7 q 397 89 397 50 q 368 117 397 117 l 323 117 q 257 134 267 117 q 248 199 248 152 l 248 549 q 279 583 248 583 q 370 612 334 583 q 406 679 406 640 q 375 705 406 705 l 278 705 q 248 741 248 705 l 248 768 q 219 862 248 825 q 163 900 191 900 q 118 822 118 900 l 118 750 q 85 710 118 713 q 16 644 16 699 q 85 583 16 583 q 118 549 118 583 l 118 100 m 144 -214 q 136 -248 136 -232 q 164 -278 136 -278 q 245 -205 192 -278 q 298 -90 298 -132 q 246 -33 298 -33 q 180 -98 200 -33 l 144 -214 "},"ȷ":{"ha":323,"x_min":-65,"x_max":227,"o":"m 57 -92 l -52 -200 q -65 -224 -65 -216 q -9 -256 -65 -256 q 81 -228 31 -256 q 179 -141 131 -200 q 227 25 227 -83 l 227 611 q 209 679 227 652 q 163 705 191 705 q 115 680 134 705 q 97 611 97 655 l 97 25 q 57 -92 97 -52 "},"ˉ":{"ha":550,"x_min":69,"x_max":472,"o":"m 441 933 l 196 933 q 104 905 139 933 q 69 840 69 878 q 100 814 69 814 l 346 814 q 436 841 399 814 q 472 907 472 868 q 441 933 472 933 "},"΄":{"ha":354,"x_min":106,"x_max":300,"o":"m 114 842 q 106 802 106 817 q 135 774 106 774 q 236 886 173 774 q 300 1042 300 998 q 283 1084 300 1067 q 241 1101 267 1101 q 178 1050 193 1101 l 114 842 "},"΅":{"ha":599,"x_min":62,"x_max":536,"o":"m 250 885 q 241 844 241 857 q 271 817 241 817 q 372 929 309 817 q 436 1084 436 1041 q 419 1128 436 1111 q 378 1145 403 1145 q 314 1093 330 1145 l 250 885 m 132 936 q 62 854 62 936 q 132 774 62 774 q 182 794 161 774 q 203 854 203 814 q 182 916 203 895 q 132 936 161 936 m 464 936 q 396 854 396 936 q 464 774 396 774 q 536 854 536 774 q 515 915 536 895 q 464 936 494 936 "},"Ά":{"ha":1034,"x_min":1,"x_max":934,"o":"m 262 732 l 262 87 q 328 -7 262 -7 q 395 87 395 -7 l 395 290 q 416 366 395 345 q 490 387 437 387 l 706 387 q 781 367 760 387 q 802 290 802 346 l 802 87 q 867 -7 802 -7 q 934 87 934 -7 l 934 732 q 872 904 934 843 q 697 965 810 965 l 499 965 q 325 904 388 965 q 262 732 262 843 m 802 730 l 802 607 q 781 532 802 553 q 706 510 760 510 l 490 510 q 416 531 437 510 q 395 607 395 552 l 395 730 q 505 842 395 842 l 692 842 q 802 730 802 842 m 9 719 q 1 679 1 694 q 30 651 1 651 q 131 763 68 651 q 195 919 195 876 q 178 962 195 945 q 136 979 162 979 q 73 927 88 979 l 9 719 "},"·":{"ha":309,"x_min":69,"x_max":237,"o":"m 153 563 q 69 478 69 563 q 153 395 69 395 q 214 417 191 395 q 237 478 237 439 q 214 539 237 516 q 153 563 191 563 "},"Έ":{"ha":896,"x_min":1,"x_max":868,"o":"m 515 842 l 709 842 q 821 870 775 842 q 866 937 866 899 q 836 965 866 965 l 376 965 q 289 871 289 965 l 289 94 q 376 0 289 0 l 711 0 q 822 29 776 0 q 868 97 868 58 q 837 123 868 123 l 515 123 q 439 145 460 123 q 419 221 419 168 l 419 340 q 439 415 419 393 q 515 437 460 437 l 665 437 q 755 466 719 437 q 791 534 791 494 q 761 559 791 559 l 515 559 q 439 582 460 559 q 419 657 419 604 l 419 745 q 439 820 419 798 q 515 842 460 842 m 9 719 q 1 679 1 694 q 30 651 1 651 q 131 763 68 651 q 195 919 195 876 q 178 962 195 945 q 136 979 162 979 q 73 927 88 979 l 9 719 "},"Ή":{"ha":1054,"x_min":1,"x_max":953,"o":"m 511 437 l 726 437 q 801 415 781 437 q 822 340 822 393 l 822 87 q 887 -7 822 -7 q 953 87 953 -7 l 953 833 q 926 928 953 890 q 869 965 899 965 q 822 886 822 965 l 822 659 q 801 583 822 605 q 726 561 781 561 l 511 561 q 436 583 456 561 q 415 659 415 605 l 415 886 q 368 965 415 965 q 312 928 338 965 q 285 833 285 891 l 285 87 q 350 -7 285 -7 q 415 87 415 -7 l 415 340 q 436 415 415 393 q 511 437 456 437 m 9 719 q 1 679 1 694 q 30 651 1 651 q 131 763 68 651 q 195 919 195 876 q 178 962 195 945 q 136 979 162 979 q 73 927 88 979 l 9 719 "},"Ί":{"ha":621,"x_min":1,"x_max":600,"o":"m 488 207 l 488 758 q 497 835 488 817 q 531 861 507 854 q 600 939 600 884 q 576 965 600 965 l 345 965 q 246 882 246 965 q 265 856 246 856 l 319 856 q 359 758 359 856 l 359 207 q 349 132 359 151 q 315 104 340 112 q 246 26 246 82 q 270 0 246 0 l 502 0 q 600 83 600 0 q 581 110 600 110 l 525 110 q 488 207 488 110 m 9 719 q 1 679 1 694 q 30 651 1 651 q 131 763 68 651 q 195 919 195 876 q 178 962 195 945 q 136 979 162 979 q 73 927 88 979 l 9 719 "},"Ό":{"ha":1064,"x_min":1,"x_max":972,"o":"m 498 -7 l 734 -7 q 910 55 847 -7 q 972 227 972 116 l 972 739 q 910 910 972 849 q 734 971 848 971 l 498 971 q 325 911 387 971 q 262 739 262 851 l 262 227 q 325 54 262 115 q 498 -7 388 -7 m 395 228 l 395 737 q 505 848 395 848 l 729 848 q 839 737 839 848 l 839 228 q 729 117 839 117 l 505 117 q 395 228 395 117 m 9 719 q 1 679 1 694 q 30 651 1 651 q 131 763 68 651 q 195 919 195 876 q 178 962 195 945 q 136 979 162 979 q 73 927 88 979 l 9 719 "},"Ύ":{"ha":926,"x_min":1,"x_max":914,"o":"m 643 87 l 643 304 q 660 375 643 341 l 900 852 q 914 909 914 881 q 899 948 914 931 q 857 965 883 965 q 781 895 815 965 l 619 564 q 578 515 595 515 q 538 564 561 515 l 378 896 q 300 965 344 965 q 258 947 274 965 q 241 908 241 930 q 256 850 241 878 l 494 375 q 513 307 513 340 l 513 87 q 578 -7 513 -7 q 643 87 643 -7 m 9 719 q 1 679 1 694 q 30 651 1 651 q 131 763 68 651 q 195 919 195 876 q 178 962 195 945 q 136 979 162 979 q 73 927 88 979 l 9 719 "},"Ώ":{"ha":1129,"x_min":1,"x_max":1092,"o":"m 1063 123 l 881 123 l 907 143 q 1017 259 996 209 q 1038 392 1038 310 l 1038 711 q 969 904 1038 836 q 774 971 900 971 l 518 971 q 323 903 391 971 q 254 711 254 836 l 254 392 q 282 247 254 296 q 385 143 311 199 l 412 123 l 326 123 q 236 95 272 123 q 200 26 200 67 q 229 0 200 0 l 531 0 q 591 18 571 0 q 612 61 612 36 q 559 144 612 100 l 482 210 q 401 303 415 267 q 387 395 387 339 l 387 710 q 524 848 387 848 l 768 848 q 906 710 906 848 l 906 395 q 887 294 906 329 q 810 210 867 259 l 734 144 q 681 61 681 99 q 701 18 681 36 q 762 0 722 0 l 967 0 q 1056 28 1020 0 q 1092 97 1092 56 q 1063 123 1092 123 m 9 719 q 1 679 1 694 q 30 651 1 651 q 131 763 68 651 q 195 919 195 876 q 178 962 195 945 q 136 979 162 979 q 73 927 88 979 l 9 719 "},"ΐ":{"ha":410,"x_min":-63,"x_max":411,"o":"m 97 100 q 191 -7 97 -7 q 320 22 264 -7 q 376 89 376 50 q 347 117 376 117 l 302 117 q 236 134 246 117 q 227 199 227 152 l 227 611 q 209 679 227 652 q 163 705 191 705 q 115 680 134 705 q 97 611 97 655 l 97 100 m 125 885 q 116 844 116 857 q 145 817 116 817 q 247 929 183 817 q 311 1084 311 1041 q 294 1128 311 1111 q 252 1145 277 1145 q 189 1093 204 1145 l 125 885 m 7 936 q -63 854 -63 936 q 7 774 -63 774 q 57 794 36 774 q 77 854 77 814 q 57 916 77 895 q 7 936 36 936 m 338 936 q 271 854 271 936 q 338 774 271 774 q 411 854 411 774 q 390 915 411 895 q 338 936 368 936 "},"Α":{"ha":871,"x_min":100,"x_max":771,"o":"m 100 732 l 100 87 q 165 -7 100 -7 q 232 87 232 -7 l 232 290 q 253 366 232 345 q 328 387 274 387 l 543 387 q 618 367 597 387 q 639 290 639 346 l 639 87 q 704 -7 639 -7 q 771 87 771 -7 l 771 732 q 709 904 771 843 q 534 965 647 965 l 336 965 q 162 904 225 965 q 100 732 100 843 m 639 730 l 639 607 q 618 532 639 553 q 543 510 597 510 l 328 510 q 253 531 274 510 q 232 607 232 552 l 232 730 q 342 842 232 842 l 529 842 q 639 730 639 842 "},"Β":{"ha":848,"x_min":102,"x_max":772,"o":"m 102 871 l 102 94 q 195 0 102 0 l 538 0 q 710 62 648 0 q 772 233 772 125 l 772 329 q 758 420 772 390 q 708 478 743 451 q 692 500 692 491 q 707 522 692 507 q 771 665 771 575 l 771 746 q 706 908 771 850 q 530 965 642 965 l 195 965 q 127 939 152 965 q 102 871 102 913 m 559 555 l 328 555 q 254 577 275 555 q 232 653 232 598 l 232 745 q 254 820 232 798 q 328 842 275 842 l 530 842 q 639 741 639 842 l 639 652 q 559 555 639 555 m 232 220 l 232 335 q 253 410 232 389 q 328 432 273 432 l 530 432 q 640 329 640 432 l 640 232 q 530 122 640 122 l 328 122 q 253 144 273 122 q 232 220 232 165 "},"Γ":{"ha":694,"x_min":102,"x_max":681,"o":"m 328 842 l 524 842 q 635 870 589 842 q 681 937 681 899 q 650 965 681 965 l 189 965 q 102 871 102 965 l 102 87 q 167 -7 102 -7 q 232 87 232 -7 l 232 745 q 253 820 232 798 q 328 842 273 842 "},"Δ":{"ha":804,"x_min":12,"x_max":791,"o":"m 72 0 l 732 0 q 773 17 755 0 q 791 57 791 33 q 779 117 791 85 l 475 909 q 401 978 449 978 q 329 909 355 978 l 25 117 q 12 57 12 84 q 28 17 12 34 q 72 0 45 0 m 182 170 l 367 663 q 400 717 387 717 q 435 663 414 717 l 619 168 q 625 143 625 155 q 596 123 625 123 l 210 123 q 176 144 176 123 q 182 170 176 155 "},"∆":{"ha":804,"x_min":12,"x_max":791,"o":"m 72 0 q 28 17 45 0 q 12 57 12 34 q 25 117 12 84 l 329 909 q 401 978 355 978 q 475 909 449 978 l 779 117 q 791 57 791 85 q 773 17 791 33 q 732 0 755 0 l 72 0 m 182 170 q 176 144 176 155 q 210 123 176 123 l 596 123 q 625 143 625 123 q 619 168 625 155 l 435 663 q 400 717 414 717 q 367 663 387 717 l 182 170 "},"Ε":{"ha":708,"x_min":102,"x_max":681,"o":"m 328 842 l 522 842 q 633 870 588 842 q 679 937 679 899 q 648 965 679 965 l 189 965 q 102 871 102 965 l 102 94 q 189 0 102 0 l 524 0 q 635 29 589 0 q 681 97 681 58 q 650 123 681 123 l 328 123 q 252 145 273 123 q 232 221 232 168 l 232 340 q 252 415 232 393 q 328 437 273 437 l 478 437 q 568 466 532 437 q 604 534 604 494 q 574 559 604 559 l 328 559 q 252 582 273 559 q 232 657 232 604 l 232 745 q 252 820 232 798 q 328 842 273 842 "},"Ζ":{"ha":721,"x_min":25,"x_max":679,"o":"m 81 0 l 525 0 q 635 28 591 0 q 679 96 679 56 q 647 122 679 122 l 265 122 q 225 144 225 122 q 243 184 225 156 l 647 840 q 676 913 676 893 q 658 951 676 938 q 616 965 640 965 l 220 965 q 110 936 154 965 q 65 868 65 906 q 96 842 65 842 l 435 842 q 475 817 475 842 q 461 779 475 801 l 56 125 q 25 54 25 75 q 41 16 25 31 q 81 0 57 0 "},"Η":{"ha":871,"x_min":102,"x_max":770,"o":"m 328 437 l 543 437 q 618 415 597 437 q 639 340 639 393 l 639 87 q 704 -7 639 -7 q 770 87 770 -7 l 770 833 q 743 928 770 890 q 686 965 716 965 q 639 886 639 965 l 639 659 q 618 583 639 605 q 543 561 597 561 l 328 561 q 253 583 273 561 q 232 659 232 605 l 232 886 q 184 965 232 965 q 129 928 155 965 q 102 833 102 891 l 102 87 q 167 -7 102 -7 q 232 87 232 -7 l 232 340 q 253 415 232 393 q 328 437 273 437 "},"Θ":{"ha":935,"x_min":92,"x_max":843,"o":"m 328 -7 l 606 -7 q 780 55 717 -7 q 843 227 843 116 l 843 739 q 781 910 843 850 q 606 971 718 971 l 328 971 q 154 911 216 971 q 92 739 92 851 l 92 227 q 154 54 92 115 q 328 -7 217 -7 m 224 228 l 224 737 q 334 848 224 848 l 600 848 q 711 737 711 848 l 711 228 q 600 117 711 117 l 334 117 q 224 228 224 117 m 624 559 l 406 559 q 316 532 353 559 q 279 464 279 504 q 310 437 279 437 l 528 437 q 618 466 583 437 q 654 533 654 495 q 624 559 654 559 "},"Ι":{"ha":396,"x_min":21,"x_max":375,"o":"m 262 207 l 262 758 q 272 835 262 817 q 306 861 282 854 q 375 939 375 884 q 351 965 375 965 l 119 965 q 21 882 21 965 q 40 856 21 856 l 94 856 q 134 758 134 856 l 134 207 q 124 132 134 151 q 90 104 115 112 q 21 26 21 82 q 45 0 21 0 l 277 0 q 375 83 375 0 q 355 110 375 110 l 300 110 q 262 207 262 110 "},"Κ":{"ha":793,"x_min":102,"x_max":793,"o":"m 102 833 l 102 87 q 167 -7 102 -7 q 232 87 232 -7 l 232 371 q 264 422 232 422 q 317 392 292 422 l 572 85 q 737 -7 649 -7 q 793 31 793 -7 q 782 56 793 43 l 453 439 q 414 507 414 484 q 456 572 414 528 l 711 839 q 754 911 754 882 q 738 951 754 937 q 700 966 722 966 q 631 933 663 966 l 318 610 q 264 583 292 583 q 232 637 232 583 l 232 886 q 184 965 232 965 q 129 928 155 965 q 102 833 102 891 "},"Λ":{"ha":804,"x_min":12,"x_max":791,"o":"m 475 903 q 401 971 449 971 q 329 903 355 971 l 25 110 q 12 50 12 77 q 28 10 12 27 q 72 -7 45 -7 q 146 64 119 -7 l 367 653 q 400 699 384 699 q 435 653 418 699 l 656 64 q 732 -7 682 -7 q 773 10 755 -7 q 791 50 791 26 q 779 110 791 78 l 475 903 "},"Μ":{"ha":1082,"x_min":102,"x_max":981,"o":"m 981 87 l 981 871 q 916 965 981 965 q 836 896 873 965 l 585 419 q 541 370 558 370 q 497 419 524 370 l 243 900 q 165 965 208 965 q 102 871 102 965 l 102 87 q 165 -7 102 -7 q 231 87 231 -7 l 231 661 l 463 216 q 541 149 499 149 q 618 220 581 149 l 850 661 l 850 87 q 916 -7 850 -7 q 964 20 947 -7 q 981 87 981 47 "},"Ν":{"ha":901,"x_min":102,"x_max":800,"o":"m 232 699 l 615 85 q 673 13 648 32 q 732 -7 698 -7 q 800 87 800 -7 l 800 833 q 773 928 800 890 q 717 965 747 965 q 669 886 669 965 l 669 237 l 235 924 q 167 965 210 965 q 102 871 102 965 l 102 87 q 165 -7 102 -7 q 232 87 232 -7 l 232 699 "},"Ξ":{"ha":664,"x_min":28,"x_max":636,"o":"m 604 965 l 186 965 q 75 937 121 965 q 29 869 29 909 q 60 842 29 842 l 478 842 q 589 870 544 842 q 635 937 635 899 q 604 965 635 965 m 529 559 l 231 559 q 141 531 177 559 q 104 463 104 503 q 135 437 104 437 l 433 437 q 523 466 487 437 q 559 534 559 494 q 529 559 559 559 m 606 123 l 184 123 q 74 95 119 123 q 28 26 28 66 q 58 0 28 0 l 479 0 q 590 29 545 0 q 636 97 636 58 q 606 123 636 123 "},"Ο":{"ha":893,"x_min":92,"x_max":802,"o":"m 328 -7 l 564 -7 q 739 55 676 -7 q 802 227 802 116 l 802 739 q 739 910 802 849 q 564 971 677 971 l 328 971 q 154 911 216 971 q 92 739 92 851 l 92 227 q 154 54 92 115 q 328 -7 217 -7 m 224 228 l 224 737 q 334 848 224 848 l 558 848 q 668 737 668 848 l 668 228 q 558 117 668 117 l 334 117 q 224 228 224 117 "},"Π":{"ha":871,"x_min":102,"x_max":770,"o":"m 328 842 l 543 842 q 618 820 597 842 q 639 745 639 798 l 639 87 q 704 -7 639 -7 q 770 87 770 -7 l 770 861 q 751 940 770 914 q 686 965 733 965 l 184 965 q 102 861 102 965 l 102 87 q 167 -7 102 -7 q 232 87 232 -7 l 232 745 q 253 820 232 798 q 328 842 273 842 "},"Ρ":{"ha":799,"x_min":102,"x_max":743,"o":"m 232 87 l 232 286 q 253 361 232 339 q 328 383 273 383 l 503 383 q 681 443 618 383 q 743 616 743 502 l 743 746 q 679 908 743 850 q 503 965 614 965 l 195 965 q 127 939 152 965 q 102 871 102 913 l 102 87 q 167 -7 102 -7 q 232 87 232 -7 m 232 604 l 232 745 q 253 820 232 798 q 328 842 273 842 l 503 842 q 611 743 611 842 l 611 612 q 504 507 611 507 l 328 507 q 253 528 274 507 q 232 604 232 549 "},"Σ":{"ha":714,"x_min":25,"x_max":679,"o":"m 642 965 l 102 965 q 41 913 41 965 q 71 843 41 882 l 302 530 q 314 504 314 515 q 306 481 314 492 l 56 125 q 25 54 25 82 q 41 16 25 31 q 81 0 57 0 l 525 0 q 635 28 591 0 q 679 96 679 56 q 647 122 679 122 l 267 122 q 227 144 227 122 q 243 184 227 161 l 450 478 q 461 510 461 494 q 447 547 461 528 l 271 779 q 257 817 257 798 q 297 842 257 842 l 518 842 q 627 871 581 842 q 672 939 672 900 q 642 965 672 965 "},"Τ":{"ha":742,"x_min":12,"x_max":729,"o":"m 306 745 l 306 87 q 371 -7 306 -7 q 436 87 436 -7 l 436 745 q 457 820 436 798 q 532 842 477 842 l 604 842 q 693 870 657 842 q 729 939 729 898 q 700 965 729 965 l 138 965 q 48 937 84 965 q 12 868 12 909 q 41 842 12 842 l 210 842 q 286 820 265 842 q 306 745 306 798 "},"Υ":{"ha":697,"x_min":12,"x_max":685,"o":"m 414 87 l 414 304 q 431 375 414 341 l 671 852 q 685 909 685 881 q 669 948 685 931 q 628 965 654 965 q 551 895 586 965 l 390 564 q 349 515 366 515 q 309 564 332 515 l 149 896 q 71 965 115 965 q 28 947 45 965 q 12 908 12 930 q 26 850 12 878 l 265 375 q 283 307 283 340 l 283 87 q 349 -7 283 -7 q 414 87 414 -7 "},"Φ":{"ha":961,"x_min":82,"x_max":879,"o":"m 879 374 l 879 590 q 810 783 879 715 q 615 850 741 850 l 578 850 q 545 885 545 850 l 545 904 q 481 999 545 999 q 416 904 416 999 l 416 885 q 383 850 416 850 l 346 850 q 151 782 220 850 q 82 590 82 715 l 82 374 q 151 181 82 249 q 346 114 220 114 l 383 114 q 416 79 416 114 l 416 60 q 481 -35 416 -35 q 545 60 545 -35 l 545 79 q 578 114 545 114 l 615 114 q 810 181 741 114 q 879 374 879 248 m 351 728 l 383 728 q 416 693 416 728 l 416 271 q 383 236 416 236 l 351 236 q 214 375 214 236 l 214 589 q 351 728 214 728 m 610 236 l 578 236 q 545 271 545 236 l 545 693 q 578 728 545 728 l 610 728 q 747 589 747 728 l 747 375 q 610 236 747 236 "},"Χ":{"ha":781,"x_min":16,"x_max":765,"o":"m 347 639 l 171 921 q 102 966 142 966 q 63 951 79 966 q 46 911 46 937 q 77 839 46 886 l 256 564 q 285 494 285 517 q 253 408 285 458 l 26 56 q 16 31 16 37 q 72 -7 16 -7 q 144 15 115 -7 q 201 85 172 37 l 351 332 q 390 376 378 376 q 427 332 399 376 l 579 85 q 638 14 610 35 q 710 -7 667 -7 q 765 31 765 -7 q 754 56 765 39 l 528 408 q 496 494 496 457 q 525 564 496 519 l 704 839 q 734 911 734 885 q 681 966 734 966 q 615 926 640 966 l 435 639 q 392 590 404 590 q 347 639 378 590 "},"Ψ":{"ha":961,"x_min":82,"x_max":879,"o":"m 545 87 l 545 281 q 578 315 545 315 l 643 315 q 817 377 755 315 q 879 549 879 438 l 879 833 q 852 928 879 891 q 796 965 825 965 q 747 886 747 965 l 747 554 q 637 439 747 439 l 578 439 q 545 473 545 439 l 545 886 q 527 952 545 926 q 481 978 510 978 q 434 951 451 978 q 416 886 416 925 l 416 473 q 383 439 416 439 l 323 439 q 214 554 214 439 l 214 886 q 165 965 214 965 q 109 927 136 965 q 82 833 82 890 l 82 549 q 145 376 82 437 q 318 315 208 315 l 383 315 q 416 281 416 315 l 416 87 q 481 -7 416 -7 q 545 87 545 -7 "},"Ω":{"ha":966,"x_min":37,"x_max":929,"o":"m 900 123 l 718 123 l 745 143 q 854 259 833 209 q 875 392 875 310 l 875 711 q 806 904 875 836 q 611 971 737 971 l 355 971 q 160 903 229 971 q 92 711 92 836 l 92 392 q 120 247 92 296 q 222 143 148 199 l 249 123 l 163 123 q 73 95 109 123 q 37 26 37 67 q 66 0 37 0 l 368 0 q 429 18 408 0 q 449 61 449 36 q 396 144 449 100 l 319 210 q 238 303 252 267 q 224 395 224 339 l 224 710 q 361 848 224 848 l 606 848 q 743 710 743 848 l 743 395 q 724 294 743 329 q 647 210 705 259 l 571 144 q 518 61 518 99 q 538 18 518 36 q 599 0 559 0 l 804 0 q 893 28 857 0 q 929 97 929 56 q 900 123 929 123 "},"Ω":{"ha":966,"x_min":37,"x_max":929,"o":"m 900 123 q 929 97 929 123 q 893 28 929 56 q 804 0 857 0 l 599 0 q 538 18 559 0 q 518 61 518 36 q 571 144 518 99 l 647 210 q 724 294 705 259 q 743 395 743 329 l 743 710 q 606 848 743 848 l 361 848 q 224 710 224 848 l 224 395 q 238 303 224 339 q 319 210 252 267 l 396 144 q 449 61 449 100 q 429 18 449 36 q 368 0 408 0 l 66 0 q 37 26 37 0 q 73 95 37 67 q 163 123 109 123 l 249 123 l 222 143 q 120 247 148 199 q 92 392 92 296 l 92 711 q 160 903 92 836 q 355 971 229 971 l 611 971 q 806 904 737 971 q 875 711 875 836 l 875 392 q 854 259 875 310 q 745 143 833 209 l 718 123 l 900 123 "},"Ϊ":{"ha":396,"x_min":-3,"x_max":401,"o":"m 262 207 l 262 758 q 272 835 262 817 q 306 861 282 854 q 375 939 375 884 q 351 965 375 965 l 119 965 q 21 882 21 965 q 40 856 21 856 l 94 856 q 134 758 134 856 l 134 207 q 124 132 134 151 q 90 104 115 112 q 21 26 21 82 q 45 0 21 0 l 277 0 q 375 83 375 0 q 355 110 375 110 l 300 110 q 262 207 262 110 m 66 1221 q -3 1139 -3 1221 q 66 1059 -3 1059 q 116 1079 96 1059 q 137 1139 137 1099 q 116 1200 137 1179 q 66 1221 96 1221 m 329 1221 q 260 1139 260 1221 q 329 1059 260 1059 q 401 1139 401 1059 q 329 1221 401 1221 "},"Ϋ":{"ha":697,"x_min":12,"x_max":685,"o":"m 414 87 l 414 304 q 431 375 414 341 l 671 852 q 685 909 685 881 q 669 948 685 931 q 628 965 654 965 q 551 895 586 965 l 390 564 q 349 515 366 515 q 309 564 332 515 l 149 896 q 71 965 115 965 q 28 947 45 965 q 12 908 12 930 q 26 850 12 878 l 265 375 q 283 307 283 340 l 283 87 q 349 -7 283 -7 q 414 87 414 -7 m 216 1221 q 146 1139 146 1221 q 216 1059 146 1059 q 266 1079 245 1059 q 286 1139 286 1099 q 266 1200 286 1179 q 216 1221 245 1221 m 478 1221 q 410 1139 410 1221 q 478 1059 410 1059 q 550 1139 550 1059 q 478 1221 550 1221 "},"ά":{"ha":786,"x_min":82,"x_max":783,"o":"m 300 0 l 639 0 q 745 27 707 0 q 783 96 783 54 q 754 123 783 123 l 751 123 q 692 134 709 123 q 675 205 675 145 l 675 611 q 585 705 675 705 l 319 705 q 82 472 82 705 l 82 214 q 300 0 82 0 m 211 215 l 211 471 q 321 583 211 583 l 481 583 q 531 571 517 583 q 546 515 546 558 l 546 205 q 533 137 546 151 q 469 122 521 122 l 301 122 q 211 215 211 122 m 339 842 q 331 802 331 817 q 360 774 331 774 q 461 886 398 774 q 525 1042 525 998 q 509 1084 525 1067 q 467 1101 492 1101 q 403 1050 418 1101 l 339 842 "},"έ":{"ha":693,"x_min":74,"x_max":652,"o":"m 319 583 l 621 583 q 652 608 652 583 q 596 675 652 644 q 472 705 541 705 l 319 705 q 144 652 207 705 q 81 503 81 600 q 142 376 81 429 q 157 355 157 363 q 153 347 157 350 q 74 191 74 288 q 136 44 74 96 q 313 -7 199 -7 l 472 -7 q 596 24 541 -7 q 652 92 652 54 q 621 117 652 117 l 319 117 q 204 203 204 117 q 319 296 204 296 l 467 296 q 541 357 541 296 q 467 418 541 418 l 319 418 q 211 503 211 418 q 319 583 211 583 m 317 842 q 309 802 309 817 q 338 774 309 774 q 439 886 376 774 q 503 1042 503 998 q 486 1084 503 1067 q 444 1101 470 1101 q 380 1050 396 1101 l 317 842 "},"ή":{"ha":787,"x_min":97,"x_max":693,"o":"m 456 705 l 186 705 q 97 612 97 705 l 97 87 q 163 -7 97 -7 q 209 20 192 -7 q 227 87 227 47 l 227 513 q 238 568 227 553 q 294 583 250 583 l 454 583 q 564 471 564 583 l 564 -161 q 582 -231 564 -205 q 629 -256 600 -256 q 675 -229 658 -256 q 693 -161 693 -203 l 693 472 q 456 705 693 705 m 345 842 q 336 802 336 817 q 366 774 336 774 q 467 886 404 774 q 530 1042 530 998 q 514 1084 530 1067 q 472 1101 498 1101 q 408 1050 424 1101 l 345 842 "},"ί":{"ha":410,"x_min":97,"x_max":376,"o":"m 97 100 q 191 -7 97 -7 q 320 22 264 -7 q 376 89 376 50 q 347 117 376 117 l 302 117 q 236 134 246 117 q 227 199 227 152 l 227 611 q 209 679 227 652 q 163 705 191 705 q 115 680 134 705 q 97 611 97 655 l 97 100 m 122 842 q 114 802 114 817 q 143 774 114 774 q 244 886 181 774 q 308 1042 308 998 q 292 1084 308 1067 q 250 1101 275 1101 q 186 1050 201 1101 l 122 842 "},"ΰ":{"ha":785,"x_min":94,"x_max":690,"o":"m 224 228 l 224 611 q 205 679 224 653 q 158 705 187 705 q 112 679 130 705 q 94 611 94 652 l 94 227 q 330 -7 94 -7 l 454 -7 q 690 227 690 -7 l 690 611 q 673 679 690 652 q 627 705 655 705 q 579 679 597 705 q 561 611 561 653 l 561 228 q 452 117 561 117 l 334 117 q 224 228 224 117 m 343 885 q 334 844 334 857 q 363 817 334 817 q 465 929 401 817 q 529 1084 529 1041 q 512 1128 529 1111 q 471 1145 496 1145 q 407 1093 422 1145 l 343 885 m 225 936 q 155 854 155 936 q 225 774 155 774 q 275 794 254 774 q 296 854 296 814 q 275 916 296 895 q 225 936 254 936 m 557 936 q 489 854 489 936 q 557 774 489 774 q 629 854 629 774 q 608 915 629 895 q 557 936 587 936 "},"α":{"ha":786,"x_min":82,"x_max":783,"o":"m 300 0 l 639 0 q 745 27 707 0 q 783 96 783 54 q 754 123 783 123 l 751 123 q 692 134 709 123 q 675 205 675 145 l 675 611 q 585 705 675 705 l 319 705 q 82 472 82 705 l 82 214 q 300 0 82 0 m 211 215 l 211 471 q 321 583 211 583 l 481 583 q 531 571 517 583 q 546 515 546 558 l 546 205 q 533 137 546 151 q 469 122 521 122 l 301 122 q 211 215 211 122 "},"β":{"ha":786,"x_min":97,"x_max":705,"o":"m 705 233 l 705 329 q 695 409 705 373 q 642 478 684 444 q 625 500 625 491 q 640 522 625 510 q 696 665 696 574 l 696 746 q 630 918 696 858 q 457 978 565 978 l 342 978 q 162 917 227 978 q 97 742 97 856 l 97 -161 q 163 -256 97 -256 q 209 -229 192 -256 q 227 -161 227 -202 l 227 -69 q 240 -16 227 -32 q 293 0 254 0 l 472 0 q 644 62 583 0 q 705 233 705 124 m 227 193 l 227 741 q 342 854 227 854 l 457 854 q 567 745 567 854 l 567 665 q 457 555 567 555 l 404 555 q 330 493 330 555 q 404 433 330 433 l 465 433 q 576 329 576 433 l 576 233 q 547 152 576 182 q 465 122 517 122 l 296 122 q 241 139 255 122 q 227 193 227 155 "},"γ":{"ha":667,"x_min":12,"x_max":654,"o":"m 524 636 l 374 304 q 334 256 351 256 q 293 304 315 256 l 143 636 q 71 705 112 705 q 28 689 45 705 q 12 652 12 673 q 26 593 12 623 l 250 110 q 262 52 262 81 q 243 -49 262 37 q 224 -174 224 -136 q 286 -256 224 -256 q 355 -163 342 -256 q 422 123 382 37 l 640 593 q 654 652 654 621 q 638 689 654 673 q 596 705 622 705 q 524 636 555 705 "},"δ":{"ha":774,"x_min":68,"x_max":692,"o":"m 661 978 l 203 978 q 159 962 177 978 q 140 922 140 945 q 175 854 140 890 l 378 650 l 304 650 q 68 397 68 650 l 68 227 q 306 -7 68 -7 l 453 -7 q 692 227 692 -7 l 692 371 q 608 582 692 498 l 386 806 q 366 839 366 826 q 406 859 366 859 l 513 859 q 637 887 583 859 q 692 953 692 916 q 661 978 692 978 m 307 529 l 428 529 q 523 482 485 529 q 561 364 561 435 l 561 228 q 452 117 561 117 l 307 117 q 199 228 199 117 l 199 406 q 307 529 199 529 "}}}
